<?xml version="1.0" encoding="UTF-8"?><svg id="Layer_2" xmlns="http://www.w3.org/2000/svg" viewBox="0 0 1600 800"><defs><style>.cls-1{fill:#f7f9f9;}.cls-2,.cls-3{fill:#093144;}.cls-4{fill:#0d5b81;}.cls-5{fill:#78b7d5;}.cls-5,.cls-6,.cls-3,.cls-7{fill-rule:evenodd;}.cls-6{fill:#108dbe;}.cls-7{fill:#ada8a2;}</style></defs><g id="Layer_1-2"><rect class="cls-1" width="1600" height="800"/><g id="Trolley_and_bag"><path class="cls-7" d="m708.96,88.19h-13.06l-1.1,147.34,16.34.56-2.18-147.89Zm-124.16,0l-1.11,147.34,16.34.56-2.17-147.89h-13.06Z"/><path class="cls-3" d="m706.81,61.17c-1.34-.66-103.75-.24-112.23,0-8.44.23-9.99.78-11.96,3.65-1.97,2.88-1.09,23.74-1.09,23.74,2.18.66,18.5,0,18.5,0,0,0-.08-7.3,0-10.96.12-3.65,3.28-2.73,3.28-2.73,0,0,86.43-.99,88.23,0,1.81.99,1.09,14.6,1.09,14.6h19.62s-.3-17.27,0-21.91c.29-4.64-4.13-5.72-5.44-6.39Zm83.85,631.93s-.63-2.78-3.27-2.74c-2.62.03-13.06,0-13.06,0,0,0-3.24-.13-3.29,2.74v26.46s.77,2.83,3.29,2.74c2.56-.08,13.06,0,13.06,0,0,0,3.29-.5,3.27-3.65-.02-3.13,0-25.55,0-25.55Zm-263.59-2.74c-2.63.03-13.07,0-13.07,0,0,0-3.22-.13-3.27,2.74v26.46s.74,2.83,3.27,2.74c2.54-.08,13.07,0,13.07,0,0,0,3.28-.5,3.26-3.65-.01-3.13,0-25.55,0-25.55,0,0-.64-2.78-3.26-2.74Z"/><path class="cls-6" d="m683.91,192.14c-3.93-3.26-25.39-7.67-35.95-7.85-10.53-.16-29.97,2.72-32.66,5.6-1.92,2.05-3.87,14.08-4.81,20.94,24.8-.1,53.46-.21,78-.2-.81-7.35-2.28-16.6-4.57-18.5Zm127.43,98.53s1.04,321.59-1.09,341.49c-2.11,19.9-11.99,28.01-11.99,28.01,0,0,1,25.59-1.09,30.22-2.1,4.62-28.03,2.09-32.66,1.12-4.64-.98-4.34-12.32-4.34-12.32h-220.04s-.87,10.4-2.21,13.43c-1.3,3.01-33.92-.24-35.91-1.12-2.04-.88-1.1-28-1.1-28,0,0,2.32,2.08-6.56-7.84-8.83-9.93-9.03-59.35-9.77-88.46-.75-29.1.48-256.37,2.16-289.98,1.68-33.61,6.12-40.83,19.6-54.86,13.5-14.02,44.68-11.2,44.68-11.2,0,0,17.04-.12,41.01-.24,1.56-7,5.43-22.4,11.25-28.88,7.71-8.52,33.12-14.9,49.03-13.43,15.9,1.45,37.35,5.67,41.38,10.07,3.51,3.82,10.99,13.32,12.01,31.96,20.08.05,35.2.2,39.2.51,15.32,1.19,39.31,3.43,54.43,20.15,15.14,16.73,11.99,59.35,11.99,59.35Z"/><path class="cls-5" d="m772.25,615.42c-1.07,14.55-13.81,21.83-29.41,23.51-15.57,1.69-169.2.75-178.63,0-9.46-.75-25.41-2.6-30.49-5.59-5.08-2.99-6.53-14.55-6.53-14.55,0,0-.95-94.54-1.1-103-.17-8.47.34-11.2,3.27-16.81,2.91-5.58,10.9-6.71,10.9-6.71,0,0,49.51-.28,98.3-.56l-4.64,16.24,6.54,2.23,2.99-18.5h.54l3,18.5,7.62-5.59-6.28-12.93c36.9-.22,71.45-.42,81.43-.51,23.95-.18,26.87.76,34.85,3.36,8,2.62,8.74,14.55,8.74,14.55,0,0,0,91.81-1.11,106.37Zm-13.07-128.76c-14.82-1.69-220.02,0-220.02,0,0,0-19.56,1.19-18.5,21.28l2.18,108.61s-.34,18.14,9.81,22.38c10.14,4.25,31.84,5.59,46.82,5.6,14.98.01,160.14,0,160.14,0,0,0,18.47,0,26.11-6.72,7.68-6.72,11.58-18.73,11.99-29.11.45-10.36,0-101.88,0-101.88,0,0-3.68-18.47-18.53-20.16Zm33.78-240.73c-7.08-12.87-34.88-16.79-34.88-16.79,0,0-208.35-1.51-216.74-1.12-8.39.37-18.92,6.39-28.32,14.54-9.38,8.15-10.89,32.47-10.89,32.47l-2.16,272.07,5.45,2.23s3-253.4,3.24-266.46c.23-13.07.1-24.98,9.81-36.95,9.72-11.95,25.05-10.08,25.05-10.08h101.35l-6.57,14.56,7.61,2.24,3.63-15.87,1.82,15.87,6.54-2.24-4.74-14.56h96.23c13.59,0,18.02,1.48,31.59,7.85,13.57,6.36,11.99,41.41,11.99,41.41l-3.28,262h5.45s1.09-200.42,2.18-227.3c1.09-26.86,2.73-61.01-4.35-73.88Z"/><path class="cls-2" d="m768.41,590.65s-4.54-6.46-10.3-4.65c-5.78,1.81-11.81,11.88-11.06,17.31.76,5.42,3.52,8.52,3.52,8.52,0,0-8.43,35.14-7.28,44.69,1.15,9.56,32.16,39.79,32.16,39.79l-7.03-105.65Z"/><path class="cls-2" d="m1080.49,575.44s13.57,2.32,15.82,7.23c2.27,4.91,10.7,45.21,12.07,69.74,1.37,24.55-10.56,57.6-27.9,55.29-17.33-2.33,1.25-45.73,1.25-45.73,0,0,16.08-32.81-2.76-58.89l1.51-27.64Z"/><path class="cls-4" d="m924.99,504.53c16.12,0,26.23,4.52,32.25,8.69-22.76.15-45.69.52-64.6.84,4.21-4.77,14.16-9.53,32.35-9.53Zm159.41,60.73c-2.27-15.4-3.39-47.56-44.1-50.66-12.3-.93-30.71-1.33-51.25-1.43-5.76-9.71-37.19-17.75-58.44-19.11-24.5-1.55-52.02,10.08-59.56,13.18-3.64,1.5-5.23,4.54-5.95,7.28-2.05.03-4.05.06-5.73.07,0,0-52.79,2.72-69.44,9.7-16.64,6.97-25.93,10.46-25.55,43.39.37,32.93.75,109.8,1.51,126.19.75,16.39-3.78,48.54,20.35,48.54h282.31s15.07-.38,15.84-33.31c.75-32.93,2.25-128.45,0-143.85Z"/><path class="cls-2" d="m779.46,719.6l-.37-138.72s-3.02-34.86,12.81-42.61c15.84-7.75,63.7-13.56,113.46-14.33,49.75-.78,136.06,2.32,146.62,8.13,10.55,5.81,19.21,26.73,19.21,56.37s-3.74,131.15-3.74,131.15h-4.92l3.01-119.72s-.38-43.39-8.29-52.31c-7.91-8.91-4.9-13.56-43.72-15.88-38.82-2.33-159.81-3.1-188.07,4.65-28.27,7.75-36.94,7.54-39.59,31.66-2.64,24.13-1.59,154.31-1.59,154.31l-4.81-2.71Z"/><path class="cls-2" d="m779.58,626.57l290.81,2.72v4.25l-290.81-.77v-6.2Z"/></g></g></svg>