<?xml version="1.0" encoding="UTF-8"?><svg id="Layer_2" xmlns="http://www.w3.org/2000/svg" xmlns:xlink="http://www.w3.org/1999/xlink" viewBox="0 0 1600 800"><defs><style>.cls-1,.cls-2{fill:none;}.cls-3{clip-path:url(#clippath);}.cls-4{fill:#f7f9f9;}.cls-5{fill:#022a38;}.cls-6{fill:#054b67;}.cls-7{fill:#051039;}.cls-8{fill:#008ed7;}.cls-9,.cls-10{fill:#fff;}.cls-11{fill:#e3bc97;}.cls-12{fill:#00a1de;}.cls-13{fill:#dddfdf;}.cls-14{fill:#c7e9fa;}.cls-15{letter-spacing:-.02em;}.cls-2{stroke:#000;stroke-miterlimit:10;stroke-width:.75px;}.cls-16{letter-spacing:-.07em;}.cls-10{font-family:ArialMT, Arial;font-size:50.14px;isolation:isolate;}</style><clipPath id="clippath"><path class="cls-1" d="m767.06,547.99s-7.01.44-10.52,10.22c-3.59,9.66-3.41,12.23-6.22,16.11-2.62,3.9-5.41,9.25-5.73,16.95,0,0,.6,1.54,5.14,2.08l-1.08,5.85s.46,4.37-.19,8.21c-.65,3.84-1.09,10.06,3.84,10.55,4.94.49,15.18.04,15.18.04l.75,16.84s14.1,9.12,20.44,7.71c6.34-1.4,16.43-7.16,16.43-7.16l.25-24.46s8.47-17.71,10.33-28.46c1.67-10.77.7-25.78-8.73-32.97-9.53-7.2-27.65-8.08-30.93-9.35-3.29-1.17-6.92-2-7.4,2.06l-2.32-1.94c-.09-.11-2.99,4.54.75,7.73Z"/></clipPath></defs><g id="Layer_1-2"><rect class="cls-4" width="1600" height="800"/><g><g><rect class="cls-13" x="753.37" y="191.14" width="499.02" height="341.69" transform="translate(441.97 1268.73) rotate(-78.11)"/><rect class="cls-5" x="1034.77" y="57.05" width="11.91" height="250.23" transform="translate(647.96 1163) rotate(-78.11)"/><rect class="cls-5" x="1027.97" y="89.44" width="11.91" height="250.23" transform="translate(610.88 1182.06) rotate(-78.11)"/><rect class="cls-5" x="1021.18" y="121.82" width="11.91" height="250.23" transform="translate(573.8 1201.12) rotate(-78.11)"/><rect class="cls-5" x="1014.41" y="154.09" width="11.91" height="250.23" transform="translate(536.84 1220.12) rotate(-78.11)"/><rect class="cls-5" x="1007.5" y="186.69" width="11.91" height="250.23" transform="translate(499.46 1239.23) rotate(-78.11)"/><rect class="cls-5" x="1000.72" y="219.19" width="11.91" height="250.23" transform="translate(462.28 1258.4) rotate(-78.11)"/><rect class="cls-5" x="993.82" y="251.55" width="11.91" height="250.23" transform="translate(425.13 1277.34) rotate(-78.11)"/><rect class="cls-5" x="987.02" y="283.93" width="11.91" height="250.23" transform="translate(388.05 1296.4) rotate(-78.11)"/><rect class="cls-5" x="921.44" y="369.67" width="11.91" height="133.07" transform="translate(309.42 1253.78) rotate(-78.11)"/><rect class="cls-5" x="914.65" y="402.05" width="11.91" height="133.07" transform="translate(272.34 1272.84) rotate(-78.11)"/><rect class="cls-5" x="907.86" y="434.43" width="11.91" height="133.07" transform="translate(235.26 1291.9) rotate(-78.11)"/><path class="cls-2" d="m994.85,495.36c9.57-5.9,18.92-12.57,28.15-20.03,6.45-5.34,13.35-11.79,16.36-21.59-17.69,12.02-33.05,33.49-41.84,58.64,9.9-5.12,19.58-12.13,28.6-20.81,2.56-2.45,5.34-6.12,4.9-9.9-8.79,2.11-17.47,6.56-25.7,12.8,6.12-1.56,12.24-6.68,16.58-13.91-6.01,1.89-11.57,8.79-14.02,17.14,15.58,5.12,33.38,1.78,49.29-9.35-3.89,3.78-7.9,7.57-11.79,11.35,16.58-1.56,33.05-3.12,49.63-4.67-18.69-.11-37.5-.33-56.19-.45,9.9-.22,19.92-2.78,29.71-7.57-10.24-3.12-21.03-4.56-31.93-4.01-1.22,0-2.67.33-3.34,2-1,2.34.89,4.34,2.56,5.01,7.45,3.23,15.24,5.67,23.26,7.12-13.57-.45-27.37.22-41.17,2.23-.56.11-1.34.33-1.56,1.22s1,.89.89.22c-4.01-1.67-8.57-1.22-12.8,1.34,36.5,6.45,73.33,11.35,110.38,14.69-1.45-.22-2.78-.33-4.23-.56"/></g><g><path class="cls-6" d="m875.79,582.92l-350.83,34.27c-3.56.33-6.79-2.34-7.12-5.9l-48.07-492.7c-.33-3.56,2.34-6.79,5.9-7.12l330.36-32.27c14.8-1.45,28.04,9.46,29.49,24.26l46.07,472.33c.45,3.56-2.23,6.68-5.79,7.12Z"/><path class="cls-12" d="m680.51,387.76c-60.08,5.9-113.72-38.28-119.61-98.36-5.9-60.08,38.28-113.72,98.36-119.61,60.08-5.9,113.72,38.28,119.61,98.36,5.79,60.2-38.28,113.83-98.36,119.61Zm-19.69-201.28c-50.96,5.01-88.35,50.4-83.34,101.37,5.01,50.96,50.4,88.35,101.37,83.34,50.96-5.01,88.35-50.4,83.34-101.37-5.01-50.85-50.4-88.24-101.37-83.34Z"/><path class="cls-12" d="m680.51,388.32c-30.82,3-53.07-51.74-58.19-104.93-5.12-52.85,6.01-110.6,36.94-113.6,30.82-3,52.96,51.52,58.19,104.37,5.12,53.19-6.12,111.16-36.94,114.16Zm-19.69-201.84c-12.91,1.22-27.48,38.16-21.92,95.36,2.56,25.93,8.79,49.85,17.58,67.43,7.34,14.46,15.91,23.14,22.36,22.48,12.57-1.22,27.37-39.17,21.81-95.91-5.56-57.19-26.93-90.57-39.83-89.35Z"/><rect class="cls-12" x="572.71" y="231.77" width="184.38" height="16.69" transform="translate(-20.18 65.71) rotate(-5.57)"/><rect class="cls-12" x="577.61" y="303.76" width="190.94" height="16.69" transform="translate(-27.13 66.84) rotate(-5.57)"/><rect class="cls-1" x="534.43" y="467.67" width="310.89" height="100.26" transform="translate(-47.03 69.45) rotate(-5.57)"/><text class="cls-10" transform="translate(579 513.98) rotate(-5.57)"><tspan class="cls-16" x="0" y="0">P</tspan><tspan x="29.72" y="0">ASSPO</tspan><tspan class="cls-15" x="202.49" y="0">RT</tspan></text></g><g><g><path class="cls-8" d="m1093.47,500.3c0-13.65-11.17-24.82-24.82-24.82h-366.09c-13.65,0-24.82,11.17-24.82,24.82v198.97c0,13.65,11.17,24.82,24.82,24.82h366.09c13.65,0,24.82-11.17,24.82-24.82v-198.97Z"/><g><rect class="cls-14" x="714.77" y="515.69" width="131.23" height="168.88"/><path class="cls-7" d="m709.78,680.74c.41-.62.83-1.24,1.34-1.86,7.34-15.31,5.07-36.92,42.81-48.6h16.65c-.31,6.83,30.92,3.62,30.92,3.62,0,0,10.65-2.9,14.58-2.79,10.65.62,25.44,11.48,34.85,19.65v40.33h-15.2c-3.72-4.76-6.1-8.17-6.31-5.79,0,1.24-.1,3.21-.1,5.79h-87.28c-.1-4.65-.21-7.55-.21-7.55,0,0-.83,3.1-2.17,7.55h-29.89v-10.34Z"/><g><path class="cls-11" d="m767.06,547.99s-7.01.44-10.52,10.22c-3.59,9.66-3.41,12.23-6.22,16.11-2.62,3.9-5.41,9.25-5.73,16.95,0,0,.6,1.54,5.14,2.08l-1.08,5.85s.46,4.37-.19,8.21c-.65,3.84-1.09,10.06,3.84,10.55,4.94.49,15.18.04,15.18.04l.75,16.84s14.1,9.12,20.44,7.71c6.34-1.4,16.43-7.16,16.43-7.16l.25-24.46s8.47-17.71,10.33-28.46c1.67-10.77.7-25.78-8.73-32.97-9.53-7.2-27.65-8.08-30.93-9.35-3.29-1.17-6.92-2-7.4,2.06l-2.32-1.94c-.09-.11-2.99,4.54.75,7.73Z"/><g class="cls-3"><path class="cls-7" d="m767.03,548.05s4.28,10.9,10.31,10.7c6.03-.19,14.3,1.65,18.68,5.55l-7.39,4.18-4.09,18.97,4.09.58s2.72-7.1,6.03-9.14c3.31-1.95,13.91,3.21,8.17,13.72-3.89,7.2-8.37,6.62-8.37,6.62,0,0-.97,6.03,10.99,11.58,11.77,5.45,17.8-49.03,17.8-49.03-8.85-13.52-21.3-21.21-34.44-27.92-.19-.1-35.31-2.43-21.79,14.2Z"/></g></g><ellipse class="cls-7" cx="763.6" cy="574.6" rx="1.63" ry="2.33" transform="translate(-31.51 44.45) rotate(-3.27)"/></g></g><rect class="cls-9" x="885.58" y="509.26" width="170.46" height="21.36"/><rect class="cls-9" x="885.58" y="547.54" width="51.52" height="16.25"/><rect class="cls-9" x="944.55" y="547.65" width="111.38" height="16.25"/><rect class="cls-9" x="885.58" y="583.37" width="51.52" height="16.25"/><rect class="cls-9" x="944.55" y="583.37" width="111.38" height="16.25"/><rect class="cls-9" x="885.58" y="617.08" width="51.52" height="16.25"/><rect class="cls-9" x="944.55" y="617.08" width="111.38" height="16.25"/></g></g></g></svg>