<?xml version="1.0" encoding="UTF-8"?><svg id="Layer_2" xmlns="http://www.w3.org/2000/svg" xmlns:xlink="http://www.w3.org/1999/xlink" viewBox="0 0 1600 800"><defs><style>.cls-1{fill:none;}.cls-2{clip-path:url(#clippath);}.cls-3{fill:#f7f9f9;}.cls-4{fill:#046084;}.cls-5{fill:#012f43;}.cls-6{fill:#b59984;}.cls-7{fill:#905d38;}.cls-8{fill:#ccebf6;}.cls-9{fill:#a67561;}.cls-10{fill:#bdbfbf;}.cls-11,.cls-12{fill:#dddfdf;}.cls-13{fill:#dae4ed;}.cls-14{fill:#e2beaa;}.cls-15{fill:#d5dcdf;}.cls-16,.cls-17{fill:#0a5572;}.cls-18{fill:#098fc1;}.cls-19{fill:#17a0da;}.cls-20{fill:#714d30;}.cls-21{fill:#50312a;}.cls-17{opacity:.19;}.cls-17,.cls-22,.cls-12,.cls-23,.cls-24{isolation:isolate;}.cls-22{fill:#ff8a27;}.cls-22,.cls-12{opacity:.7;}.cls-25{opacity:.78;}.cls-26{fill:#5eb6e4;}.cls-26,.cls-27,.cls-28,.cls-29,.cls-30,.cls-31{fill-rule:evenodd;}.cls-27{fill:#0f3d50;}.cls-28{fill:#e37222;}.cls-29{fill:#d3ffff;}.cls-30{fill:#fff;}.cls-31{fill:#0187cb;}.cls-23{fill:#828180;opacity:.1;}.cls-24{opacity:.2;}</style><clipPath id="clippath"><path class="cls-1" d="m1216.18,228.6h-309.99c8.41,55.76,50.69,101.39,106.78,118.22v26.75h107.43v-30.42c50.59-19.31,88.02-62.45,95.78-114.55Z"/></clipPath></defs><g id="Layer_1-2"><g><rect class="cls-3" width="1600" height="800"/><g class="cls-25"><path class="cls-19" d="m1156.42,255.57l107.32-101.71c2.8-2.59,2.7-7.01-.11-9.6h0c-2.59-2.37-6.69-2.05-8.95.32l-107.75,111.42c-5.07,5.29-2.37,14.35-2.37,14.35.97,3.67,0,7.01-2.05,9.6-1.4,1.62-3.13,2.8-5.07,3.56-4.1,1.62-13.91,5.93-26.86,14.56-17.26,11.54-25.24,20.82-25.24,20.82,0,0-2.05,2.05-1.4,3.78.97,2.27,5.82,1.94,5.82,1.94,15.42-.22,34.3-11.33,34.3-11.33,17.37-11.22,33.98-24.59,27.94-45.19,0,.43-3.24-6.47,4.42-12.51Z"/><path class="cls-8" d="m1216.18,228.6h-309.99c8.41,55.76,50.69,101.39,106.78,118.22v18.44c0,4.53,3.67,8.09,8.09,8.09h91.04c4.53,0,8.09-3.67,8.09-8.09v-18.44c50.8-19.09,88.23-66.12,96-118.22Z"/><g class="cls-2"><rect class="cls-22" x="893.89" y="247.26" width="338.25" height="7.87"/></g><path class="cls-12" d="m1069.16,200.13c6.15-3.24,14.35-5.29,21.36-6.04,18.23-1.83,30.96-2.7,44.12-12.08,3.24-2.27,6.36-5.29,6.15-8.84-.11-2.27-1.62-4.21-3.34-5.61-5.82-5.39-14.24-7.23-22.54-8.2-37.54-4.64-75.29,4.31-113.04,6.36-8.41.54-16.83.65-24.81-1.73-7.98-2.27-15.53-7.12-18.55-14.24-4.21-9.71.86-21.14,8.84-28.58,7.98-7.33,18.66-11.97,28.69-17.15,9.38-4.75,18.55-10.68,23.84-19.2.65-.97,1.94-1.08,2.8-.22,2.91,3.45,2.37,9.06-.54,12.84-3.34,4.42-8.63,7.01-13.48,9.92-6.47,3.99-12.4,8.63-17.58,13.91-2.05,2.05-4.21,4.75-3.45,7.66.97,3.56,5.82,4.64,9.82,5.07,28.69,2.37,57.49-3.78,86.29-4.21,28.8-.32,60.51,6.47,77.23,28.04,1.94,2.48,3.67,5.29,3.99,8.41.32,4.1-2.05,7.98-5.07,11.22-9.92,10.68-25.13,15.96-40.12,19.09-14.99,3.13-30.52,4.42-44.87,9.28-3.78,1.4-6.04,3.24-7.23,6.26-.75,1.73-3.24,1.62-3.78-.11-1.08-3.78,1.19-9.71,5.29-11.86Z"/><path class="cls-8" d="m1116.86,372.68h-100.02c-1.82,0-3.32-1.36-3.32-3.01v-21.07h106.66v21.07c-.11,1.65-1.5,3.01-3.32,3.01Z"/><path class="cls-23" d="m1055.81,372.68h-34.15c-4.55,0-8.69-3.02-8.69-7.42l.56-18.99c-56.49-16.75-99.1-62.16-107.34-117.67h34.15c8.46,55.51,50.96,100.92,107.34,117.67v18.36c0,4.4,3.69,8.05,8.13,8.05Z"/></g><g id="suitcase"><path class="cls-18" d="m359.36,531.3c0-4.28,4.08-7.64,9.07-7.64h322.38c5.2.2,6.42-.31,6.93,4.99,1.63,14.07,0,28.84,0,42.91v156.35c0,.51.92,4.69-1.73,5.1-9.58-.51-19.06,1.02-28.23.2-23.75-2.14-48.82-.51-72.57-.51h-75.32c-50.15,0-100.09-.1-150.24-.51h-4.18s-6.32-1.12-6.42-6.01c-.82-32.31.1-161.85.31-194.88Z"/><path class="cls-18" d="m682.96,523.66h-314.54c-4.99,0-9.07,3.47-9.07,7.64,0,3.16,0,7.24-.1,12.13,4.99-1.63,10.09-3.06,15.19-4.18,29.46-6.52,60.54-8.05,90.81-8.87,29.66-.71,59.22-.2,88.78.82,23.34.92,46.58,2.34,70.12,2.14,23.44-.2,46.78-.71,70.02.2l3.98.1c-.1-1.63-.2-3.36-.51-4.99-.61-5.5-1.73-4.89-6.93-4.99-2.45-.2-5.2,0-7.75,0Z"/><path class="cls-17" d="m652.69,522.43h-22.02l1.02,100.5-1.02,108.75h22.02l-1.02-136.17,1.02-73.08Z"/><path class="cls-17" d="m437.02,523.45h-22.02l1.02,100.5-1.02,108.75h22.02l-1.02-136.17,1.02-73.08Z"/><path class="cls-8" d="m432.84,521.31h-22.02l1.02,102.54-1.02,110.89h22.02l-1.02-139.02,1.02-74.4Z"/><path class="cls-8" d="m647.09,734.64v-213.33h-23.75v213.43c7.95-.2,15.9-.2,23.75-.1Z"/><path class="cls-10" d="m477.49,523.76c0,3.36,0,6.73-.31,10.09,2.45,0,4.89-.2,7.24-.71,4.89-.92,9.89-1.43,14.88-1.32-.2-3.47.2-6.93,1.43-10.19-6.83-.92-13.76-.61-20.49,1.02-1.02.31-1.94.61-2.75,1.12Z"/><path class="cls-10" d="m581.65,533.03c1.02-.1,2.45-.51,2.65-1.43,0-.31,0-.71-.2-1.02l-3.87-9.58c-7.95.61-15.7,1.12-23.44,2.34,1.43-.2,1.73,10.5,2.14,11.52,7.54.41,15.19-1.83,22.73-1.83Z"/><path class="cls-4" d="m516.93,508.06c5.5.82,11.21.61,16.61-.61,7.24-1.63,15.19-4.89,21.61-1.43,4.18,2.24,5.81,6.63,7.24,10.7.82,2.45,1.63,5.2.2,7.44-.61.82-1.12,1.53-1.63,2.45-.92,2.34,1.53,4.89,4.38,5.3,2.96.2,5.71-.1,8.36-1.12,1.43-6.73,2.65-13.76,1.43-20.59-1.12-7.34-6.01-13.56-12.94-16.61-3.87-1.32-7.64-2.14-11.72-2.34-15.49-1.63-31.49-3.16-46.07,1.43-4.48,1.53-8.97,3.47-13.15,5.91-3.98,1.94-7.34,4.89-9.89,8.46-3.06,5.2-3.87,17.53-.1,22.63,4.18-.31,8.46-1.02,12.64-1.83-1.02-3.06-1.32-6.32-.71-9.38,1.12-2.55,2.96-4.79,5.1-6.63,5.2-4.59,11.42-4.99,18.65-3.77Z"/></g><g><path class="cls-5" d="m637.58,361.89s1.04,3.03,1.36,4.28c0,0-1.46,5.33,18.28-1.15,19.74-6.48,26.95-9.09,30.61-11.07,3.66-1.98,5.54-3.97,5.54-3.97l-3.45-4.6-37.61,11.7-14.73,4.81Z"/><path class="cls-5" d="m637.37,361.47c.1.1.1.31.21.42.21.63.63.94,1.25,1.15,3.13,1.04,10.55-1.67,13.89-3.03,1.15-.42,2.3-.84,3.55-1.15,25.28-6.06,35.41-12.01,39.07-16.71-2.09-.73-4.6-1.04-6.69,0-.73.42-1.67.31-2.51.63-6.69,2.61-16.82,3.34-27.37-5.54-1.88-1.57-5.01-4.28-7.31-3.55-4.28,1.36-10.55,5.33-16.09,4.6-1.25-.21-2.4.94-2.19,2.19.21,1.78.63,4.49,1.36,7.94.42,1.67.84,3.45,1.46,5.43.52,1.67.84,3.34,1.04,5.01,0,.84.1,1.67.31,2.61Z"/><path class="cls-13" d="m639.78,370.14c.73,1.57,2.19,2.61,3.86,2.61,2.09,0,5.43-.52,10.65-3.34,1.36-.73,2.72-1.36,4.18-1.78,3.24-1.04,9.19-2.92,15.46-4.28,8.67-2.19,29.25-10.55,26.01-18.07l-.31-.42-.63-.94c-.42-.52-.84-1.04-1.36-1.46-2.19,4.39-10.24,13.27-40.32,20.37-1.25.31-2.4.63-3.55,1.15-4.07,1.57-14.1,5.33-15.25,1.88,0,0,0,.63.21,1.57.31.73.63,1.78,1.04,2.72Z"/><path class="cls-3" d="m643.74,373.07c-1.78,0-3.34-1.04-4.07-2.72h0c-1.04-2.19-1.15-4.28-1.15-4.39s.1-.21.21-.21.21,0,.21.21c.1.42.42.73.84.94,2.82,1.36,10.76-1.57,14.1-2.92,1.15-.42,2.4-.84,3.55-1.15,29.67-7.1,37.92-15.77,40.11-20.26,0-.1.1-.1.1-.1h.21c.52.42,1.04.94,1.36,1.46l.94,1.36h0c.52,1.25.52,2.61-.21,3.97-3.03,6.37-18.38,12.54-25.91,14.42-5.95,1.36-11.7,3.13-15.46,4.28-1.36.42-2.72,1.04-4.18,1.78-2.3,1.25-4.28,2.09-5.95,2.61-2.09.52-3.66.73-4.7.73Z"/><path class="cls-3" d="m664.01,339.74c-.52,0-2.4,3.13-2.4,3.34-.1.42.31.94.84,1.04.84.21,2.61-1.88,2.72-2.4,0-.21-.1-.73-.1-.94,0,0-.31-1.04-1.04-1.04Z"/><path class="cls-3" d="m667.67,341.41c-.63.31-.52.21-.84.84-.42.73-1.15,1.67-1.15,2.51-.1,1.98,2.3-.1,2.72-.73.42-.63.52-.94.52-1.67-.1-.1-.42-1.36-1.25-.94Z"/><path class="cls-3" d="m671.11,342.67s-1.36,2.3-.52,3.45c.21.21.52.42.84.42.63-.1.73-.52.84-1.04.1-.42.21-.84.21-1.25s.1-.52-.1-.94c-.1.1-.31-1.04-1.25-.63Z"/><path class="cls-3" d="m674.77,343.61c.42-.63,1.36-.42,1.46.31.1.52.1.94-.1,1.46-.1.31-.1.84-.42,1.15-.42.52-1.15.21-1.25-.31,0,0-.42-1.36.31-2.61Z"/><path class="cls-3" d="m678.63,342.98c-.63.31-.21,1.57,0,2.19.1.42.21.52.52.73.21.1.73.31.94,0s-.21-1.67-.31-1.98c-.1,0-.52-1.25-1.15-.94Z"/><path class="cls-3" d="m659,340.37c.42-.1.94-.63,1.25-.94.21-.21.42-.42.52-.73,0-.21.42-.52.42-.73,0-.42-.31-.94-.84-1.15-.21,0-.52,0-.73.1-.31.1-.42.31-.63.52-.21.21-.42.31-.63.52-.21.21-.42.42-.52.63-.1.31,0,.73.21.94.21.31.42.42.73.52.21,0,.52.21.63.1"/><path class="cls-5" d="m629.43,374.74s1.25,2.92,1.67,4.18c0,0-1.04,5.43,18.07-2.61,19.12-8.04,26.22-11.28,29.67-13.48s5.22-4.39,5.22-4.39l-3.76-4.28-36.56,14.62-14.31,5.95Z"/><path class="cls-5" d="m629.23,374.32c.1.1.21.31.21.42.21.52.73.94,1.36,1.04,3.13.73,10.45-2.51,13.68-4.18,1.15-.52,2.3-1.04,3.45-1.36,24.76-8.04,34.37-14.73,37.71-19.85-2.19-.52-4.7-.73-6.69.52-.73.42-1.67.42-2.51.84-6.48,3.24-16.5,4.7-27.68-3.34-1.98-1.46-5.33-3.86-7.63-3.03-4.18,1.67-10.13,6.16-15.67,5.85-1.25-.1-2.3,1.04-2.09,2.4.31,1.78.94,4.39,1.98,7.83.52,1.57,1.15,3.34,1.88,5.33.63,1.57,1.04,3.24,1.36,4.91.21.84.31,1.67.63,2.61Z"/><path class="cls-13" d="m632.25,382.78c.84,1.46,2.4,2.4,4.07,2.3,2.09-.1,5.43-1.04,10.45-4.18,1.25-.84,2.61-1.57,4.07-2.09,3.13-1.25,8.98-3.66,15.15-5.54,8.46-2.82,28.31-12.85,24.55-20.16l-.31-.42-.73-.84c-.42-.52-.94-.94-1.46-1.36-1.78,4.49-9.19,14-38.65,23.61-1.15.42-2.3.84-3.45,1.36-3.86,1.98-13.68,6.37-15.04,3.13,0,0,.1.63.31,1.46.21.84.52,1.78,1.04,2.72Z"/><path class="cls-3" d="m636.33,385.39c-1.78.1-3.45-.84-4.28-2.4h0c-1.15-2.09-1.46-4.18-1.46-4.28s.1-.21.21-.21.21,0,.31.1c.1.42.42.63.84.84,2.92,1.15,10.65-2.4,13.89-4.07,1.15-.52,2.3-1.04,3.45-1.46,29.04-9.4,36.56-18.7,38.44-23.4,0-.1.1-.1.1-.1h.21c.52.42,1.04.84,1.46,1.36l1.04,1.25h0c.63,1.25.63,2.51.1,3.97-2.61,6.69-17.44,14-24.76,16.5-5.85,1.88-11.49,4.07-15.15,5.54-1.36.52-2.61,1.25-3.97,2.09-2.19,1.46-4.18,2.4-5.75,3.03-1.98.84-3.55,1.15-4.7,1.25Z"/><path class="cls-3" d="m654.19,350.61c-.52,0-2.09,3.24-2.19,3.45,0,.42.42.94.84.94.84.1,2.4-2.09,2.51-2.61,0-.21-.1-.63-.1-.84,0,0-.42-1.04-1.04-.94Z"/><path class="cls-3" d="m657.95,351.86c-.63.31-.52.21-.73.94-.31.73-1.04,1.78-.94,2.61.1,1.98,2.3-.31,2.61-.94s.42-.94.31-1.78c-.1,0-.52-1.25-1.25-.84Z"/><path class="cls-3" d="m661.4,352.9s-1.15,2.4-.31,3.55c.21.21.52.42.84.31.63-.1.63-.63.73-1.04,0-.42.1-.84.1-1.25s0-.52-.21-.94c.1,0-.21-1.15-1.15-.63Z"/><path class="cls-3" d="m665.16,353.53c.31-.63,1.25-.52,1.57.21.1.52.1.94,0,1.46-.1.31-.1.84-.31,1.15-.31.52-1.15.31-1.36-.21-.1,0-.63-1.25.1-2.61Z"/><path class="cls-3" d="m668.92,352.59c-.52.31,0,1.57.1,2.09.1.31.21.52.52.73.21.1.73.21.94-.1.21-.42-.31-1.57-.52-1.98.1.1-.42-1.04-1.04-.73Z"/><path class="cls-3" d="m649.18,351.65c.42-.1.84-.73,1.15-1.04.21-.21.42-.42.42-.73,0-.21.31-.52.31-.73,0-.42-.31-.94-.94-1.04-.21,0-.52.1-.73.21-.31.1-.42.31-.63.52-.21.21-.42.31-.63.63-.1.21-.42.52-.52.73-.1.31.1.73.21.94.21.31.52.42.84.42.21,0,.52.1.73.1"/><path class="cls-20" d="m495.94,224.11s72.49,15.04,90.77,20.16c28.31,7.94,73.12,91.92,73.12,91.92,0,0-6.69,11.91-19.01,15.25-13.48,3.66-71.03-101.01-100.59-108.95-29.67-7.94-44.29-18.38-44.29-18.38Z"/><g><g><path class="cls-16" d="m356.17,99.59v-7.21c1.46-3.03,7.31-1.98,8.15-.21,4.81,8.88,16.09,31.34,20.79,41.99,5.95,13.58,23.82,52.12,28.2,57.87,4.39,5.75,17.03,16.4,21.41,22.15,4.39,5.75,28.2,39.38,35.72,53.38l75.21-5.64c16.92,0,10.97,21.52,6.37,25.28-7.83,6.48-85.86,0-85.86,0,0,0-42.51-69.36-59.96-84.92-17.44-15.67-50.04-102.68-50.04-102.68Z"/><path class="cls-15" d="m353.66,92.49l-.31.84c-.63,1.57-.73,3.03-.42,4.49,2.4,11.39,13.37,63.09,19.43,76.57,6.79,15.15,13.58,25.59,17.65,29.56,6.37,6.16,24.86,17.03,24.86,17.03,3.97,4.91,18.7,30.19,18.7,30.19,0,0,3.66,23.09,10.03,32.49,4.28,6.37,14.21,17.44,22.35,22.98l.21,7.52,78.97-9.3s8.36-2.82,8.36-14.73c0-1.25,0-2.4-.1-3.34-.31-5.64-5.01-9.92-10.45-9.4-17.03,1.57-57.56,4.49-75.42-.31,0,0-11.91-3.66-18.49-36.14-4.18-20.47-25.38-33.22-33.74-41.05-8.15-7.63-22.98-24.86-55.99-107.38-1.15-2.61-4.7-2.61-5.64,0Z"/><path class="cls-15" d="m541.27,357.08h-49.72l-12.33-44.6-12.54,8.36c.21,2.92-1.25,3.34-5.33,7.83-4.07,4.49-27.99,26.22-27.99,26.22,0,0-3.86-3.66-6.79-.63-2.92,3.03,2.82,10.45,2.82,10.45h106.34c6.69-.21,5.54-7.63,5.54-7.63Zm-93.8,0c9.3-16.82,28.83-23.82,28.83-23.82l7.21,23.82h-36.04Z"/><polygon class="cls-15" points="465.96 310.49 465.96 323.87 482.36 323.87 476.93 303.6 465.96 310.49"/><path class="cls-15" d="m440.68,238.94s3.76-.31,9.61-.73c17.55-1.46,53.9-4.28,61.73-4.91h.52c9.82-1.04,7.94-9.51,7.94-9.51h-92.76"/><path class="cls-16" d="m388.97,143.26c8.57-3.13,8.04-8.98,8.04-8.98,0,0-12.85-24.44-17.55-31.96-4.7-7.52-10.13-8.46-14-6.58"/></g><path class="cls-16" d="m434.72,219.93s-7.52.73-8.15,3.76c-.73,3.03,1.25,0,1.25,0h92.76s1.78,8.46-7.94,9.51h.1c5.12-.42,6.37-1.15,8.04-3.13,1.67-1.98.94-10.13.94-10.13h-82.52"/></g><path class="cls-7" d="m464.81,252s5.95,16.4,25.28,14.94c19.32-1.46,64.76-3.66,82.52,8.36,17.76,12.01,46.69,79.81,52.33,85.34,0,0,18.07-.52,23.29-15.56-.84-.21-28.1-58.5-34.58-69.15-6.48-10.65-14-29.04-38.44-36.98-24.34-8.04-77.3-16.5-77.3-16.5l-33.11,29.56Z"/><path class="cls-14" d="m421.35,101.89c4.81,9.51,1.25,21.31-8.04,26.32-5.85,3.13-12.54,2.82-17.86-.21-3.13-1.78-5.75-4.49-7.52-8.04-3.03-5.95-2.72-12.85.21-18.38,1.78-3.24,4.39-6.06,7.83-7.94,9.19-5.01,20.58-1.25,25.38,8.25Z"/><path class="cls-14" d="m422.5,104.08c1.15,2.19,1.88,4.91,2.4,6.48,1.15,3.24,1.98,6.69,2.92,10.03.1.31.1.52.21.84v.1c1.25,4.6,8.98,10.76-.84,13.16-4.39,1.04-8.67,5.54-19.12,3.66-7.73-1.36-15.25-12.22-16.09-12.95-3.34-3.03-4.39-8.25-4.39-8.25l19.01-10.65c2.51-1.25,4.91-2.51,7.42-3.86,1.36-.73,3.24-1.98,4.81-1.88,1.57.1,2.72,1.46,3.66,3.34Z"/><path d="m419.06,108.89c-.21-.21-.42-.21-.73,0,0-.63.1-1.36-.63-1.36-.42,0-.73.63-.63,1.25,0,.31.1.63.21.84.42.73,1.04,1.25,1.67,1.04s.63-1.36.1-1.78Z"/><path class="cls-14" d="m422.19,103.98c1.88,2.4,5.01,4.91,7.94,7.42,2.09,1.78-1.36,4.81-3.34,6.27"/><path class="cls-21" d="m399.73,122.78c-.73.52-1.04.73-1.46,1.15-.1,0-.1-.1-.21-.1-1.04-1.98-2.09-3.97-3.24-5.95-.21-.31-.31-.63-.52-.84-.42-.73-.73-1.36-1.15-2.09-.21-1.25-.1-2.4,1.04-2.92.63,1.36,1.25,2.72,1.88,4.07.1.31.31.63.42.94.1.1.1.21.21.31,1.04,1.57,2.61,3.45,3.03,5.43Z"/><path class="cls-9" d="m428.77,123.41c-.1.1-.31.21-.42.31-1.36.73-3.24.84-4.7.1l-.31-.1.31-.73.31.1c1.46.63,3.34.42,4.49-.42l.31.73Z"/><path class="cls-21" d="m418.53,103.46c-.73.1-1.57.42-2.19.73-.73.31-1.46.73-2.09,1.25s-1.25,1.04-1.78,1.78c-.52.63-.94,1.36-1.36,2.09l-.63-.31c.42-.84.84-1.57,1.36-2.3s1.15-1.36,1.78-1.98,1.46-1.15,2.19-1.57c.84-.42,1.57-.73,2.51-1.04l.21,1.36Z"/><path class="cls-21" d="m395.13,112.23s5.64,9.4,5.43,10.34c-.21.84-3.03,4.07-5.22,5.33-3.13-1.78-5.85-4.6-7.73-8.15-3.03-6.06-2.82-13.06.21-18.59.84.94,2.4,2.09,4.6,1.57,3.45-.63,2.72,9.51,2.72,9.51Z"/><path class="cls-18" d="m403.49,147.75s-7.73,8.67-.31,27.89c5.95,15.46,21,25.7,34.05,41.68,13.89,17.13,21.94,33.43,28.31,37.5,0,0,25.28-16.19,37.71-32.07,0,0-32.8-44.71-49.1-56.93-16.3-12.22-27.89-21.73-27.89-21.73l-22.77,3.66Z"/><path class="cls-18" d="m415.5,151.72c7.73-1.88,13.06-4.91,13.06-4.91v-.73c-1.46-1.15-2.19-1.78-2.19-1.78l-22.77,3.55-1.04,1.57c0-.1,5.22,4.18,12.95,2.3Z"/><g><path class="cls-14" d="m394.19,127.48c2.72,2.4,3.86,1.88,4.91.94,1.78-1.67-1.46-7.52-2.3-9.09-1.25-2.3-5.12-8.57-9.19-5.75-3.03,2.19-.21,8.36,1.78,10.24.73.63,3.03,1.98,4.81,3.66Z"/><path class="cls-6" d="m390.75,116.93c1.98.94,3.86,2.92,4.91,5.12.52,1.04,1.88,4.18-.31,3.86-.94-.1-1.04-1.57-1.67-2.19-.84-.84-1.78-.94-2.51-1.88-.84-1.04-1.36-2.61-1.57-4.07-.73-4.18,1.88-.63,3.55.21"/></g><path class="cls-14" d="m396.91,130.72s6.16,10.76,6.79,18.07c8.57,5.54,22.88-2.51,22.88-2.51,0,0,.73-8.46-.1-14.42-1.04-5.95-29.56-1.15-29.56-1.15Z"/><path class="cls-14" d="m508.26,212.09s12.54-2.19,17.65,1.78c5.12,3.97,6.16,13.79,4.07,16.71-2.09,2.92-15.77-10.03-18.8-10.55-2.92-.63-2.92-7.94-2.92-7.94Z"/><path class="cls-6" d="m511.71,220.14c.1,0,.1.1.21.1s.1.1.21.1.1.1.21.1.21.1.21.1c.1,0,.1.1.21.1.1.1.21.1.31.21.1,0,.1.1.21.1.1.1.21.1.31.21l.1.1c.1.1.31.21.42.31,0,0,.1,0,.1.1.21.1.31.21.52.31,0-.52-.1-1.15-.42-1.88-1.88-5.01-3.76-7.21-5.01-8.04h0c-.63.1-.94.1-.94.1,0,0,0,7.31,2.92,7.83.1,0,.21,0,.31.1,0-.1,0,0,.1,0Z"/><path class="cls-15" d="m440.68,238.94s3.76-.31,9.61-.73c17.55-1.46,53.9-4.28,61.73-4.91h.52c9.82-1.04,7.94-9.51,7.94-9.51h-92.76"/><path class="cls-16" d="m434.72,219.93s-7.52.73-8.15,3.76c-.73,3.03,1.25,0,1.25,0h92.76s1.78,8.46-7.94,9.51h.1c5.12-.42,6.37-1.15,8.04-3.13,1.67-1.98.94-10.13.94-10.13h-82.52"/><polygon class="cls-24" points="498.13 223.79 503.77 223.79 517.87 220.03 503.25 220.03 498.13 223.79"/><path class="cls-24" d="m409.13,159.87s18.59-14.52,53.38,38.44c1.98,3.03,5.33,6.06,8.67,7.1,5.64,1.88,14.83,3.13,21.94,3.97,0,0-18.7,12.12-35.1,5.54-16.3-6.58-48.89-55.05-48.89-55.05Z"/><path class="cls-18" d="m414.15,157.36c-3.86,0-17.34,9.82-5.01,27.26,12.33,17.44,34.89,43.45,52.54,44.6,10.45.63,24.44-2.19,35.1-4.91,7.31-1.88,13.16-3.66,15.25-4.18,0,0-.21-7.1-4.28-9.09,0,0-34.05-3.97-39.59-3.55s-27.89-50.04-54-50.14Z"/><path class="cls-6" d="m426.79,138.87c0-1.36,0-2.82-.1-4.18-4.28,1.25-8.57,5.43-18.59,3.55-1.15-.21-2.3-.63-3.34-1.15h0c-.1,0,6.58,3.97,22.04,1.78Z"/><path class="cls-11" d="m688.35,350.5s-4.7-3.34-8.88-.84l-3.86,2.09c.84,3.76,4.91,7.63,4.91,7.63,0,0,7.83-6.16,7.83-8.88Z"/><path class="cls-11" d="m698.17,342.67s-4.39-3.76-8.67-1.78l-4.07,1.67c.42,3.86,4.07,8.15,4.07,8.15,0,0,8.46-5.43,8.67-8.04Z"/><path class="cls-16" d="m399.31,164.78s10.97,23.19,11.8,24.23c.84.94-6.48-3.86-7.94-6.58s-3.86-17.65-3.86-17.65Z"/></g><g id="richicon_ancillaries_parking"><g id="Group-34"><polygon id="Fill-2" class="cls-27" points="1198.68 643.28 1208.55 643.28 1208.55 570.31 1198.68 570.31 1198.68 643.28"/><g id="Group-33"><path id="Fill-3" class="cls-31" d="m1232.75,575.42h-53.93c-8.38,0-15.26-6.65-15.26-14.92v-64.37c0-8.26,6.77-14.92,15.26-14.92h53.93c8.38,0,15.26,6.65,15.26,14.92v64.37c-.11,8.26-6.88,14.92-15.26,14.92"/><path id="Fill-5" class="cls-30" d="m1200.4,511.97c-.11,0-.23.11-.23.23v14.69c0,.11.11.23.23.23h7.92c2.75,0,4.82-.69,6.31-2.07,1.38-1.49,2.18-3.1,2.18-5.51,0-2.18-.69-4.02-2.18-5.51-1.38-1.49-3.44-2.07-6.31-2.07h-7.92Zm-2.18,43.83h-7.57c-1.03,0-1.84-.8-1.84-1.84v-50.02c0-1.03.8-1.84,1.84-1.84h17.67c6.2,0,11.13,1.61,14.57,4.47,3.44,2.98,5.39,7.34,5.39,12.85s-1.72,9.87-5.39,12.85c-3.44,2.98-8.38,4.47-14.57,4.47h-7.92c-.11,0-.23.11-.23.23v16.87c-.11,1.15-1.03,1.95-1.95,1.95h0Z"/><path id="Fill-7" class="cls-26" d="m1176.65,620.63l-74.69-47.62c-7.92-4.47-16.75-6.65-25.82-6.65h-105.21c-11.36,0-22.49,3.67-31.55,10.44l-39.93,30.06c-5.05,3.79-7.92,9.87-7.8,15.95l.69,25.47c.11,2.41-.92,4.59-2.64,5.97l-3.33,2.87c-1.72,1.49-2.64,3.67-2.64,5.85v21.46l11.36,8.72c2.18-22.6,21.68-40.27,45.32-40.27,25.13,0,45.55,20.08,45.55,44.63,0,2.64-.23,5.05-.69,7.57h170.15c-.34-2.52-.69-4.93-.69-7.57,0-24.55,20.42-44.63,45.55-44.63s45.55,20.08,45.55,44.63c0,2.64-.23,5.05-.69,7.57h11.7l7.34-9.87c1.03-1.49,1.61-3.1,1.61-4.82v-30.98c-8.15-38.78-89.15-38.78-89.15-38.78"/><g id="Group-13"><path id="Fill-9" class="cls-29" d="m939.6,729.81c-17.1,0-30.98-13.65-30.98-30.4s13.88-30.4,30.98-30.4,30.98,13.65,30.98,30.4-13.88,30.4-30.98,30.4"/><path id="Fill-11" class="cls-27" d="m939.6,664.06c-19.85,0-36.03,15.83-36.03,35.34s16.18,35.34,36.03,35.34,36.03-15.83,36.03-35.34-16.06-35.34-36.03-35.34m0,9.98c14.34,0,25.93,11.36,25.93,25.36s-11.59,25.36-25.93,25.36-25.93-11.36-25.93-25.36,11.7-25.36,25.93-25.36"/></g><g id="Group-18"><path id="Fill-14" class="cls-29" d="m1200.55,729.81c-17.1,0-30.98-13.65-30.98-30.4s13.88-30.4,30.98-30.4,30.98,13.65,30.98,30.4-13.88,30.4-30.98,30.4"/><path id="Fill-16" class="cls-27" d="m1200.55,664.06c-19.85,0-36.03,15.83-36.03,35.34s16.18,35.34,36.03,35.34,36.03-15.83,36.03-35.34-16.18-35.34-36.03-35.34m0,9.98c14.34,0,25.93,11.36,25.93,25.36s-11.59,25.36-25.93,25.36-25.93-11.36-25.93-25.36,11.59-25.36,25.93-25.36"/></g><path id="Fill-19" class="cls-28" d="m952.91,699.91c0,7.46-6.2,13.42-13.77,13.42s-13.77-5.97-13.77-13.42,6.2-13.42,13.77-13.42c7.57,0,13.77,5.97,13.77,13.42"/><path id="Fill-21" class="cls-28" d="m1214.85,699.91c0,7.46-6.2,13.42-13.77,13.42s-13.77-5.97-13.77-13.42,6.2-13.42,13.77-13.42,13.77,5.97,13.77,13.42"/><path id="Fill-23" class="cls-30" d="m1152.44,621.77h-222.7l23.64-34.08c4.59-5.74,11.47-9.06,18.82-9.06h101.66c7.23,0,20.54-.69,28.8,5.62,8.26,6.31,49.8,37.52,49.8,37.52"/><polygon id="Fill-25" class="cls-26" points="1059.04 625.22 1046.77 624.41 1030.25 576.68 1040.92 573.01 1059.04 625.22"/><path id="Fill-29" class="cls-31" d="m1155.19,705.42c-.34-2.52-.69-5.05-.69-7.69,0-9.52,3.1-18.47,8.38-25.7h-185.53c5.16,7.34,8.38,16.06,8.38,25.7,0,2.64-.23,5.28-.69,7.69h170.15Z"/><path id="Fill-31" class="cls-30" d="m1235.05,636.8c-7.34,0-15.15-.23-15.15,4.36,0,8.03,4.82,4.02,21,16.52,4.59,3.56,15.37,3.67,17.9,3.1-2.75-11.82-12.05-18.59-23.75-23.98"/></g></g></g></g></g></svg>