<?xml version="1.0" encoding="UTF-8"?><svg id="Layer_2" xmlns="http://www.w3.org/2000/svg" xmlns:xlink="http://www.w3.org/1999/xlink" viewBox="0 0 1600 800"><defs><style>.cls-1,.cls-2{clip-rule:evenodd;}.cls-1,.cls-3{fill:#fff;}.cls-4{fill:#103043;opacity:.1;}.cls-4,.cls-5,.cls-6,.cls-7,.cls-8,.cls-9,.cls-3{fill-rule:evenodd;}.cls-10{clip-path:url(#clippath);}.cls-11{fill:#f7f9f9;}.cls-2{fill:none;}.cls-12{clip-path:url(#clippath-1);}.cls-13{clip-path:url(#clippath-3);}.cls-14{clip-path:url(#clippath-2);}.cls-5{fill:#f7f9fa;}.cls-6{fill:#469fd8;}.cls-7{fill:#255a7f;}.cls-8{fill:#d2d6d8;}.cls-9{fill:#9da0a1;}</style><clipPath id="clippath"><path class="cls-2" d="m341.4,481.68l-79.04-178.4,52.5-5.83,145.27,115.13,82.8,19.14c16.85-3.71,33.14-7.11,48.38-10.04,121.67-23.44,555.22-103.67,601.59-103.65,46.37.02,72.72,15.3,90.33,25.29,0,0,57.63,22.05,54.89,36.5-2.73,14.45-79.02,34.14-150.75,49.82-71.73,15.69-338.79,65.57-452.59,82.79-113.8,17.21-402.41,9-452.91-3.37l-1.28-10.79s24.18-6.8,60.81-16.6Z"/></clipPath><clipPath id="clippath-1"><path class="cls-2" d="m301.24,473.87l56.76-6.11,95.89,10.64s-8.34,11.51-51.35,16.95c-43.01,5.43-61.9-.01-61.9-.01l-39.39-21.46Z"/></clipPath><clipPath id="clippath-2"><path class="cls-2" d="m649.16,396.04l36.84,52.36,107.85,31.51s44.78,14.75,128.7.73c73.38-12.26,117.47-27.46,129.91-33.21,0,0-8.13-24.97-58.77-26.82-69.23-2.54-267.2,6.94-267.2,6.94l-50.44-26.91s-14.64-6.8-26.89-4.6Z"/></clipPath><clipPath id="clippath-3"><path class="cls-1" d="m926.34,460.62l-1.3-4.91s25.98-11.55,44.88-15.96c18.89-4.42,38.18-2.96,44.3,1.09,0,0,12.21,25.27,3.77,43.97,0,0-44.13,18.3-82.08,11.91l-1.06-4-30.35.19-.85-3.41c-7.19-.17-26.29-.71-29.05-1.65-2.78-.94,17.57-9.87,25.36-13.22l-.73-2.93,27.11-11.07Z"/></clipPath></defs><g id="Layer_1-2"><rect class="cls-11" width="1600" height="800"/><g><path class="cls-6" d="m341.4,481.68l-79.04-178.4,52.5-5.83,145.27,115.13,82.8,19.14c16.85-3.71,33.14-7.11,48.38-10.04,121.67-23.44,555.22-103.67,601.59-103.65,46.37.02,72.72,15.3,90.33,25.29,0,0,57.63,22.05,54.89,36.5-2.73,14.45-79.02,34.14-150.75,49.82-71.73,15.69-338.79,65.57-452.59,82.79-113.8,17.21-402.41,9-452.91-3.37l-1.28-10.79s24.18-6.8,60.81-16.6Z"/><g class="cls-10"><path class="cls-3" d="m274.71,503.82s73.04,14.34,211.88-7.51c138.84-21.84,490.82-90.5,539.66-93.99,48.83-3.5,186.76-7.3,238.23-13.36,51.47-6.05,81.24-17.68,81.24-17.68l-14.06,35.88s-324.76,86.09-448.26,106.11c-123.5,20.02-476.67,37.47-476.67,37.47,0,0-145.89,2.73-132.02-46.92Z"/><polygon class="cls-3" points="340.98 480.82 543.68 431.68 317.64 280.68 252.76 297.72 340.98 480.82"/><path class="cls-7" d="m278.78,503.93s101.19,5.45,165.25-3.58c64.06-9.04,297.23-50.95,332.21-57,34.99-6.04,233.96-42.52,260.07-43.6,26.12-1.08,169.4-5.46,229-13.44,59.6-7.97,75.45-14.15,75.45-14.15l3.15,6.75s-27.52,11.99-116.55,19.68c-89.03,7.7-175.1,5-218.09,11.38-42.99,6.37-306.99,53.2-332.16,58.51-25.17,5.32-193.15,34.76-249.46,41.29-56.32,6.53-133.73,1.12-151.01.61l2.13-6.44Z"/><path class="cls-9" d="m340.45,481.49s6.92,26.41-8.9,40.24c-15.83,13.83-54.25-10.28-54.25-10.28l-1.31-19.45,64.46-10.51Z"/><path class="cls-7" d="m1252.27,326.72l-29.12,6.24,5.13,17.45,54.54-10.09s-13.55-13.26-30.54-13.59Z"/><path class="cls-6" d="m364.38,364.07l2.88-.57.4,2.47-2.74.47.72,3.14-2.63.63-.55-3.34-2.79.47-.53-2.25,2.94-.57-.46-2.79,2.12-.48.64,2.82Zm-6.54,7.36c2.62-.46,5.12,1.29,5.58,3.91s-1.29,5.12-3.91,5.58-5.12-1.3-5.58-3.92,1.29-5.12,3.92-5.58Zm-11.77,1.94c2.68-.47,5.24,1.33,5.71,4.01s-1.33,5.24-4.01,5.71-5.25-1.33-5.72-4.01,1.33-5.24,4.01-5.71Zm35.61-6.39c2.73-.48,5.34,1.35,5.82,4.08s-1.36,5.34-4.09,5.81-5.34-1.35-5.82-4.08,1.35-5.34,4.08-5.82Zm-11.89,2.3c2.73-.48,5.33,1.35,5.81,4.08s-1.35,5.33-4.08,5.81-5.33-1.35-5.81-4.08,1.35-5.33,4.08-5.81Zm-21.53,14.97l1.85,5.18,34.73-5.77-.97-5.52-35.61,6.12Zm-27.56,17.17l4.17,22.46,8.55-1.51-1.24-8.48,10.86,6.68,9.92-1.77-14.03-10.23,7.69-11.72-7.71,1.15-7.45,9.32-1.82-7.48-8.96,1.58Zm57.27,13.4l-22.87,4-4.19-22.95,8.53-1.21,3.17,16.67,14.36-1.94,1,5.43Zm4.23-.86l-4.21-22.69,13.54-2.25,7.07,12.16,3.09-13.82,13.55-2.2,4.34,22.6-8.1,1.07-3.72-16.22-2.67,17.59-8.46,1.2-9.43-15.65,3.15,16.88-8.16,1.34Z"/><path class="cls-4" d="m452.17,479.14l-130.37,15.39s7.72,10.11,49.25,7.52c41.53-2.59,69.95-14.9,81.11-22.91Z"/></g><path class="cls-8" d="m301.24,473.87l56.76-6.11,95.89,10.64s-8.34,11.51-51.35,16.95c-43.01,5.43-61.9-.01-61.9-.01l-39.39-21.46Z"/><g class="cls-12"><path class="cls-5" d="m299.83,476.47l59.49-5.53,79.73,13.08s18.66-5.16,6.21-11.98c-12.45-6.82-86.19-11.71-86.19-11.71l-65.33,11.39,6.09,4.73Z"/></g><path class="cls-8" d="m649.16,396.04l36.84,52.36,107.85,31.51s44.78,14.75,128.7.73c73.38-12.26,117.47-27.46,129.91-33.21,0,0-8.13-24.97-58.77-26.82-69.23-2.54-267.2,6.94-267.2,6.94l-50.44-26.91s-14.64-6.8-26.89-4.6Z"/><g class="cls-14"><path class="cls-3" d="m646.25,398.09s18.18,47.35,26.52,50.58c8.34,3.22,53.65-16.45,53.65-16.45,0,0,232.16,2.4,261.49,4.21,29.34,1.81,53.79,7.44,53.79,7.44,0,0-2.06-16.21-32.41-25.73-30.36-9.52-344.03-31.93-344.03-31.93,0,0-29.62,1.66-19,11.88Z"/><path class="cls-4" d="m988.57,437.09s-47.17,3.14-99.78,34.94c-52.62,31.8-42.04,32.76-42.04,32.76l177.87-31.69s3.93-39.86-36.06-36Z"/></g><path class="cls-5" d="m926.34,460.62l-1.3-4.91s25.98-11.55,44.88-15.96c18.89-4.42,38.18-2.96,44.3,1.09,0,0,12.21,25.27,3.77,43.97,0,0-44.13,18.3-82.08,11.91l-1.06-4-30.35.19-.85-3.41c-7.19-.17-26.29-.71-29.05-1.65-2.78-.94,17.57-9.87,25.36-13.22l-.73-2.93,27.11-11.07Z"/><g><path class="cls-3" d="m926.34,460.62l-1.3-4.91s25.98-11.55,44.88-15.96c18.89-4.42,38.18-2.96,44.3,1.09,0,0,12.21,25.27,3.77,43.97,0,0-44.13,18.3-82.08,11.91l-1.06-4-30.35.19-.85-3.41c-7.19-.17-26.29-.71-29.05-1.65-2.78-.94,17.57-9.87,25.36-13.22l-.73-2.93,27.11-11.07Z"/><g class="cls-13"><path class="cls-8" d="m1009.28,435.1l6.42,52.55,7.44-1.8s3.42-17.59-1.33-33.37c-4.77-15.78-5.26-16.87-12.53-17.38Z"/><polygon class="cls-8" points="924.97 454.77 936.02 497.75 867.63 494.83 870.99 478.09 924.97 454.77"/><path class="cls-9" d="m899.03,470.77l5.72,22.43s-36.71,2.24-36.14-3.99c.56-6.23,23.44-16.96,30.43-18.43Z"/></g></g></g></g></svg>