<?xml version="1.0" encoding="UTF-8"?><svg id="Layer_2" xmlns="http://www.w3.org/2000/svg" xmlns:xlink="http://www.w3.org/1999/xlink" viewBox="0 0 1600 800"><defs><style>.cls-1{opacity:.1;}.cls-2{mask:url(#mask);}.cls-3{fill:#f7f9f9;}.cls-4,.cls-5{fill:#fff;}.cls-6,.cls-7{fill:#5eb6e4;}.cls-5{opacity:.2;}.cls-5,.cls-7,.cls-8,.cls-9,.cls-10,.cls-11,.cls-12,.cls-13,.cls-14{fill-rule:evenodd;}.cls-8{fill:#0f3d50;}.cls-9{fill:#e2beaa;}.cls-10{fill:#d9ac90;}.cls-11{fill:#00a1de;}.cls-12{fill:#8c6239;}.cls-13{fill:#c2deea;}.cls-14{fill:#676f73;}</style><mask id="mask" x="463.49" y="574.54" width="574.64" height="28.04" maskUnits="userSpaceOnUse"><g id="mask1_104_82"><path class="cls-4" d="m463.49,574.54h574.64v28.04H463.49v-28.04Z"/></g></mask></defs><g id="Layer_1-2"><rect class="cls-3" width="1600" height="800"/><g><path class="cls-7" d="m941.11,707.87h-397.24c-42.71,0-58.63-23.95-58.63-67.41l-.21-166.04c0-76.05,23.17-109.51,97.92-109.51l341.85.49c74.74,0,92.1,35.07,92.1,111.13l1.55,163.94c0,43.46-34.63,67.41-77.34,67.41Z"/><path class="cls-11" d="m485.03,588.83l.21,51.63c0,43.45,15.92,67.41,58.63,67.41h397.25c42.71,0,77.34-23.96,77.34-67.41l.21-53.66-533.64,2.04Z"/><path class="cls-8" d="m577.19,545.74c-6.42,0-11.61-4.37-11.61-9.75v-110.13c0-5.38,5.19-9.75,11.61-9.75s11.61,4.37,11.61,9.75v110.13c0,5.38-5.19,9.75-11.61,9.75Z"/><path class="cls-8" d="m646.06,545.74c-6.42,0-11.61-4.37-11.61-9.75v-110.13c0-5.38,5.19-9.75,11.61-9.75s11.61,4.37,11.61,9.75v110.13c0,5.38-5.19,9.75-11.61,9.75Z"/><path class="cls-8" d="m714.92,545.74c-6.42,0-11.61-4.37-11.61-9.75v-110.13c0-5.38,5.19-9.75,11.61-9.75s11.61,4.37,11.61,9.75v110.13c0,5.38-5.19,9.75-11.61,9.75Z"/><path class="cls-8" d="m783.77,545.74c-6.42,0-11.61-4.37-11.61-9.75v-110.13c0-5.38,5.19-9.75,11.61-9.75s11.61,4.37,11.61,9.75v110.13c0,5.38-5.19,9.75-11.61,9.75Z"/><path class="cls-8" d="m852.63,545.74c-6.42,0-11.61-4.37-11.61-9.75v-110.13c0-5.38,5.19-9.75,11.61-9.75s11.61,4.37,11.61,9.75v110.13c0,5.38-5.19,9.75-11.61,9.75Z"/><path class="cls-8" d="m921.48,545.74c-6.42,0-11.61-4.37-11.61-9.75v-110.13c0-5.38,5.19-9.75,11.61-9.75s11.61,4.37,11.61,9.75v110.13c0,5.38-5.19,9.75-11.61,9.75Z"/><g class="cls-2"><path class="cls-13" d="m1038.13,588.56c0,7.74-6.28,14.02-14.02,14.02H480.79c-9.55,0-17.3-6.28-17.3-14.02s7.75-14.02,17.3-14.02h543.32c7.74,0,14.02,6.28,14.02,14.02h0Z"/></g><path class="cls-9" d="m741.74,72.74s15.07.02,25.07.75c10.42.77,20.81-1.73,31.26-1.75,10.47-.03,25.93,11.75,25.93,11.75l14.07,7.56-21.2,142.39s-.19,2.89-1.08,4.08c-1.67,2.23-103.37-28.77-103.37-28.77l29.32-136.01Z"/><path class="cls-10" d="m729.29,200.93c24.13-23.74,61.21-32.95,96.65-28.39l-9.07,60.9s-.19,2.88-1.08,4.08c-1.58,2.13-93.49-25.76-102.59-28.53,5.74-.88,11.35-3.38,16.08-8.05Z"/><path class="cls-9" d="m786.39,190.48c7.37,1.42,14.62,3.35,21.77,5.62,37.18,31.48,41.93,87.94,13.1,124.57-.82,1.05-1.86,2.19-3.34,2.28-2.47.13-3.58-2.51-3.9-4.57-1.08-6.91-2.14-13.82-3.22-20.74-4.38,3.08-5.08,8.39-5.89,13.14-1.75,10.41-8.05,25.53-13.57,34.97-4.72,8.03-13.37,16.99-23.86,15.34-6.83-1.08-12.08-3.91-11.18-9.7-17.54,8.09-32.91-7.94-34.05-24.61-9.47.11-19.23.38-25.95-5.31-6.09-5.17-10.64-12.26-13.11-19.18-1.7-4.78-2.5-9.75-3.07-14.71-2.91-24.98,11.8-64.24,33.47-88.68,24.2-11.1,45.18-13.73,72.8-8.41Z"/><path class="cls-10" d="m735.46,238.46c2.25-1.97,4.82-3.95,7.58-5.82.21.65.42,1.28.68,1.94,5.32,13.04,12.3,26.11,23.99,36.02.04.04.14.13.21.18-2.97,1.45-5.61,3.47-7.68,6.21-1.84,2.45-4.14,5.36-6.21,8.44-4.77.25-8.33-.34-8.92-1.5-.13-.24-.28-.47-.42-.71-1.3-9.19-8.57-17.35-22.68-18.61.86-10.17,4.5-18.31,13.44-26.15Z"/><path class="cls-9" d="m837.92,249.27c5.21,25.86,25.95,42.19,26.32,68.41.01,1.23.02,2.49-.46,3.64-1.97,4.7-10.06,4.73-15.39,2.57-9.83-4.01-16.77-12.65-17.48-21.81-.55-6.93,2.15-4.38-.67-10.91-2.81-6.54-28.33-10.53-35.56-13.94-10.59-5.01-21.53-9.66-31.11-15.94-9.59-6.29-17.89-14.5-21.18-24.33-3.3-9.84-.79-21.43,8.27-28.25"/><path class="cls-14" d="m854.67,365.38h-34.83v-49.59c0-4.37-4.23-7.92-9.44-7.92h-111.14c-5.2,0-9.43,3.55-9.43,7.92v49.59h-34.83v-49.59c0-20.5,19.85-37.17,44.26-37.17h111.14c24.41,0,44.27,16.68,44.27,37.17v49.59Z"/><rect class="cls-6" x="650.96" y="354.69" width="44.04" height="11.14" rx="3.39" ry="3.39"/><rect class="cls-6" x="814.48" y="354.69" width="44.04" height="11.14" rx="3.39" ry="3.39"/><path class="cls-9" d="m769.54,349.19c2.03-3.12-1.27-10.84,1.98-13.14l-1.98,13.14Z"/><path class="cls-9" d="m781.66,286.15c1.21-3.57,5.33-4.28,9.63-5.33,3.08-.74,6.51.54,8.66,2.55,2.14,2.01,3.23,4.63,4.04,7.22,6.46,20.52-2.19,53.37-21.46,67-3.33,2.36-7.11,4.52-11.45,5.22-5.89.96-15.91-3.6-17.02-8.29"/><path class="cls-9" d="m695.65,318.77c2.69,3.2,6.2,5.92,10.4,7.68,6.86,2.86,15.53,2.86,21.96-.62,6.46-3.48,9.92-9.72,12.53-15.77,3.22-7.43,9.97-16.77,7.04-24.29-2.15-5.52-5.14-10.81-8.9-15.68-6.17-8-18.05-10.09-23.39.15-3.43,6.59.36,19.02,7.41,23.41-7.24,2.83-15.03,3.37-21.16,7.67"/><path class="cls-9" d="m743.94,304.16c7.2-9.31,9.52-37.39,27.14-38.1,5.56-.22,8.68,5.28,9.65,9.87,5.08,23.71-6.27,56.2-25.42,74.12-1.29,1.21-4.56,2.47-6.33,3.13"/><path class="cls-9" d="m782.38,356.71c3.72-1.51,12.29,10.16,26.5-6.36,14.03-16.32,18.03-42.47,8.08-44.98-8.61-2.18-11.21,7.92-13.7,20.03"/><path class="cls-12" d="m1028.36,557.73s.03-.09.05-.13t-.02.01s-.01.08-.02.12Z"/><path class="cls-12" d="m1031.32,558.25l-8.59-1.67,4.4.93-4.41-.86.17-.49,8.44,2.09Zm3.79.79l-3.42-.65,3.42.65Z"/><path class="cls-12" d="m1016.79,571.05v-39.31l2.99-.97c11.64-3.8,25.97-4.08,37.48-4.3l5.89-.13c8.08-.25,16.21-.07,24.09.1,6.81.15,13.6.29,20.39.17,9.45-.16,16.89-3.21,25.67-10.54,17.23-14.36,27.17-35.74,25.93-55.8-.7-11.13-5.24-26.89-22.92-38.7-8.54-5.69-10.99-14.47-6.12-21.83,2.56-3.87,7.5-6.86,12.87-7.81,4.67-.82,9.17-.02,12.63,2.28,43.65,29.14,52.94,84.53,21.14,126.1-18.96,24.79-42.83,38.13-69.03,38.6-6.89.12-13.84-.02-20.79-.18-7.74-.17-15.74-.34-23.54-.1-7.52.24-15.02.63-22.51,1.2-.71.06-8.21.98-13.53,3.98-1.36.78-10.65,7.25-10.65,7.25Z"/><rect class="cls-1" x="484.09" y="602.58" width="533.64" height="8.46"/><path class="cls-5" d="m587.85,426.07v110.13c0,5.38-5.19,9.75-11.6,9.75s-11.17-4-11.59-9.07c2.13,2.04,5.26,3.34,8.76,3.34,6.42,0,11.6-4.37,11.6-9.75v-110.13c0-.23,0-.45-.03-.68,1.78,1.72,2.85,3.96,2.85,6.41Z"/><path class="cls-5" d="m656.71,426.07v110.13c0,5.38-5.19,9.75-11.6,9.75s-11.17-4-11.59-9.07c2.13,2.04,5.26,3.34,8.76,3.34,6.42,0,11.6-4.37,11.6-9.75v-110.13c0-.23,0-.45-.03-.68,1.78,1.72,2.85,3.96,2.85,6.41Z"/><path class="cls-5" d="m725.57,426.07v110.13c0,5.38-5.19,9.75-11.6,9.75s-11.17-4-11.59-9.07c2.13,2.04,5.26,3.34,8.76,3.34,6.42,0,11.6-4.37,11.6-9.75v-110.13c0-.23,0-.45-.03-.68,1.78,1.72,2.85,3.96,2.85,6.41Z"/><path class="cls-5" d="m794.42,426.07v110.13c0,5.38-5.19,9.75-11.6,9.75s-11.17-4-11.59-9.07c2.13,2.04,5.26,3.34,8.76,3.34,6.42,0,11.6-4.37,11.6-9.75v-110.13c0-.23,0-.45-.03-.68,1.78,1.72,2.85,3.96,2.85,6.41Z"/><path class="cls-5" d="m863.27,425.06v110.13c0,5.38-5.19,9.75-11.6,9.75s-11.17-4-11.59-9.07c2.13,2.04,5.26,3.34,8.76,3.34,6.42,0,11.6-4.37,11.6-9.75v-110.13c0-.23,0-.45-.03-.68,1.78,1.72,2.85,3.96,2.85,6.41Z"/><path class="cls-5" d="m932.13,426v110.13c0,5.38-5.19,9.75-11.6,9.75s-11.17-4-11.59-9.07c2.13,2.04,5.26,3.34,8.76,3.34,6.42,0,11.6-4.37,11.6-9.75v-110.13c0-.23,0-.45-.03-.68,1.78,1.72,2.85,3.96,2.85,6.41Z"/></g></g></svg>