<?xml version="1.0" encoding="utf-8"?>
<!-- Generator: Adobe Illustrator 25.4.1, SVG Export Plug-In . SVG Version: 6.00 Build 0)  -->
<svg version="1.1" id="Layer_1" xmlns="http://www.w3.org/2000/svg" xmlns:xlink="http://www.w3.org/1999/xlink" x="0px" y="0px"
	 viewBox="0 0 1600 800" style="enable-background:new 0 0 1600 800;" xml:space="preserve">
<style type="text/css">
	.st0{fill:#F7F9F9;}
	.st1{fill:#E9C186;}
	.st2{fill:#E9D1AF;}
	.st3{fill:#D9B079;}
	.st4{fill:#054B67;}
	.st5{fill:#E27326;}
	.st6{fill:#D4EBF3;}
	.st7{fill:none;stroke:#003145;stroke-width:0.3092;stroke-miterlimit:10;}
	.st8{fill:#003145;}
	.st9{fill:#003045;}
	.st10{fill:none;}
	.st11{fill:#ECC896;}
	.st12{opacity:0.2;}
	.st13{fill:#021C27;}
	.st14{fill:#00A1DE;}
	.st15{fill:#DDDFDF;}
	.st16{fill:#DAB179;}
	.st17{fill:#EDF5F9;}
	.st18{fill:#B6E1F5;}
	.st19{fill:#07567A;}
	.st20{fill:#0BA0D8;}
	.st21{fill:#0C9DD8;}
	.st22{fill:#098FC1;}
	.st23{fill:#CCEBF6;}
	.st24{fill:#FFFFFF;}
</style>
<rect class="st0" width="1600" height="800"/>
<path class="st1" d="M631.8,513c-0.1,7.9-3,20.1-1.8,34.3c-0.3,6.9,2.3,19,7.9,23c3.5,2.1,3.2,11.4,0.4,11.1
	c-2.8-0.3-1.9-7.5-1.9-7.5s-1.8,3.4,1.3,10c2.2,4.7-15.8,9.9-20.4,0.1c-4.1-8.6-0.5-17.3-0.5-17.3s0.7-9.7-2.6-16.9
	c1.4,3.1-2.2-40.2-2.1-42.7c0.4-7.6,4.5-36.6,7.7-42.9c3.3-6.4,20.7,2.2,20.7,2.2S631.9,505.1,631.8,513z"/>
<path class="st1" d="M673.8,612.7c0,0-9,40.7-8.8,76.5l-18.3,1.2c0,0-3.2-62.1,0.4-80.4C650.7,591.7,673.8,612.7,673.8,612.7z"/>
<path class="st1" d="M686,612.7c0,0,9,40.7,8.8,76.5l18.3,1.2c0,0,2.5-67-0.4-80.4S686,612.7,686,612.7z"/>
<path class="st1" d="M768.4,464.6c5.9,2.4,33.6-27.9,31.5-37.9c-0.9-4.2,1.6-10.2,3.5-8s2,7.2,2,7.2s4.3-1.6,7.7-9.2
	c2.4-5.5,20.4,2.8,15.5,14.1c-4.4,10-14.5,14.7-14.5,14.7s-8.4,7-12.1,15.1c-1,2.3-26.7,35-35,31.4s-47.5-29.7-54.8-33.7
	c-7.4-3.9,7.5-22.4,7.5-22.4S762.5,462.2,768.4,464.6z"/>
<path class="st2" d="M613,471.6c2-4.9,21.9,0,21.9,0H613z"/>
<path class="st1" d="M661.7,433.5c1.1-1,1.8-2.5,2-4.2c1.1-6.7,1-23,0.9-25.9c0-0.2,0.2-0.4,0.4-0.4h1.3h26.9h1.3
	c0.2,0,0.4,0.2,0.4,0.4c0,2.9-0.1,18.8,0.9,25.9c0.3,1.9,1.2,3.7,2.7,4.7C692.8,442,667,435.9,661.7,433.5z"/>
<path class="st3" d="M664.7,403.5c0-0.2,0.2-0.4,0.4-0.4h1.3h26.9h1.3c0.2,0,0.4,0.2,0.4,0.4c0,1.6-0.1,7.2,0.1,13.2
	c-3.9,1.6-8.8,2.6-14.9,2.6c-6.3,0-11.4-1.3-15.5-3.1C664.8,410.4,664.7,405,664.7,403.5z"/>
<path class="st4" d="M683.8,627.8l-2.3-18.7c0,0,0.8,4-1.4,17c0,0-18.4,5.3-30.9,5.3c-12.6,0-15.8-6.5-15.8-6.5s1.6-2.7,1.9-16
	c0.3-13.3,4.9-40.4,4.9-40.4l80-8.8c0,0-1.6,39.5,10.9,63.4C731.2,623.1,708.3,636,683.8,627.8z"/>
<path class="st5" d="M628,437.6c10.2-8.8,28.2-14,28.2-14c0.7-0.3,1.6-0.7,3.5-1c1.9-0.2,22.3-2.9,39.7-0.3c0.4,0.2,0.7,0.3,1.2,0.4
	l2.9,0.9l10.2,3.1l35.4,26c0,0-6.9,19.2-17.7,24.6c-4.2-1-14-5.7-14-5.7s0.7,54.8,1.6,67.3c1.2,16.6,6.1,21.4,6.1,21.4
	s-20.4,10.8-50.9,10.3c-12.5-0.2-42.7-2.4-42.7-2.4s7.3-52.6,7.1-60.3l-1.5-28.4c-7.4-0.8-27.4-1.5-27.9-6.1c0,0,1.6-1.6,2-4
	C611.3,467.5,617.8,446.4,628,437.6z"/>
<path class="st6" d="M694.7,685.6l0.1,19.8l17.9,0.4l0.3-19l-11,0.1c0,0-2.4-1.4-4.1,0.4h-2C696,687.3,695.7,685.4,694.7,685.6z"/>
<g>
	<path class="st7" d="M701.1,689.3c0,1-0.8,1.9-1.9,2c-1.1,0-2-0.8-2-1.8"/>
	<path class="st7" d="M704.2,698.8c-2.8,0.1-5.2-2-5.4-4.7"/>
	<path class="st8" d="M704.2,695.6c-1.2,0-2.2-1.1-2.2-1.9c0-0.8,0.9-1.3,2.2-1.3V695.6z"/>
</g>
<path class="st7" d="M707.1,689.3c0,1,0.8,1.9,1.9,1.9c1.1,0,2-0.8,2-1.8"/>
<path class="st7" d="M704.1,698.8c2.8,0.1,5.2-2,5.3-4.7"/>
<path class="st8" d="M704,695.6c1.2,0,2.2-1.2,2.2-1.9c0-0.8-1-1.3-2.2-1.3V695.6z"/>
<path class="st6" d="M646.6,685.5l0.3,19.8l17.9,0.4l0.3-19l-7.5,0.1c0,0-5.5-3.3-7.6,0.4h-2C648.1,687.3,647.6,685.4,646.6,685.5z"
	/>
<g>
	<path class="st7" d="M653.2,689.3c0,1-0.8,1.9-1.9,2c-1.1,0-2-0.8-2-1.8"/>
	<path class="st7" d="M656.2,698.8c-2.8,0.1-5.2-2-5.4-4.7"/>
	<path class="st8" d="M656.3,695.6c-1.2,0-2.2-1.1-2.2-1.9c0-0.8,0.9-1.3,2.2-1.3V695.6z"/>
</g>
<path class="st7" d="M659.2,689.3c0,1,0.8,1.9,1.9,1.9c1.1,0,2-0.8,2-1.8"/>
<path class="st7" d="M656.2,698.8c2.8,0.1,5.2-2,5.3-4.7"/>
<path class="st8" d="M656.1,695.6c1.2,0,2.2-1.2,2.2-1.9c0-0.8-1-1.3-2.2-1.3V695.6z"/>
<path class="st8" d="M664.8,704.2c0,0,3.1,15.5-5.8,16.9c0,0-46.8,11-36.7,0c0,0,22.6-9.3,24.8-16.9H664.8z"/>
<path class="st8" d="M694.9,704.2c0,0-3.1,15.5,5.8,16.9c0,0,46.8,11,36.7,0c0,0-22.6-9.3-24.8-16.9H694.9z"/>
<path class="st1" d="M704.5,378.9c-1.7,5.2,0,13,3.7,14.3s7.8-4.4,9.5-9.6s0.1-10.4-3.5-11.7C710.6,370.6,706.3,373.8,704.5,378.9z"
	/>
<path class="st1" d="M651.7,381.5c2.4,4.9,1.8,12.9-1.6,14.6s-8.4-3.4-10.8-8.3c-2.4-4.9-1.6-10.3,1.8-12.1
	C644.5,374,649.3,376.5,651.7,381.5z"/>
<path class="st1" d="M674.1,322.7c35-3.4,37.9,29.5,38.1,40.4c0.2,7.9-0.9,19.6-2.2,25.4c-0.7,3.3,0.5,5.8-2.9,11.2
	c-3.4,5.4-10,16.6-26.2,17.6s-25.8-10.5-29.1-14s-2.7-7.6-3.9-10.8c-2.1-5.6-4.9-17-5.8-24.9C640.9,356.8,639,323.8,674.1,322.7z"/>
<path class="st9" d="M706.5,329.4c-7.2-9-24.9-13.2-38.6-11.8c-6,0.6-12,2.4-16.2,6c-3,2.5-5,5.2-5.1,8.6
	c-5.4,3.2-11.3,12.8-7.8,30.2c0.6,4.1,3.2,9.5,4.8,11.8c0.5-4.2,1.1-8.5,1.3-12.7c2.5-4.4,7.1-10,6.2-14c0.6,0.5,1.4,1,2.5,1.6
	c2.7,1.5,5.7,2.2,8.7,2.9c5.5,1.3,11,2.6,16.5,3.9c-1.3-0.3-5.1-6.3-6.6-7.5c-0.2-0.2-0.5-0.4-0.7-0.5c0.1,0,0.1,0,0.2,0
	c3.3,1.9,6.7,3.7,10.7,4.5c7.3,1.5,14.5,3,21.8,4.5c-1.3-2.8-3-5.4-5.2-7.6c4.7,0.9,8.3,2.2,8.8,3.9c1.7,5.5,2.8,13.4,4.3,18.9
	c1-3.7,1.6-3.5,1.9-14C714.2,347.6,713.7,338.5,706.5,329.4z"/>
<ellipse transform="matrix(0.9961 -8.811264e-02 8.811264e-02 0.9961 -30.6514 59.611)" cx="659.9" cy="377" rx="2.8" ry="3.4"/>
<ellipse transform="matrix(0.9961 -8.811264e-02 8.811264e-02 0.9961 -30.2948 62.8971)" cx="697.3" cy="374.6" rx="2.8" ry="3.4"/>
<path class="st10" d="M685.4,384.9c0.1,1.8-2.7,3.4-6.3,3.6s-6.6-1-6.7-2.8"/>
<path class="st3" d="M673.7,385.6c0.1,1.5,3,2.6,6.5,2.4s6.2-1.6,6.1-3.2L673.7,385.6z"/>
<path class="st11" d="M1035.7,405.9c-1-2.1-7-15-7.8-29.8c0,0-30.9-28-29-21.6l6.2,24.6c0.5,1.5,2.2,9.3,2.5,10.8l1.8,12.9
	c0.2,0.9,0,3.5,0,3.5c-3,9.6-2.2,22.2,0.3,23.2c3.2,1.3,2.6-14.5,6.5-13.3c3.8,1.3-4.2,18.9-3.6,20.6c0.6,1.7,12.9,6.9,14.5,6.7
	s5.7-6.9,9.5-15.8C1039.5,421.1,1036.7,408,1035.7,405.9z"/>
<g>
	<path class="st11" d="M914.4,520.5c0,0,10,16.1,1.4,85.8c0,0-5.4,34.5-1.4,53.6c0,0,5.7,24.1-1.4,27.2l-19.6,23l-30.7,8.4l-3.6-9.2
		c0,0,35.5-22.9,27.9-74.1c-8.5-57.2-9.7-72.2-16.1-134.6L914.4,520.5z"/>
	<g class="st12">
		
			<image style="overflow:visible;enable-background:new    ;" width="116" height="85" xlink:href="E12F63533035D266.png"  transform="matrix(1 0 0 1 840 521)">
		</image>
	</g>
	<path class="st11" d="M933.7,519c0,0-5.7,26,10,101.8c0,0,5.7,34.5,0,52.4l29,41l20-6.5c0,0-20.7-28.7-22.5-58.6l3.9-137.1
		L933.7,519z"/>
	<path class="st13" d="M916.5,678.7c0,0-9.2,1.5-21.3,16.1S876.4,712,876.4,712s-3.6-5.9-13.8-5.7c0,0-23.8,18.6-13.3,19.5
		s36.7-1.7,36.7-1.7s7.2,0.2,11.3-10c4-10.1,7-11.8,7-11.8l1.6,17.5h5.6l0.5-19.2c0,0,1.1-4.9,4.4-11.8
		C919.9,682,916.5,678.7,916.5,678.7z"/>
	<g class="st12">
		
			<image style="overflow:visible;enable-background:new    ;" width="111" height="81" xlink:href="E12F63533035D26A.png"  transform="matrix(1 0 0 1 898 526)">
		</image>
	</g>
	<path class="st13" d="M944.5,670.4c0,0-2.7,5.5,0,16.7s1.9,13.8,1.9,13.8l1.2,16.1h6v-14.6c0,0,4,4.2,7.2,11.8
		c3.2,7.7,14.2,9.1,14.2,9.1s34.9,7.8,27.9-2.9c-7-10.6-12.8-16.4-12.8-16.4s-9.8-1.1-15.4,3.8C969.2,712.7,944.5,670.4,944.5,670.4
		z"/>
	<path class="st14" d="M870,564.4c0,0-9.9-85.5-5.8-170.2h115.6c0,0,12.3,73.4,0.7,170.2l-4,0.8c-14.5,3-33.4,3.1-47.9,0.3l-10-1.9
		c-8.6-1.7-22.4-1.9-31.1-0.7L870,564.4z"/>
	<g class="st12">
		
			<image style="overflow:visible;enable-background:new    ;" width="195" height="246" xlink:href="E12F63533035D26D.png"  transform="matrix(1 0 0 1 827 358)">
		</image>
	</g>
	<g class="st12">
		
			<image style="overflow:visible;enable-background:new    ;" width="195" height="246" xlink:href="E12F63533035D26E.png"  transform="matrix(1 0 0 1 827 358)">
		</image>
	</g>
	<path class="st8" d="M870,564.4c0,0-9.9-85.5-5.8-170.2h115.6c0,0,12.3,73.4,0.7,170.2l-4,0.8c-14.5,3-33.4,3.1-47.9,0.3l-10-1.9
		c-8.6-1.7-22.4-1.9-31.1-0.7L870,564.4z"/>
	<path class="st11" d="M809,396.3c-0.2,0.9-1.1,2.2-1.6,2.9c-2,3-7.4,11.9-9.5,22.7c0,0-5.1,18.5,10.9,22.9
		c15.9,4.4,16.9-5.5,16.9-5.5s1.2-12.4,5.3-19.1c0,0,4,10.6,7.2,9.4c4-1.6,3.1-7.8-3.4-19.5c0,0-5.9-10.5,2.6-32.9l-23.5-4.2
		c-0.2,1.6-1.8,9.3-2.2,10.9L809,396.3z"/>
	<g class="st12">
		
			<image style="overflow:visible;enable-background:new    ;" width="187" height="87" xlink:href="E12F63533035D26C.png"  transform="matrix(1 0 0 1 828 357)">
		</image>
	</g>
	<g>
		<path class="st15" d="M1027.8,346c0,0,0.2,9.8-5.1-19.7c-0.2-1.3-0.4-2.6-0.6-3.9l-1.7-14.8c-7.4-73.6-17.9-90.1-17.9-90.1
			c-11-7.1-46.1-14.6-46.1-14.6l-34.3-0.2h-0.3l-34.3,0.2c0,0-35.1,7.6-46.1,14.6c0,0-10.3,16.5-17.7,90.1l-1.7,14.8
			c-0.2,1.3-0.3,2.6-0.6,3.9c-5.3,29.5-5.1,19.7-5.1,19.7c-1.5,16.3-3.7,27.3-4.7,34.6l26.8-1.4c12.2-35.8,14.2-35.5,14.2-35.5
			c5.8-38.2,19.4-89,8-68l0.6,62.3c2.1,7,2.3,10.2,0.6,17.3l-9.4,80.6l22,5.1c30.1,6.9,61.6,6.9,91.7,0l22.3-5.1l-5.6-80.6
			c-1.7-7.1-9.3-84.2-9.3-84.2s14.7,39.7,17.8,72.7c0,0,1.1-0.3,13.3,35.5l26.8,1.4C1030.5,373.3,1029.3,362.4,1027.8,346z"/>
	</g>
	<path class="st11" d="M892.3,179.1l-2.7,22.8c0,0,16.9,16.7,41.9,0l-2.8-24.1L892.3,179.1z"/>
	<path class="st9" d="M946.7,158.5c8.1,19.5-11.4,34.9-17.9,29.8s6.6-12,5.3-18.9c-1.4-7.8,2.3-26.3,2.3-26.3
		S944.7,150.5,946.7,158.5z"/>
	<path class="st9" d="M875.9,158.5c-8.1,19.5,11.4,34.9,17.9,29.8s-6.6-12-5.3-18.9c1.4-7.8-2.3-26.3-2.3-26.3
		S877.9,150.5,875.9,158.5z"/>
	<g class="st12">
		
			<image style="overflow:visible;enable-background:new    ;" width="111" height="82" xlink:href="E12F63533035D26B.png"  transform="matrix(1 0 0 1 855 148)">
		</image>
	</g>
	<path class="st11" d="M953.3,146.4c0-5.3-1-9.8-3.5-10.8c1.3-8.8,0.7-12.9,0.7-19c0-7.3-2.6-15.4-9-23.8c-4.6-6-15.5-9.2-30.9-9.2
		c-13.8,0-24.8,2.9-29.8,9c-6.8,8.2-9.6,16.9-9.6,24.1c0,6.1-0.3,10.2,1.4,19c-2.6,1-3.5,5.5-3.5,10.8s1,9.8,3.5,10.8
		c1.2,0.8,2.6,1.3,4.1,1.3c0.1,0,0.2,0,0.3,0c2.2,18.5,16.6,32.8,34.1,32.8s31.9-14.3,34.1-32.8c0.2,0,0.4,0,0.6,0
		c1.5,0,3-0.5,4.1-1.3C952.3,156.2,953.3,151.7,953.3,146.4z"/>
	<ellipse class="st9" cx="893.6" cy="139" rx="2.5" ry="3.1"/>
	<ellipse class="st9" cx="927.2" cy="139" rx="2.5" ry="3.1"/>
	<path class="st16" d="M916.7,155.3c0,1.6-2.9,2.9-6.6,2.9s-6.6-1.3-6.6-2.9H916.7z"/>
	<g class="st12">
		
			<image style="overflow:visible;enable-background:new    ;" width="73" height="78" xlink:href="E12F63533035D265.png"  transform="matrix(1 0 0 1 914 78)">
		</image>
	</g>
	<path class="st9" d="M883.9,108c0,0,0.4,28.7-10.9,37c0,0-7.4-33.4,2.5-49.1c5.6-8.9,22.5-13.7,34.4-13.7c0,0,24.9-2,37.6,15.7
		c8.1,11.3,3.3,22.7-30.9,35.2C922.5,99.8,883.9,108,883.9,108z"/>
	<ellipse class="st17" cx="874.3" cy="155.9" rx="1.9" ry="1.8"/>
	<ellipse class="st17" cx="948" cy="155.9" rx="1.9" ry="1.8"/>
</g>
<path class="st9" d="M936.6,121.3c0,0,2.1,20.8,7.2,27.5c0,0,17.2-24.1,6.9-44.9"/>
<g>
	<path class="st18" d="M795,526.8h-36.3c-1.1,0-1.9,0.8-1.9,1.8V618c0,1,0.9,1.8,1.9,1.8H795c1.1,0,1.9-0.8,1.9-1.8v-89.4
		C796.9,527.6,796.1,526.8,795,526.8z M793.1,530.4v85.8h-32.5v-85.8H793.1z"/>
	<path class="st19" d="M751.8,733.7h-0.2c-1.5,0-2.7-1.2-2.7-2.7v-7.6c0-1.5,1.2-2.7,2.7-2.7h0.2c1.5,0,2.7,1.2,2.7,2.7v7.6
		C754.4,732.5,753.2,733.7,751.8,733.7z"/>
	<path class="st19" d="M802.9,733.7h-0.2c-1.5,0-2.7-1.2-2.7-2.7v-7.6c0-1.5,1.2-2.7,2.7-2.7h0.2c1.5,0,2.7,1.2,2.7,2.7v7.6
		C805.5,732.5,804.3,733.7,802.9,733.7z"/>
	<g>
		<path class="st20" d="M761.3,614.8l-2.6-0.8c0-0.1,4.3-12.6,18.6-12.6c14.4,0,17.9,12.6,17.9,12.7l-2.7,0.6
			c-0.1-0.4-3-10.7-15.2-10.7S761.5,614.3,761.3,614.8z"/>
	</g>
	<path class="st21" d="M829,658.3l-2.8,55.8c-0.4,7.7-7.1,13.7-15.2,13.7h-67.4c-8.1,0-14.9-6-15.2-13.7l-2.8-55.8
		c0-6.9,1.5-13.5,4.3-19.5c8-17.2,26.2-29.2,47.4-29.2c14.3,0,27.2,5.5,36.5,14.3c4.5,4.3,8.2,9.4,10.8,15
		C827.5,644.9,829,651.4,829,658.3z"/>
	<path class="st22" d="M825.3,640.3c-4.2,21-24.5,37.8-48,37.8s-43.2-18.2-47.4-39.2c8-17.2,26.2-27,47.4-27
		c14.3,0,27.2,5.5,36.5,14.3C818.4,630.5,822.7,634.7,825.3,640.3z"/>
	<path class="st21" d="M824.7,638.9c-4.2,21-23.8,37-47.4,37s-43.2-15.9-47.4-37c8-17.2,26.2-29.2,47.4-29.2
		c14.3,0,27.2,5.5,36.5,14.3C818.4,628.2,822.1,633.3,824.7,638.9z"/>
	<path class="st21" d="M749.8,618.3c0,0-16-30.1-25.4-21.2c-9.5,8.9,17.6,26.6,17.6,26.6L749.8,618.3z"/>
	<path class="st21" d="M806,619.2c0,0,16-30.1,25.4-21.2c9.5,8.9-17.6,26.6-17.6,26.6L806,619.2z"/>
	<path class="st23" d="M747.4,618.7c0,0-8.9-16.7-14.1-11.7c-5.3,4.9,9.8,14.8,9.8,14.8L747.4,618.7z"/>
	<path class="st23" d="M808.4,619.7c0,0,8.9-16.7,14.1-11.7c5.3,4.9-9.8,14.8-9.8,14.8L808.4,619.7z"/>
	<ellipse class="st23" cx="777.3" cy="660.4" rx="16.5" ry="10.4"/>
	<path class="st19" d="M774.5,666.5c-1,0-1.8-0.6-2-1.5c-0.1-0.3-0.3-0.5-0.7-0.5l0,0c-0.4,0-0.8,0.4-0.7,0.8
		c0.3,1.4,1.7,2.5,3.3,2.5c1.9,0,3.5-1.4,3.5-3.2h-1.4C776.6,665.6,775.7,666.5,774.5,666.5z"/>
	<path class="st19" d="M780.1,666.5c1,0,1.8-0.6,2-1.5c0.1-0.3,0.4-0.5,0.7-0.5l0,0c0.4,0,0.8,0.4,0.7,0.8c-0.4,1.4-1.7,2.5-3.3,2.5
		c-1.9,0-3.4-1.5-3.4-3.2h1.4C778,665.6,778.9,666.5,780.1,666.5z"/>
	<rect x="776.6" y="657.4" class="st19" width="1.4" height="7.1"/>
	<ellipse class="st21" cx="777.3" cy="657.1" rx="5.2" ry="3.3"/>
	<ellipse class="st19" cx="762.6" cy="641.8" rx="1.8" ry="2.6"/>
	<ellipse class="st19" cx="792" cy="641.8" rx="1.8" ry="2.6"/>
	<g>
		<path class="st19" d="M786.5,656.2c-0.3,0-0.5-0.1-0.6-0.4c-0.2-0.3,0-0.7,0.3-0.9c0.4-0.2,10.1-4.7,23.5-4.8
			c0.4,0,0.7,0.3,0.7,0.6c0,0.4-0.3,0.7-0.7,0.7c-13,0.1-22.8,4.6-22.9,4.7C786.7,656.2,786.6,656.2,786.5,656.2z"/>
	</g>
	<g>
		<path class="st19" d="M809.9,658.9L809.9,658.9c-12.8-2.5-23.4,0-23.5,0c-0.4,0.1-0.7-0.1-0.8-0.5c-0.1-0.3,0.1-0.7,0.5-0.8
			s11-2.5,24,0c0.4,0.1,0.6,0.4,0.5,0.8C810.5,658.7,810.2,658.9,809.9,658.9z"/>
	</g>
	<g>
		<path class="st19" d="M768.1,656.2c-0.1,0-0.2,0-0.3-0.1c-0.1,0-9.9-4.5-22.9-4.7c-0.4,0-0.7-0.3-0.7-0.7s0.3-0.6,0.7-0.6
			c13.3,0.1,23.1,4.6,23.5,4.8c0.3,0.2,0.5,0.5,0.3,0.9C768.6,656.1,768.4,656.2,768.1,656.2z"/>
	</g>
	<g>
		<path class="st19" d="M744.8,658.9c-0.3,0-0.6-0.2-0.7-0.5c-0.1-0.4,0.2-0.7,0.5-0.8c13.1-2.5,23.6-0.1,24,0s0.6,0.4,0.5,0.8
			c-0.1,0.3-0.5,0.6-0.8,0.5C768.2,658.9,757.6,656.4,744.8,658.9C744.9,658.9,744.8,658.9,744.8,658.9z"/>
	</g>
	<g>
		<g>
			<path class="st19" d="M798.1,539.3h-6.2v-2c0-3.2-2.8-5.8-6.2-5.8h-17.9c-3.4,0-6.2,2.6-6.2,5.8v2h-6.2v-10.7
				c0-1.6,1.4-2.9,3.1-2.9H795c1.7,0,3.1,1.3,3.1,2.9V539.3z"/>
		</g>
	</g>
</g>
<path class="st24" d="M671,399.7c0.2,2.2,4.2,3.7,9.1,3.3c4.9-0.3,8.7-2.3,8.6-4.5L671,399.7z"/>
<path class="st24" d="M903.7,170.5c0.1,1.5,3,2.6,6.5,2.4c3.5-0.2,6.2-1.6,6.1-3.2L903.7,170.5z"/>
</svg>
