<?xml version="1.0" encoding="UTF-8"?><svg id="Layer_2" xmlns="http://www.w3.org/2000/svg" xmlns:xlink="http://www.w3.org/1999/xlink" viewBox="0 0 1597.97 809.66"><defs><style>.cls-1{fill:#f7f9f9;}.cls-2{fill:#ff8a27;}.cls-3{fill:#ccebf6;}.cls-4{fill:#0a5572;}.cls-5{fill:#098fc1;}.cls-6{fill:#003045;opacity:.08;stroke:#142d37;stroke-width:1.39px;}.cls-6,.cls-7{stroke-miterlimit:10;}.cls-8{fill:#142d37;}.cls-8,.cls-9{opacity:.2;}.cls-9{fill:#022a38;}.cls-7{fill:none;filter:url(#drop-shadow-1);stroke:#fff;stroke-width:55.42px;}</style><filter id="drop-shadow-1" filterUnits="userSpaceOnUse"><feOffset dx="5" dy="7"/><feGaussianBlur result="blur" stdDeviation="5"/><feFlood flood-color="#b7b3b3" flood-opacity=".75"/><feComposite in2="blur" operator="in"/><feComposite in="SourceGraphic"/></filter></defs><g id="Layer_1-2"><g><polyline class="cls-1" points="1597.97 0 1597.97 809.66 0 809.66 0 0"/><g><polygon class="cls-7" points="1054.81 607.1 844.06 667.08 844.06 667.08 624.69 643.57 414.22 707.83 356.44 191.69 565.8 117.56 786.01 150.28 786.01 150.28 1010.76 87.89 1217.67 107.54 1275.45 623.68 1054.81 607.1"/><polygon class="cls-3" points="994.89 87.83 1214.76 107.54 1272.53 623.68 1052.94 606.44 994.89 87.83"/><polygon class="cls-3" points="786.01 150.28 996.76 88.49 1054.81 607.1 843.79 666.42 786.01 150.28"/><polygon class="cls-3" points="565.8 117.56 787.06 149.61 844.83 665.75 624.69 643.57 565.8 117.56"/><polygon class="cls-3" points="356.44 191.69 565.8 117.56 624.69 643.57 414.22 707.83 356.44 191.69"/><g><path class="cls-5" d="m775.1,316.01c-2.71-6.51-2.46-6.68,3.75-11.66,5-4.01,7.41-9.27,9.33-14.77.9-2.57,1.74-4.97,1.02-7.6-.1-.38.11-.99.45-1.27,2.31-1.91,4.6-3.85,7.07-5.6,1.56-1.1,3.61-1.72,5.11-2.86,4.87-3.71,10.42-4.58,16.51-3.46.88.16,1.9.49,2.44,1.04,2.16,2.22,5.16,2.15,8.15,2.44,2.71.26,5.38.84,8,1.46,1.53.36,2.88,1.21,4.4,1.57,3.45.82,5.8,2.49,6.59,5.61,2.34,0,4.24-.04,2.85-2.7-.47-.89-.75-1.89-.86-2.87-.12-.99-.34-2.3.26-2.93.53-.55,2.44-.77,3.23-.4,1.02.49,1.68,1.67,2.22,2.66.31.56.07,1.35.08,2.37.93-.38,1.59-.5,1.95-.83,2.34-2.21,4.58-4.49,6.94-6.69,1.93-1.8,4.14-2.73,7.21-2.28,1.25.18,2.75-.81,4.15-1.22,1.71-.5,3.45-.95,6.25-1.71-1.89-1.18-3.28-1.93-4.47-2.85-.74-.57-1.18-1.42-1.75-2.15.91.14,1.84.23,2.73.42.72.15,1.39.6,2.1.61,4.23.05,8.46.01,12.83,0-.7-1.51-1.57-3.01-2.08-4.61-.54-1.69-.83-3.46-1.06-5.21-.19-1.41-.14-2.85-.21-4.27-.09-1.77-.24-3.61,2.53-4.1,2.65-.47,4.64.24,5.59,2.51.51,1.21,1.07,2.41,1.93,4.31.95-2.54,1.59-4.25,2.3-6.14,2.74.93,3.55-.46,3.65-2.82,3.63.56,7.02,1.09,10.41,1.62.13-.28.25-.55.38-.83-1.16-.65-2.36-1.25-3.47-1.96-1.17-.75-2.48-1.45-3.3-2.43-1.23-1.46-1.04-2.77,1.28-3.71,2.41-.97,4.65-2.27,7.81-3.85-2.28-.96-3.8-1.6-5.43-2.29-.25-4.03,3.33-6.44,6.01-9.26,1.07-1.13,2.05-2.32,3.17-3.41,1.2-1.17,2.1-3.06,4.64-1.74.34.17,1.25.08,1.45-.16.92-1.1,1.45-2.5,2.56-3.41,1.77-1.45.36-2.25-.17-3.49-.7-1.65-.8-3.54-.82-5.33,0-.52,1.11-1.45,1.8-1.53,1.15-.14,3.15-.04,3.42.48.96,1.84,2.42,1.55,4.23,1.43,1.13-.07,2.3.5,3.03.67,2.35-.65,4.63-1.94,6.57-1.68,4.54.61,8.32,2.82,10.92,6.04.6.74-.05,2.27-.26,3.42-.69,3.83-1.43,7.66-2.22,11.81,3.01-.49,4.03-1.95,3.71-3.76-.45-2.5.72-2.62,3.2-2.56,1.87.05,3.78-.9,5.7-1.34,3.04-.7,5.81-3.44,9.29-.84,1.19.89,7.69-.25,8.69-1.42.44-.52.2-1.42.36-2.13.19-.87.62-2.49.7-2.48,3.4.4,6.91-2.06,10.16-.05,1.77,1.09,3.39,2.37,4.91,3.71.39.34.14,1.21.22,2.3,2.48.9,5.5,2,9.24,3.35-.51-2.27-.82-3.65-1.14-5.09,3.5-1.26,6.86-2.41,10.16-3.67,1.2-.46,2.29-1.16,3.42-1.75-.83-.97-1.63-1.96-2.52-2.9-.24-.25-.74-.33-.97-.43,1.12-5.06,6.15-4.3,9.82-5.39,2.11-.63,4.32-1.01,6.41-1.65,1.93-.59,3.59-.74,4.75.95,1.18,1.73,2.87,2.2,5.18,1.7.88-.19,2.03-.21,2.79.12,2.92,1.25,5.1.24,7.24-1.45,4.67-3.71,9.53-3.63,14.11.17,1.98,1.64,3.92,1.72,6.29.23,1.77-1.11,4.04-1.64,5.9-2.68,1.41-.78,2.98-1.77,3.65-2.98,1-1.79,1.88-1.47,3.37-.72,2.17,1.1,4.45,2.05,6.68,3.07.23-.31.47-.61.7-.92-1.36-.88-2.77-1.7-4.04-2.65-.65-.49-1.63-1.46-1.43-1.81.39-.69,1.45-1.19,2.33-1.59.84-.38,1.87-.44,2.73-.81,3.56-1.52,7.21-2.17,11.23-1.97,6.28.31,12.6.2,18.91.29.74,0,1.55-.03,2.2.21,1.87.68,3.3.27,4.58-1.02,2.47-2.48,5.65-1.45,7.96-.52,1.84.74,2.76,2.98,1.46,5.15-.22.36-.02,1.1.3,1.46,1.49,1.67,3.08,3.27,4.61,4.86-1.34,1.81-5.21,3.37-6.81,2.4-2.88-1.75-4.15-.87-4.88,1.9-1.58-.45-2.94-.83-4.3-1.22-.19.16-.38.31-.57.47.6.65,1.09,1.42,1.82,1.94,2.6,1.85,4.16,3.95,3.3,7.08-.2.73.59,1.91,1.35,2.49,2.47,1.91,5.23,3.57,7.66,5.51.8.64,1.25,1.85,1.24,2.81,0,.41-1.65.78-2.47,1.26-.92.55-2.05,1.07-2.57,1.84-2.55,3.84-4.11,7.89-3.22,12.33.14.69.09,1.42.15,2.59-1.39-.36-2.42-.76-3.5-.88-1.1-.12-3-.27-3.24.13-1.48,2.46-4.91,3.12-6.45,5.36-.47.69-.51,1.69-.41,2.51.14,1.16.69,2.27.89,3.42.41,2.3,1.01,4.35,3.94,3.7,1.92,2.3,3.58,4.29,5.36,6.41-2.05,1.76-1.83,3.55.55,5.31,1.5,1.11,1.87,2.34-.16,3.59-.6.37-1.33,1.56-1.11,1.81,2.25,2.58-.45,5.58.86,8.2.28.56.38,1.28.26,1.88-.19.9-.66,1.77-1.01,2.65-.88-.51-1.95-.87-2.6-1.54-3.4-3.45-6.8-6.91-9.98-10.51-2.69-3.04-4.95-6.27-4.2-10.47.15-.85-.95-1.83-1.64-3.05,4.01-6.01-.1-12.57,1.96-19.02-.44-.04-.87-.08-1.31-.12-.49.86-1.07,1.69-1.46,2.58-.88,2.01-2.27,2.1-3.86.78-1.77-1.47-4.05-1.92-5.77-.64-1.2.89-1.4,2.83-1.82,4.34-.21.77.32,1.67.09,2.43-.68,2.25-.16,3.93,2.64,4.67-1.86,2.35-4.85,3.19-7.66,2.67-1.48-.27-3.41-.33-4.67.26-4.05,1.89-7.92,4.07-11.75,6.27-.81.46-1.53,1.44-1.69,2.26-1.12,5.55-2.08,11.12-3.14,16.95,1.03-.15,1.89-.28,2.59-.39.34,1,.64,1.86.93,2.73.94-.33,1.86-.86,2.83-.96,1.91-.2,3.86-.28,5.76-.16.96.06,1.85.65,3.18,1.15.05-1.15.09-1.86.17-3.54,6.28,5.51,9.02,12.37,15.16,16.83-5,6.02,2.58,7.56,4.73,10.94-1.77.49-3.27.91-5.12,1.43-3.3-1.51-3.38-4.88-4.8-7.61-.8-1.53-1.75-2.99-2.63-4.49-.38-1.69-.58-3.46-2.17-4.58-.41.22-.81.43-1.22.65,1.13,1.31,2.25,2.63,3.38,3.94,1.27,6.06,1.1,12.12-.94,18.1-.98,2.86-2.31,5.66-3.76,8.39-.41.77-1.7,1.42-2.74,1.74-4.9,1.5-4.89,1.46-5.19,6.02-.06.9-.07,2-.66,2.64-2.68,2.89.21,4.3,1.78,6.2,1.72,2.08,3.37,4.27,4.55,6.61.64,1.27.25,2.95-2.03,3.46-.31.07-.64.13-.91.28-4.64,2.51-5.14,2.33-5.8-2.27-.14-.98.05-2.03-.25-2.96-.22-.67-1.19-1.78-1.5-1.7-3.77.95-5.15-.48-5.32-3.42-.02-.4-.49-.77-.9-1.36-1.91.66-3.78,1.78-5.63,1.79-1.54.01-3.06-1.27-4.88-2.11-.72,1.04-1.76,2.31-2.49,3.69-.33.63-.4,1.91.02,2.15.82.47,2.07.56,3.14.55,2.15-.03,4.31-.36,6.44-.29.68.02,1.69.84,1.83,1.42.13.54-.63,1.32-1.16,1.88-1.05,1.13-2.37,2.1-3.26,3.29-.99,1.33-.83,2.24,1.21,3.16,1.95.87,3.73,2.5,4.78,4.16,3.21,5.12,7.68,10.07,3.4,16.59-1.71,2.6-2.41,5.64-3.92,8.34-2.53,4.49-8.19,5.43-12.66,7.72-1.71.87-3.26,1.98-4.88,2.97l.88.42c-.07,1.1.15,2.3-.32,3.27-.31.63-1.82,1.41-2.45,1.24-.82-.22-2.01-1.61-1.79-1.96.9-1.45,1.92-2.65-.79-3.3-2.37-.56-4.27-.02-5.33,2-1.8,3.41-1.1,5.33,2.92,7.14,4.83,2.17,7.44,5.51,7.74,10.12.07,1.02-.13,2.36-.86,3.09-2.28,2.27-4.78,4.4-7.42,6.38-.45.34-2.23-.1-2.96-.61-3.41-2.37-6.31-5.4-11.15-5.46-2.52,2.86-1.9,5.08.49,7.97,2.16,2.61,4.36,4.64,7.68,5.98.8.33,1.56,1.01,1.94,1.7,1.01,1.84,1.76,3.78,2.71,5.65,1.01,1.99.14,2.53-2.13,2.12,0,0-.21-.16-.21-.16-.56-.13-1.12-.26-1.68-.39l.03.02c-.25-.16-.5-.33-.74-.49l.04.02-1.39-.42.03.02c-.72-.73-1.49-1.44-2.16-2.21-.61-.69-1.54-1.4-1.6-2.16-.24-2.88-2.04-4.65-4.94-5.8-1.95-.77-2.77-1.84-2.45-3.87.61-3.86-.93-7.31-3.47-10.44-.54-.67-1.21-1.33-1.46-2.08-.82-2.45-2.26-3.1-5.25-2.04-3.37,1.2-4.36.37-5.41-2.56-.62-1.74-1.92-3.36-3.24-4.83-1.52-1.7-3.31-3.23-5.14-4.69-.55-.44-1.64-.61-2.47-.57-5.09.29-8.42,2.97-11.14,6.31-2.76,3.39-6.12,6.62-7.87,10.35-1.66,3.54-1.21,7.7-2.38,11.45-.75,2.41-2.49,4.73-4.31,6.76-1.35,1.5-3.43,1.14-4.56-.48-4.97-7.12-9.93-14.26-14.71-21.48-.83-1.26-.8-2.95-1.15-4.37-.32-.13-.55-.32-.68-.27-4.38,1.65-6.49-.27-9.43-2.88-3.85-3.42-8.69-5.81-15.59-4.14-4.64,1.13-9.98.03-15-.11-.71-.02-1.4-.23-2.13-.36-.16,3.17.95,4.05,4.35,4.49,1.66.21,3.26,1.04,4.7,1.83,1.48.8,1.48,1.93.52,3.29-1.43,2.04-2.16,4.53-3.97,6.23-2.33,2.19-5.42,3.79-8.21,5.63-.42.28-1.2.32-1.4.65-2.09,3.48-5.5,5.33-9.74,6.73-3.85,1.26-7.39,3.28-10.96,5.12-.99.51-1.59,1.58-2.37,2.39,1.09.25,2.3.91,3.25.69,4.15-.95,8.24-2.13,12.33-3.28,3.84-1.08,6.07.31,4.77,3.53-2.4,5.97-4.2,12.1-9.93,16.96-5.37,4.55-9.7,9.97-14.48,15.01-2.91,3.06-3.09,6.36-2.04,10.04,1.4,4.92,4.59,9.4,4.38,14.75-.12,3.01-1.15,5.12-4.16,6.93-3.05,1.84-5.93,4.01-8.32,6.43-.94.95-.99,3.19-.37,4.44,1.96,3.97,1.2,6.36-2.94,8.93-1.19.74-2.3,2.43-2.24,3.62.16,3.01-1.58,5.22-3.45,7.46-2.68,3.2-4.92,6.85-8.3,9.4-2.73,2.05-6.81,2.87-10.39,4.03-2.5.81-5.18,1.21-7.74,1.89-4,1.07-5.42.06-6.64-3.25-1.28-3.46-3.47-6.66-5.3-9.97-1.79-3.23-4.26-6.3-5.27-9.71-1.2-4.07-3.25-7.58-6.11-10.85-3.62-4.14-3.72-9.98-.32-14.54.66-.88,1.58-2.13,1.3-2.93-2.15-6.29-2.69-13.33-10.07-17.36-3-1.64-4-4.08-4.03-6.96-.02-1.77.02-3.55.02-5.32,0-2.16-3.67-4.42-6.21-3.6-2.86.92-4.84.34-6.19-1.82-1.2-1.9-3.3-2.04-5.27-1.52-2.53.66-4.86,1.91-7.36,2.69-2.14.67-4.4,1.09-6.62,1.55-3.31.69-6.64,1.3-9.95,1.97-1.12.23-2.56,1.03-3.28.71-5.37-2.43-11.58-3.67-14.94-8.83-1.59-2.44-4.46-4.69-8.56-4.76-.71-.01-1.89-.71-2-1.23-.5-2.43-1.12-4.92-.93-7.36.32-4.13,1.63-8.24-1.07-12.15-.39-.57.09-1.76.5-2.54,2.51-4.7,5.07-9.38,7.76-14.01.43-.74,1.57-1.23,2.45-1.73,2.98-1.7,4.79-3.85,4.8-7.03.01-3.32,1.67-5.98,5.31-7.65,2.14-.98,2.97-2.79,2.01-4.41-.64-1.09-2.53-2.04-4.04-2.25-3.63-.51-5.72-2.76-4.86-6.33.68-2.81,1.03-5.46-.06-8.29-1.05-2.72.49-4.29,3.93-4.58,3.31-.28,6.64-.44,9.96-.57,3.18-.13,4.99-3.58,3.06-6.29-.74-1.03-1.93-1.98-3.19-2.56-4.67-2.14-4.71-2.07-4.27-6.29-.97-.44-1.99-.91-2.29-1.05.15-2.37.13-4.37.44-6.34.32-1.98-.2-4.22,2.17-5.75.32-.21.07-1.05.08-1.59-.69.25-1.76.35-2,.77-.79,1.38-1.45,2.85-1.85,4.34-.71,2.66-5.92,6.1-8.93,5.44-1.02-.22-2.22-1.37-2.43-2.27-.4-1.73-.77-3.8,0-5.34.98-1.98,2.77-3.95,4.8-5.26,2.34-1.51,2.58-3.06,2.33-5.22-.15-1.29.08-3.01,1-3.92,1.05-1.05,3.76-2.32,4.49-1.91,1.91,1.06,4,2.82,4.44,4.61.82,3.36,3.3,5.41,5.57,7.91,2.19,2.42,6.49,4.09,4.91,8.45.37.04.75.07,1.12.11,1.17-1.06,2.97-1.99,3.38-3.22.92-2.73,2.85-4.16,5.85-5,.91-.25,1.64-.99,2.45-1.51.12-.59.23-1.18.35-1.77-.28-2-.55-3.99-.83-5.99.8-1.15,1.6-2.3,2.4-3.45.38-.09.76-.18,1.15-.27,3.63.85,3.82,3.34,3.67,6.33,1.36-.8,2.36-1.39,3.63-2.13-2.32-2.38-4.4-4.53-6.59-6.78-.25.25-.58.59-.91.93-.84.31-1.67.61-2.51.92-.83.29-1.66.58-2.48.87-1.63-.37-3.27-.75-4.9-1.12-.25-.33-.51-.67-.76-1-.28-1.08-.56-2.16-.84-3.24-.1-.54-.21-1.07-.31-1.61Zm41.99-3.47c2.36-1.09,4.71-1.78,7.54-1.53,2.43.22,1.98-1.27,1.22-2.8-3.04,1.24-5.96,2.44-8.88,3.63-3.5.48-7.8-2.57-8.61-6-.81-3.4-.04-6.44,2.48-9.28,1.53-1.72,1.98-3.57-.85-5.85-1.07,1.94-1.95,3.47-2.76,5.03-.32.62-.3,1.4-.73,1.93-1.28,1.56-2.93,2.92-4.03,4.55-2.13,3.15-1.38,7.07,1.62,9.33,1.78,1.34,1.75,2.6.47,4.29-.96,1.26-2.24,2.94-1.95,4.16,1.17,4.84-2.2,6.99-6.45,8.94-.91.42-1.54,1.3-2.3,1.97.2.3.4.6.59.9,1.55-.17,3.54.12,4.55-.59,3.53-2.49,7.16-4.02,11.84-3.4.62.08,2.26-1.22,2.17-1.69-.93-5.02.22-9.55,4.07-13.6Zm-3.32,55.7c-.35,1.79-.86,3.05-.78,4.28.29,4.72-1.45,6.5-7.05,6.59-1.13.02-2.25-.75-3.38-1.16.72-.89,1.38-1.82,2.18-2.66.82-.85,2.68-1.84,2.5-2.34-.5-1.44-1.59-3.63-2.84-3.81-4.53-.65-7.5-2.76-9.9-5.75-1.64-2.04-3.11-1.61-4.83.09-1.94,1.93-4.11,3.56-7.53,2.74-.47-.11-1.46.72-1.94,1.27-1.69,1.94-3.31,3.94-4.87,5.96-.68.88-1.63,1.85-1.69,2.8-.37,5.57-2.94,8.28-9.48,9.68-.72.16-1.38.56-2.07.85l.1.73c1.06.13,2.25.59,3.16.32,3.13-.91,6.19-2.04,9.24-3.14,2.66-.96,5.2-2.29,7.95-2.94,4.44-1.07,9.02-1.7,13.53-2.55,2.52-.48,4.67.51,4.86,2.67.12,1.43-.34,2.95-.77,4.38-.39,1.31-1.08,2.9,1.39,2.61,7.03-.83,12.61,2.51,18.81,4.03,2.98.73,3.57.7,3.83-2,.32-3.37,2.58-4.83,6.25-3.53,5.11,1.81,10.5,1.23,15.78,1.57,1.34.09,2.74-.42,4.12-.59,2.1-.26,4.21-.4,6.3-.69,1.08-.15,2.79-.3,3.06-.84,1.13-2.25,2.1-4.62,2.59-7.02.56-2.72-1.21-4.65-3.32-4.29-3.19.56-6.38,1.23-9.6,1.54-3.61.35-7.48,1.19-10.29-1.78-.3-.32-.99-.34-1.41-.6-2.5-1.51-3.85-3.53-3.6-6.23.06-.65.02-1.31.03-2.52-1.98,1.3-3.56,2.12-4.73,3.25-.32.31.34,1.72.98,2.26.56.47,1.72.42,2.76.63-1.53,1.77-2.69,3.18-3.94,4.54-.3.32-1.04.73-1.31.63-2.26-.88-4.53-1.78-6.62-2.9-.33-.18.28-1.51.38-2.32.03-.24-.1-.56-.3-.74-2.73-2.51-5.46-5.03-8.26-7.49-.39-.34-1.18-.57-1.75-.51-3.84.38-6.34-1.75-9.17-3.26-.53-.28-1.03-.6-1.54-.91,2.87,4.87,7.82,7.54,13.18,9.15Zm57.32-8.71c-.26-.98-.22-1.38-.4-1.47-4.06-2.07-8.08-4.21-12.27-6.08-.83-.37-2.52.11-3.53.61-2.72,1.35-4.62,1.61-6.41-1.17-1.72-2.67-3.75-2.16-6.24.12-2.53,2.31-1.83,5.11-2.96,7.59-.81,1.76.07,3.26,1.89,3.79,1.22.35,3.17.11,4.27-.53,4.82-2.77,9.65-3.99,15.51-2.69,3.06.68,6.61-.06,10.15-.16Zm-7.84,35.91c-.45.13-.9.26-1.34.39.22.9.31,1.84.69,2.69,1.3,2.89,6.24,3.83,5.68,7.75-.02.17.48.34.65.56,1.47,1.9,2.92,3.8,4.37,5.71,1.03,1.35,1.96,2.76,3.09,4.04,1.17,1.32,2.54,2.52,3.8,3.78,2.41,2.4,5.26,4.13,9.17,4.6-1.02-4.04-2.84-7.19-6.27-9.83-3.79-2.92-7.04-6.28-9.85-10.04-2.67-3.57-6.6-6.46-9.98-9.64Zm28.66-51.18c-5.4.16-7.81,2.93-5.5,6.19,1.41,1.98,2.89,4,4.77,5.65,2.06,1.8,3.13,3.74,3.15,6.25.02,3.09,1.81,5.04,5.38,5.41,1.48.15,3.52-.24,4.52-1.07.58-.48.05-2.6-.74-3.49-3.68-4.12-7.75-8-11.4-12.14-.93-1.05-1-2.76-1.11-4.19-.06-.82.58-1.69.92-2.6Zm27.29,48.12c-1.88-.17-2.97-.47-3.99-.33-4.36.62-7.67-.93-10.73-3.21-1.35-1-2.75-2.01-4.31-2.73-.75-.35-1.94-.03-2.93-.02.08.75-.14,1.69.31,2.21,1.65,1.91,3.44,3.75,5.35,5.47.94.85,2.26,1.41,4.05,2.5.57,2.35,5.68,4.32,7.96,2.15,1.72-1.63,2.73-3.79,4.29-6.05Zm-66.37-43.32l.42.72c3.27.38,5.02-.6,5.4-3.38-2.1.96-3.96,1.82-5.82,2.67Z"/><path class="cls-5" d="m650.73,623.62c-3.13,1.32-5.65,3.86-9.92,2.71-2.93-.79-3.41-1.39-1.39-3.67-3.32-1.32-9.64.46-8.67-5.75-3.81.89-3.59-2.39-5.02-4.01-2.06-2.34-4.13-4.73-4.05-8,.02-.63-1.48-1.37-2.41-1.88-1.63-.89-2.52-2.27-.88-3.29,2.8-1.72,2.12-3.86,2.01-6-.08-1.54-.36-3.06-.86-4.59-.16.95-.33,1.9-.49,2.84-.29.05-.57.09-.86.14-.41-.75-1.18-1.49-1.18-2.24.02-4.32-.65-8.43-2.21-12.6-.93-2.48.82-5.68,1.06-8.56.17-2.04-.11-4.11-.32-6.16-.4-4.05-.81-8.11-1.37-12.14-.92-6.56-1.36-13.26-3.28-19.59-.69-2.26-4.79-4.34-7.88-5.27-5.59-1.69-9.13-4.75-12.35-8.76-3.35-4.18-6.24-8.77-11.44-11.79-1.15-.67-1.29-2.86-1.42-4.38-.17-1.85.47-3.77.21-5.6-.4-2.8.41-5.09,2.43-7.4,2.5-2.86,5.87-5.67,4.06-9.76-.77-1.74-1.49-3.6-2.79-5.04-1.18-1.32-3.03-2.16-4.6.17-.38.57-1.59,1.19-2.27,1.09-2.13-.3-4.83-.4-6.14-1.54-2.24-1.95-5.56-2.33-7.63-4.8-1.64-1.96-5.46-3.01-8.56-3.58-4.23-.77-8.35-1.38-11.73-3.87-.76-.56-2.17-.81-3.24-.72-9.51.8-17.91-1.97-26.07-5.35-1.19-.49-2.62-2.14-2.45-3.1.95-5.33-3.51-7.76-7.13-10.72-1.07-.88-1.93-1.94-2.9-2.91-1.01-1.01-1.85-2.2-3.07-2.97-2.78-1.75-4.72-3.86-5.05-6.89-.05-.44-.11-1.04-.45-1.26-.8-.53-1.78-.89-2.68-1.32-.2.81-.78,1.73-.51,2.39.5,1.26,1.48,2.38,2.28,3.55,1.91,2.79,3.78,5.59,5.75,8.34.92,1.29,2.06,2.46,3.08,3.7.43.52.79,1.08.85,1.87-2.88-.34-4.76-1.78-5.99-3.74-1.41-2.24-2.57-4.56-5.71-5.51-.41-.13-.93-1.07-.78-1.25,1.94-2.23-.57-3.15-1.56-4.6-1.98-2.87-3.62-5.91-5.62-8.77-.7-.99-1.91-2.05-3.16-2.38-4.53-1.17-6.09-4.12-7.17-7.6-.58-1.88-1.83-3.59-2.44-5.46-.88-2.72-2.27-5.57-1.98-8.29.52-4.96,2.14-9.86,3.23-14.79.28-1.24.35-2.52.43-3.79.27-4.12-1.45-7.55-4.71-10.53-1.61-1.47-2.08-3.04-.66-5.18.8-1.21.41-3.16.03-4.68-.72-2.89-1.8-5.72-2.77-8.56-.17-.51-.42-1.22-.88-1.39-3.31-1.2-3.72-4.12-5.31-6.32-.17-.23-.57-.46-.53-.65.94-5.04-5.2-6.89-6.77-10.93-.7-1.8-3.98-2.95-6.27-4.14-2.04-1.06-4.49-1.59-6.49-2.69-1.76-.97-3.11-1.03-5.01-.19-3.07,1.36-6.34,2.39-10.02,3.74.01-1.42.02-2.09.02-2.93l-2.92.32c-1.74,2.53-3.18,4.61-4.51,6.54.93.45,1.86.89,2.78,1.34-.68.65-1.3,1.36-2.06,1.92-1.97,1.45-4.03,3.23-5.26-.51-.06-.18-1.94-.3-2.33.06-5.35,4.81,6.71-2.82,0,0-1.59.67,1.56-.73,0,0,23.91-11.98.25.22,0,0,.63-.55-3.82-2.13-3.07-2.47,6.44-2.97-6.77,6.33-1.66,1.7.59-.54,1.17-1.09,1.66-1.7,2.07-2.55,1.52-3.75-1.95-4.34-1.36-.23-2.73-.45-4.08-.7-.19-.03-.34-.2-.69-.42.11-.71.18-1.51.38-2.28.18-.7.51-1.38.83-2.24-.68-.32-1.26-.72-1.92-.88-2.64-.62-3.61-2.03-3.06-4.3.15-.62.34-1.32.15-1.88-1.14-3.41.96-5.54,3.99-7.39.58-.35,1.21-.89,1.37-1.43.61-2.07,2.24-2.22,4.4-2.34,5.41-.31,8.86-1.39,9.25-6.64-2.94.11-5.89.26-8.83.32-2.82.05-3.86-1.08-3.38-3.37.3-1.46.4-2.95.65-4.83,2.57-1.11,5.61-2.51,8.75-3.7.54-.2,1.91.26,2.23.75,1.92,2.88,2.6,3.05,5.7,1.08-1.21-4.13-2.48-8.2-3.56-12.31-.54-2.04,1.39-3.57,3.82-3.87,2.22-.28,4.97-.59,6.43-1.8,5.89-4.86,13.31-6.71,20.73-8.67.74-.19,1.98.1,2.55.56,2.06,1.64,3.94,3.44,5.88,5.18.22.19.37.48.63.6,2.42,1.15,4.77,2.42,7.3,3.38,4.44,1.7,9.11,3.03,13.43,4.91,1.69.74,2.72,2.54,4.17,3.97,1.32-.46,2.68-1,4.11-1.39.79-.21,2.1-.49,2.43-.17,2.03,1.92,3.92.54,5.76-.17,2.05-.8,3.83-1.21,6.11-.33,1.25.49,3.18-.24,5.05-.44.07,1.42.13,2.7.22,4.5,1.44-.7,2.4-1.16,2.57-1.24,2.1.26,3.48.39,4.83.62.94.16,2.29.19,2.7.71,2.33,2.99,5.77,4.39,9.71,5.2,1.8.37,2.87,1.18,2.39,2.91-.6,2.14.95,2.12,2.78,2.14,2.29.02,4.57.29,6.86.45.14.33.29.66.43.99.47-.8.94-1.59,1.41-2.39-.99-.14-1.98-.33-2.99-.39-1.38-.09-2.78-.07-4.17-.12-2-.08-3.03-.69-2.9-2.69.06-.92-1.05-2.23-2.08-2.77-4.29-2.25-4.42-3.81-.05-6.35-.82-.59-1.75-1.08-2.36-1.77-.43-.48-.83-1.41-.56-1.85,2.21-3.54,2.25-3.52,2.35-7.24-1.17.77-2.08,1.22-2.76,1.85-1.85,1.73-4.04,2.68-6.57,1.62-1.91-.8-2-3.8-.36-5.94,2.53-3.29,5.11-6.56,7.77-9.78,1.37-1.67,5.46-1.88,8.03-.59,1.08.54,2.16,1.27,3.36,1.45,2.24.33,3.04,1.5,3.22,3.17.28,2.55.38,5.14,4.07,6.04.42.1.46,1.04.92,1.32.69.44,1.55.8,2.4.92,1.2.18,2.46.11,3.36.14,2.18-1.71,4.49-3.5,6.78-5.32,1.98-1.57,3.55-.12,5.25.38-.45.98-.61,2.22-1.42,2.89-3.71,3.08-4.07,7.24-5.04,11.06-.32,1.26,1.86,2.89,2.77,4.41,1.74,2.92,1.44,3.48-2.52,4.63,1.21,4.65-3.51,3.59-6.66,4.4,1.63,1.42,2.78,3.13,4.5,3.7,1.46.49,3.89.08,5.27-.71.83-.48.48-2.46.66-3.76-.36-.13-.72-.25-1.08-.38,2.63-1.64,5.26-3.3,7.9-4.93,2.03-1.25,2.28-4.88,1.02-6.53-1.94-2.53-3.61-5.25-4.94-8.05-.49-1.02.1-2.74,2.47-2.09,2.07.57,2.72.21,2.33-1.77-.37-1.87.28-3.57,3.15-3.73.43-.02.86-.08,1.28-.15,4.71-.79,4.87-.6,3.35,3.45-.23.62-.09,1.34-.16,2.76,1.27-.83,1.96-1.16,2.45-1.64.48-.48.72-1.13,1.12-1.67,1.67-2.24,4.13-3,6.98-2.34,1.19.27,2.14,1.2,3.21,1.82-1.67,1.85-2.91,4.36-5.1,5.4-4.84,2.29-5.71,3.22-4.91,7.69.44,2.45.33,4.98.4,7.47.06,2.04-.04,4.08,3.02,4.73,2.19.47,1.77,1.97,1.48,3.32-.18.82-.48,1.63-.73,2.44.33.15.65.31.98.46,1.83-2.05,3.96-3.97,5.41-6.2,1.16-1.78.27-3.36-2.12-4.29-1.37-.54-3.33-1.47-3.49-2.43-.38-2.27-.64-5,.52-6.93,2.11-3.52,5.1-6.74,8.15-9.78.94-.94,3.92-1.71,4.8-1.19,4.05,2.44,8.64.98,12.9,1.55,3.78.5,4.5,1,5.14,4.33.63,3.27,1.97,6.07,5.73,7.95,2.55,1.28,4.55,3.45,6.46,5.46,2.01,2.12,1.79,4.64-.01,6.85-1.54,1.89-.8,2.8,1.07,3.97,3.13,1.97,6,4.21,9.56,6.75-1.84,1.81-3.65,4.04-6.01,5.69-1.03.72-3.21.25-5.08.33.3.54.93,1.43,1.31,2.39.56,1.43,1.33,2.9,1.34,4.37,0,2.66-2.4,4-5.33,3.27-1.27,3.23-1.26,3.17-5.01,1.78-3.3-1.22-6.13-2.69-7.69-5.68-1.12-2.15-3.4-3.05-6.4-2.52-1.92.34-4.64,1.11-5.05-1.32-.46-2.73,2.4-2.82,4.69-2.88,2.71-.08,4.34-.88,4.96-3.4.32-1.29,2.07-2.31,2.91-3.58.58-.87.72-1.95,1.05-2.93-1.12-.04-2.28-.25-3.34-.07-1.23.22-2.38.8-3.73,1.28-1.81-1.41-2.72-2.79-.24-4.6,3.3-2.42.53-4.38-.65-6.6-2.74,1.2-5.51,2.11-5.59,5.3-.02.9-.96,1.81-1.5,2.7-.29.48-1.06,1.11-.91,1.39,1.96,3.59-1.79,4.95-3.84,6.97-.99.97-1.94,1.97-2.86,2.9,1.36,1.76,2.76,3.33,3.81,5.05.46.75.66,2.19.14,2.65-.61.55-2.43.81-3.18.44-2.83-1.43-5.3-1.49-7.88.51-.4.31-1.81.2-2.23-.16-.64-.55-1.16-1.48-1.11-2.24.07-1.07.7-2.13.78-3.34-2.38,3.86-6.85,4.69-10.47,6.38-1.04,1.11-1.88,2.45-3.17,3.3-4.05,2.68-6.72,6.2-8.77,10.02-1.55,2.89,1.41,8.26,4.66,9.68,3.1,1.35,5.97,3.05,9.06,4.42,2.12.94,4.36,1.96,6.69,2.25,3.05.37,4.05,1.47,3.67,3.96-.46,3,.59,6.43,2.61,9.19,2.73-.68,2.08-2.62,2.19-4.19.13-1.89-.3-3.87.25-5.66.38-1.21,1.79-2.57,3.15-3.17,4.02-1.78,5.87-4.92,3.77-8.32-1.66-2.68-2.13-4.73.38-7.37,1.11-1.16.83-3.3,1.09-5,.2-1.35-.1-2.84.5-4.03.47-.94,1.9-2.04,3.03-2.17,2.08-.25,4.51-.29,6.32.42,2.09.82,3.51,2.72,5.48,3.84,2.2,1.25,3.84,2.46,2.84,5.01-.25.65-.21,1.57.17,2.14.79,1.17,1.65,2.62,2.95,3.12.81.31,2.85-.65,3.67-1.5,1.61-1.66,2.75-3.63,4.46-6,.7,1.27,1.27,2.14,1.67,3.06,1.07,2.53,2.06,5.09,3.07,7.65.27.67.83,1.43.65,2.03-.88,2.94,1.06,4.23,3.66,5.55,2.61,1.32,5.17,2.89,7.16,4.8,1.13,1.09,1.37,3.04,1.49,4.64.11,1.41-.44,2.88-.81,4.3-.5,1.89.57,2.93,2.44,3.58,2.84.99,5.07,4.7,4.08,7.05-.19.45-1.05.97-1.64,1.02-2.6.22-5.25,1.18-7.74-.51-.77-.53-2.31-.19-3.4-.49-1.19-.32-3.29-1.01-3.23-1.37.22-1.34.8-2.94,1.92-3.83,1.5-1.19,2.35-2.2,1.92-3.65-2.83.73-5.44,1.37-8.03,2.08-.65.18-1.67.5-1.77.89-.73,2.73-2.38,1.53-4.05.93-1.36-.49-2.82-.78-4.45-.62,1.08.66,2.66,1.13,3.09,2.02.45.93-.55,2.32-.29,3.39.31,1.29.95,2.77,2.06,3.6,1.33.99,3.19,1.33,4.9-.18.48-.42,1.75-.18,2.66-.25-.18.73-.07,1.77-.6,2.13-1.91,1.28-4.1,2.27-6.07,3.49-1.37.85-2.46,2.06-3.88,2.85-1.03.57-2.59,1.23-3.55.96-3.24-.89-8.65,1.16-9.33,4.02-.67,2.79-2.15,4.67-5.21,6.2-2.29,1.14-3.86,3.4-5.6,5.25-1.54,1.64-2.92,3.39-4.29,5.13-.39.49-.8,1.15-.71,1.67.4,2.53-1.13,4.11-3.38,5.51-3.12,1.95-6.28,3.89-9.15,6.09-2.33,1.79-3.71,4.01-2.36,6.85.95,2,1.38,4.19,2.39,6.16,1.07,2.07.26,3.63-1.35,5.46-2.96-1.68-4.83-3.87-5.42-6.72-.5-2.43-2-3.66-4.89-3.76-2.55-.08-5.1-.35-7.65-.24-1.19.05-2.76.52-3.45,1.27-2.08,2.25-4.56,2.35-7.51,1.99-5.16-.64-8.65,2.17-12.13,4.82-.36.27-.54.82-.59,1.26-.57,4.72-1.05,9.48.23,14.12,1.7,6.15,9.65,7.99,15.41,3.67.45-.34.84-.89.96-1.38.95-4.07,5.04-4.3,8.52-4.71,2.15-.26,1.61,1.32,1.11,2.69-1.29,3.55-2.28,7.16-3.44,10.89,3.96-.22,7.12-.54,10.27-.51,2.82.02,4.24,1.21,3.73,3.88-.36,1.87-.57,3.91-.02,5.67.49,1.58,1.78,3.34,3.36,4.14.95.48,3.33-.47,4.7-1.25,2.13-1.21,4.15-1.44,6.38-.68,1.94.67,3.14.3,4.13-1.42,2.03-3.56,6.85-4.25,10.04-6.66.37-.28,1.32-.29,1.85-.11,3.93,1.3,12.38,2.21,16.32,1.92,2.5-.19,5.03.06,7.55-.05.85-.04,1.69-.55,2.55-.86,2.27,4.6,8.23,5.55,12.04,8.65.19.16.65.23.91.15,6.62-1.97,11.23,1.42,15.79,4.29,2.19,1.38,3.68,3.66,5.12,5.73,1.29,1.86,2.84,2.64,5.44,2.52,1.62-.08,3.26.52,4.9.78,3.19.51,6.38.99,9.58,1.48,3.21.49,6.49.78,9.61,1.53,2.63.63,5.06,1.81,7.59,2.72,2.58.93,4.47,5.94,3.05,8.47-2.13,3.82-4.43,7.58-6.52,11.42-.41.76-.5,1.84-.23,2.63,2.07,6.02-.06,11.65-2.7,17.19-.55,1.15-1.88,2.22-3.15,2.93-2.85,1.57-5.76,3.21-8.9,4.23-3.32,1.07-5.4,3.16-5.66,6.2-.43,4.98-2.82,9.43-6.3,13.49-.5.58-1.16,1.15-1.37,1.81-1.75,5.3-3.44,6.66-9.59,7.51-.31.04-.6.19-1.36.44.48.81.9,1.56,1.36,2.29,2.1,3.31.76,6.5-3.4,8.02-.69.25-1.41.59-2.14.63-3.39.21-5.09,1.27-4.32,4.51.43,1.79-1.37,2.4-3.36,2.53-.85.06-1.66.61-2.5.94.76.66,1.47,1.38,2.31,1.96.43.3,1.1.35,1.62.5-.75,1.1-1.85,2.02-1.98,3.02-.34,2.65-.93,5.07-3.01,7.29-1.34,1.42-.42,2.64,1.59,3.35,3.47,1.23,3.79,2.11,2.21,5.01-.77,1.42-1.64,2.8-2.31,4.25-1,2.16-1.39,4.25,1.18,5.9.52.34.59,1.14,1.07,1.56,2.03,1.73,4.07,3.46,6.26,5.05.8.58,2.02.75,3.05,1.11-.03.28-.06.56-.1.84Zm-144.37-323.61q-3.17-3.94-6.68-2.61c-.2,1.87-.37,3.45-.57,5.35,2.43-.92,4.7-1.77,7.25-2.73Zm55.51,68.97c-1.6.8-3.06,1.52-4.84,2.4,5.38,2.06,5.69,2.02,7.2-.54-.68-.54-1.37-1.08-2.36-1.86Z"/><path class="cls-5" d="m654.2,282.11c.23-1.54.01-2.95-2.5-2.63-2.29.29-2.61-.81-2.52-2.2.08-1.35.58-2.7.58-4.04.02-6.28-1.41-12.25-5.31-17.61-.33-.45-1.15-.88-1.76-.89-2.46-.04-4.94-.06-7.38.19-2.58.26-5.07.4-6.59-1.66-1.98-2.68-1.71-5.82.15-7.74-1.12-2.02-2.17-3.92-3.22-5.82-2.81,1.74-5.79,3.43-8.54,5.35-.85.6-1.44,1.82-1.52,2.78-.29,3.43-3.43,5.99-8.07,5.81,2.55,3.33.91,5.75-2.33,7.71-.66.4-1.55.92-2.24.84-5.37-.59-10.78-1.08-16.05-2.06-3.86-.72-4.43-2.77-2.19-5.74,1.94-2.58,1.68-3.95-1.09-5.78-.58-.39-1.49-.74-1.62-1.23-.27-1.07-.13-2.22-.16-3.34,1.23.15,2.84-.06,3.62.52,3.54,2.63,7.01,2.64,11.19.76,3.21-1.45,2.54-4.22,4.04-6.19-.74-.36-1.51-1.08-2.21-1.02-2.08.16-4.19.18-4.92-1.64-.84-2.09-1.56-4.45,1.39-6.16-3.38-3.57-.51-6.68,1.35-9.61,1.45-2.29,3.66-4.3,5.82-6.2,1.59-1.39,2.87-.23,3.3,1.04.36,1.07-.21,2.38.09,3.48.21.77,1.21,1.37,1.85,2.05.26-.71.78-1.44.73-2.13-.14-2.04-.91-4.1-.59-6.07.16-.95,2.09-2.21,3.43-2.48,3.33-.66,6.55-1.46,9.79-2.36,2.75-.76,4.91-1.43,6.78-3.26.56-.55,1.72-.71,2.64-.93,9.07-2.13,17.45-.52,25.27,3.22,1.37.66,2.24,2.29,2.95,3.63,1.4,2.66,3.11,3.49,6.25,2.64,4.94-1.34,6.14-.74,6.89,3.42.09.51.32,1,.49,1.5.33.07.66.14.99.21.37-.89.72-1.79,1.11-2.68.38-.87.79-1.74,1.18-2.6.85.58,1.81,1.07,2.52,1.75.8.76,1.37,1.7,2.49,2.55.1-2.72-.51-5.55,3.58-6.57-.39-.98-.68-1.72-1.21-3.03,2.26-.58,4.33-1.11,6.4-1.65,1.57-.42,3.5-.51,4.62-1.37,3.51-2.69,7.34-1.84,11.31-1.7,4.1.14,6.09,2.71,8.84,4.46,1.47.93,2.96,1.83,4.43,2.76.72.45,1.39.95,2.09,1.43-.67.65-1.3,1.33-2.03,1.93-.29.24-.77.39-1.18.44-3.15.41-5.22,1.78-5.73,5.13,1.39-.6,2.6-1.08,3.78-1.64.77-.36,1.48-.82,2.21-1.24.4.68.87,1.34,1.19,2.04.25.57.33,1.2.6,2.27,1.92-.91,3.5-1.89,5.26-2.41,1.73-.52,3.76-1,5.46-.72,2.93.47,3.33,2.46,1.54,4.55-2.74,3.21-5.9,6.3-7.8,9.85-1.92,3.59-2.76,7.64-3.55,11.56-.23,1.13,1.17,2.58,2.12,3.71,1.12,1.33.96,2.09-.92,2.62-3.47.98-3.65,1.39-1.8,4.01.16.23.28.52.52.67,2.57,1.64,4.83,3.24,2.25,6.39-1.67,2.04-2.69,4.44-4.37,6.47-1.09,1.33-2.72,5.74-2.07,7.33,2.29,5.59.29,9.8-5.21,13.62-3.68,2.56-7.66,4.17-11.89,5.78-2.49.95-4.57,2.99-6.43,4.83-1.89,1.88-3.57,3.72-6.79,3.74-.49,0-1.19.16-1.46.46-3.4,3.84-6.97,7.6-10,11.63-1.4,1.87-1.58,4.34-2.6,6.45-.79,1.63-1.69,3.4-3.13,4.58-1.79,1.47-3.87,1.27-5.43-.66-.44-.54-1.43-.89-2.24-1.05-2.89-.56-5.58-1.4-6.7-3.94-2.76-6.25-7.15-11.98-7.75-18.94-.22-2.6.2-4.9,2.1-6.96,1.46-1.58,2.15-2.74-.33-4.23-2.17-1.3-1.85-3.79.32-5.35,1.62-1.17,3.46-2.12,5.2-3.17.24.18.47.35.71.53Zm-27.49-43.85c4.55-1.61,9.14-3.16,13.65-4.85,1.18-.44,2.14-1.33,2.94-1.85-1.5-1.69-2.55-2.89-3.44-3.89-2.25,1.23-4.52,2.91-7.14,3.8-3.83,1.31-5.46,3.62-6.04,6.78-.08.04-.19.07-.25.13-.04.04,0,.12-.01.19.1-.1.19-.2.29-.3Zm-20.71,14.48c-2.2-2.47-9.96-2.81-13.19.21,4.87-.08,9.05-.15,13.19-.21Z"/><path class="cls-5" d="m1156.26,453.61c.66,1.01,1.45,1.97,1.97,3.03.88,1.79,2.1,3.17,3.75,4.63,2.07,1.83,2.76,4.95,3.47,7.64.49,1.87,1.51,2.93,3.26,3.99,2.01,1.22,3.39,3.14,5.36,4.42,3.21,2.08,4.85,5.09,7.04,7.78,2.97,3.65,2.88,7.89,2.24,11.97-.94,6.02-3.78,11.5-7.96,16.64-2.06,2.53-2.83,5.87-3.84,8.92-.65,1.96-1.13,3.43-3.99,4.03-2.05.43-3.75,2.1-5.72,3.02-.72.34-2.43.38-2.6.09-1.03-1.77-2.28-1.06-3.71-.47-4.03,1.66-9.71-1.18-10.46-4.92-.33-1.66-1.38-3.28-2.47-4.71-.51-.66-1.9-.83-3.06-1.29.15-.9.35-2.15.56-3.4-.24-.09-.48-.18-.71-.27-1.15.99-2.31,1.98-3.7,3.18-.48-.81-.94-1.39-1.19-2.03-2.17-5.42-7.26-7.42-13.79-5.94-5.37,1.21-10.41,2.51-14.69,5.91-1.7,1.35-4.81,1.36-7.2,2.14-2.26.74-4.55,1.52-6.59,2.6-3.15,1.67-5.79,1.87-7.88-.02-.6-.54-1.16-1.87-.8-2.31,3.5-4.29.92-8.49-.39-12.33-1.44-4.21-2.81-8.41-3.51-12.73-.56-3.47.19-5.63,3.95-6.95,5.29-1.86,10.57-3.82,15.51-6.24,1.84-.9,2.7-3.27,4.05-4.94.92-1.14,1.9-2.25,2.89-3.35.75-.83,1.82-1.54,2.28-2.46,1.85-3.73,5.07-5.37,9.8-4.45,2.32.45,3.58.16,4.32-1.94,1.51-4.32,7.52-7.13,12.33-5.65,1.44.44,3.17.21,4.76.36.57.05,1.49.23,1.57.51.16.52-.04,1.22-.34,1.73-.36.62-1.19,1.07-1.47,1.7-1.38,3.1-.27,4.42,4.68,5.94,1.38.42,2.77.91,3.98,1.59,2.54,1.42,4.24,1.09,4.92-1.48.67-2.56.71-5.22,1.12-7.83.32-2.02.78-4.02,1.18-6.03.36-.02.72-.05,1.09-.07Z"/><path class="cls-5" d="m1175.26,449.01c-2.9.72-5.5,1.16-7.72-.93-.63-.6-1.41-1.09-2.18-1.57-3.31-2.05-5.26-1.55-7.1,1.67-1.26,2.21-3.64,1.63-5.61,1.29-2.97-.51-5.86-1.35-9.17-2.14.13.33-.04.12.01,0,2.09-4.46,1.86-4.88-3.57-5.75-3.04-.49-6.12-.83-9.18-1.24-.42-.06-1.12,0-1.22-.18-1.41-2.53-2.8-5.08-3.95-7.7-.07-.16,2.05-1.51,2.98-1.41,1.35.15,2.69.99,3.75,1.8.48.37.04,1.5.43,2.08.52.77,1.31,1.59,2.23,1.92.56.2,1.7-.36,2.37-.8,1.02-.67,1.95-1.47,2.74-2.33,1.14-1.24,2.23-1.3,3.91-.74,2.05.67,4.35.79,6.51,1.27,3.9.88,7.85,1.68,11.62,2.85,2.05.63,3.79,1.95,5.66,2.99.25.14.57.43.54.62-.66,4.26,3.64,5.39,6.43,7.47.2.15.27.44.51.86Z"/><path class="cls-5" d="m787.66,234.51c-.19,1.83-.2,3.69-.63,5.48-.41,1.71-1.25,3.35-2.36,5.16-1.95-2.86-7.41-2.5-7.66-6.76-.03-.54-1.73-1.21-2.77-1.39-2.32-.41-3.67-1.05-3.12-3.45.26-1.13-.49-2.44-.91-3.64-.89-2.52-.01-4.03,2.95-4.27,3.58-.28,6.24-1.46,8.18-4.16.55-.77,2.25-1.21,3.49-1.35,1.82-.21,3.7-.03,5.55.03,1.79.06,3.67-.04,5.36.35,2.1.49,1.91,4.84-.44,6.3-1.3.81-3.11,1.03-4.68,1.55-.71.23-1.38.54-2.07.81.43.54.74,1.2,1.31,1.59,1.77,1.22,3.92,2.14,5.37,3.57.83.82.99,2.52.62,3.64-.18.53-2.28.74-3.54.92-1.98.28-2.16-.92-2.39-2.17-.15-.81-.7-1.56-1.07-2.33-.4.04-.79.09-1.19.13Z"/><path class="cls-5" d="m537.93,246.33c-.87.25-1.74.49-2.61.74.37-.45.73-.89,1.1-1.34-2.49-1.02-4.97-2.05-8.35-3.44,2.25-1.31,3.84-2.26,5.45-3.17,2.4-1.36,4.69-2.94,7.27-3.99,2.27-.92,4.86-1.23,7.31-1.81.32.3.63.59.95.89-.5,1.47-.73,3.06-1.58,4.37-1.06,1.63-1.31,2.89-.07,4.51,1.34,1.75,2.22,3.75,3.76,6.45.89-1.69,1.47-2.66,1.93-3.67.47-1.01.65-2.15,1.31-3.06.36-.5,1.42-.86,2.16-.87.37,0,1.03.91,1.04,1.43.06,2.11.61,3.75,3.54,4.07.36.04.9,1.04.78,1.49-.32,1.23-1.58,2.41.07,3.56-.47.38-.97,1.1-1.4,1.08-5.2-.23-10.22.25-15.08,2.14-2.27.88-4.13-.19-5.11-2.1-.48-.94-1.72-1.67-2.8-2.27-3.26-1.82-3.29-1.78-.02-3.95.25-.17.53-.32.79-.48-.15-.19-.29-.39-.44-.58Z"/><path class="cls-5" d="m1090.42,431.38c-1.62,4.19-2.9,7.9-4.56,11.5-.42.9-2.12,1.99-3.18,1.97-3.14-.07-6.24-.64-9.36-1.02-.21-.03-.43,0-.64-.02-2.46-.39-6.97-6.87-6.12-8.85.17-.41.53-.97.93-1.07,7.66-1.85,10.5-8.2,15.82-12.23,1.39-1.06,2.18-2.31,4.12-.83,1.52,1.16,3.83,1.79,1.54,4.19-2.05,2.14-1.31,4,1.47,6.35Z"/><path class="cls-5" d="m1104.85,355.98c-5.8-4.82-4.16-12.74,2.27-15.26,1.63-.64,3.16-2.2,3.87-3.63.77-1.56,1.5-2.54,3.54-2.64,2.74-.13,2.62-1.85,2.34-3.35-.35-1.86-1.39-3.64-1.49-5.49-.07-1.32.48-3.29,1.57-3.91,1.73-.98,3.46.16,4.34,1.69,1.47,2.54,3.61,4.91,1.99,8.14-.37.74.48,1.86.68,2.82.37,1.75,1.58,3.91.79,5.18-1.16,1.85-3.63,3.26-5.81,4.52-2.56,1.47-4.81,3.28-8.28,3.76-1.57.21-2.76,3.09-4,4.82-.71.99-1.15,2.11-1.8,3.34Z"/><path class="cls-5" d="m913.84,481.6c6.32,3.6.09,8.92,2.21,12.27-.89,1.86-1.72,3.23-2.2,4.68-1.13,3.43-2.05,6.9-3.12,10.34-.8,2.57-3.62,2.7-5.88,3.07-1.89.31-3.25-.67-3.97-2.44-1.1-2.7-1.13-5.16.23-7.91.75-1.52.81-3.54.35-5.14-.92-3.22-.1-4.55,3.47-6.28,2.25-1.09,4.08-2.91,5.86-4.58,1.2-1.12,1.97-2.56,3.05-4.01Z"/><path class="cls-5" d="m868.78,261.77c-3.53-1.42-7.1-2.74-10.47-4.34-.57-.27-.82-2.11-.33-2.65,2.25-2.47.83-5.12.75-7.55-.18-5.69.32-11.11,4.37-15.97.55-.66,1.3-1.35,2.13-1.66,3.01-1.11,5.33-2.59,6.48-5.41.26-.64,2.98-1.31,3.88-.91,1.58.71,3.33,2.38,1.11,3.94-4.78,3.35-7.95,7.73-9.87,12.4-1.91,4.65-3.1,9.78-.35,14.56.63,1.1,2.4,1.68,3.48,2.63.87.77,2.04,1.74,2.04,2.63,0,.63-1.74,1.3-3.25,2.32Z"/><path class="cls-5" d="m1050.94,435.34s.21.16.21.16c1.41,1.74,2.64,3.62,4.3,5.16.9.83,2.54,1.08,3.85,1.6.37.85.74,1.7,1.1,2.55-.16.72-.31,1.45-.47,2.17.04.72.09,1.44.13,2.15.04.58.07,1.17.11,1.75-.22.14-.45.28-.68.42-6.47.14-11.09-2.49-14.62-6.76-2.21-2.67-4.21-5.51-6.75-7.94-2.04-1.95-4.78-3.36-7.1-5.12-.68-.52-.96-1.4-1.42-2.12.2-.33.4-.66.6-.99,2.24.41,4.57.61,6.69,1.27,2.69.83,5.75,1.28,7.13,3.99.24.48,2.1.33,3.21.48,0,0-.03-.02-.03-.02.46.14.93.28,1.39.42l-.04-.02c.25.16.5.33.74.49,0,0-.03-.02-.03-.02.56.13,1.12.26,1.68.39Z"/><path class="cls-5" d="m1212.43,557.99c-2.37-.6-4.17-.78-5.53-1.52-.61-.33-.85-2.11-.35-2.7,1.85-2.21,3.79-4.5,6.23-6.2,4.29-2.99,7.77-6.5,10.59-10.44,1.43-2,2.73-1.93,4.7-1.03,2.36,1.07,1.71,2.83.56,3.89-3,2.78-4.21,6.69-8.37,8.81-1.51.77-1.93,2.99-3.12,4.38-1.45,1.72-3.19,3.27-4.71,4.8Z"/><path class="cls-5" d="m914.49,196.58c-4.61-.36-9.23-.69-13.84-1.12-.66-.06-1.65-.51-1.81-.97-1.11-3.22-3.97-6.02-2.85-9.79.54-1.81,1.64-2.41,3.44-1.53,1.71.84,3.46,1.8,4.75,3.03,1.48,1.41,3.09,2.23,5.26,1.85,2.3-.41,3.67.39,4.73,1.95.69,1.01,1.5,1.96,2.24,2.94,1.68,2.23,1.22,3.04-1.92,3.63Z"/><path class="cls-5" d="m723.49,309.17c-7.6-.05-9.17-.41-9.85-5.06-.65-4.48-1.08-4.13,4.29-3.95,2.5.09,5.18-1.06,7.63-1.96,2.91-1.07,4.88-.58,6.53,1.61,1.67,2.21,1.07,3.94-1.34,5.36-2.7,1.58-5.5,3.04-7.26,4.01Z"/><path class="cls-5" d="m1228.77,531.94c.87-1.64,1.41-3.49,2.68-4.86,1.54-1.65,1.86-3.24,1.31-5.08-.54-1.83-1.32-3.63-1.62-5.49-.15-.9.54-1.91.86-2.87.85.52,2.07.89,2.48,1.6,1.32,2.31,2.22,4.81,3.56,7.11.4.68,1.8,1.43,2.61,1.32,2.44-.32,2.59.78,1.74,1.99-2.78,3.93-5.7,7.79-8.77,11.57-.95,1.17-2.38,1.41-2.89-.51-.39-1.49-.85-2.97-1.27-4.46-.23-.1-.46-.21-.7-.31Z"/><path class="cls-5" d="m574.44,255.16c-1.31.27-2.45.53-3.59.74-1.7.32-2.41-.21-2.82-1.71-.41-1.53-1.5-2.93-2.38-4.34-1.28-2.05-1.7-4.01.59-6.11.63.53,1.16.92,1.61,1.37,1.01,1,1.99,1.26,3.2.12,1.88-1.77,3.97-1.08,5.89-.25,2.29,1,.72,2.61.31,3.84-.57,1.72-.3,2.58,1.78,3.36,1.23.47,2.57,2,2.58,3.07,0,.97-1.91,2.87-2.7,2.78-1.46-.16-2.71-1.46-4.03-2.31-.15-.1-.22-.29-.43-.57Z"/><path class="cls-5" d="m1107.7,430.43c-.56,2.68-3.12,2.89-5.8,3.01-1.47.07-2.98.13-4.37.5-.7.19-1.17,1.05-1.75,1.6.92.11,1.84.35,2.75.3,1.25-.07,2.48-.36,4.39-.66-2.28,2.97-2.35,5.2.75,7.2.46.29-.84,2.51-1.44,4.15-3.09-2.73-3.05-2.71-5.01-.1-.33.44-1.26.88-1.8.81-.44-.06-1.09-.94-.99-1.36.33-1.42-.14-2.24-1.77-2.63-.25-.06-.6-.42-.56-.58.78-3.26,1.02-6.76,2.72-9.66.74-1.27,4.48-1.42,6.9-1.89,1.87-.37,3.81-.45,5.99-.69Z"/><path class="cls-5" d="m1002.87,181.67c1.64-1.71,8.71-3.27,10.79-2.11,1.88,1.04,1.8,2.79.43,4.23-1.87,1.97-3.91,3.84-6.01,5.66-1.18,1.02-6.74-.4-7.9-1.95-.57-.76-1.27-1.5-1.54-2.34-.35-1.12-.35-2.33-.49-3.51,1.26-.03,2.52-.06,3.78-.07.32,0,.63.06.92.09Z"/><path class="cls-5" d="m566.98,229.84c.94,3.11-2.3,3.59-4.18,4.87-.82.56-2.07.75-2.69,1.41-1.04,1.1-1.73,2.39-3.8,1.72-2.46-.79-4.18-2.16-4.37-4.47-.15-1.84,1.29-2.04,3.01-1.78,1.75.26,2.79-.09,2.98-1.9.34-3.23,3.62-2.21,5.76-2.49,2.12-.28,3.44.76,3.28,2.64Z"/><path class="cls-5" d="m849.29,201.99c.14.9.22,1.81.44,2.69.34,1.36-.26,1.95-1.58,3-2.5,2.01-5.06,3.05-8.32,3.62-2.01.35-3.08.16-3.02-1.5.1-2.77.33-5.57.88-8.31.36-1.81,1.91-1.62,2.92-.43,1.14,1.33,1.92,2.88,2.91,4.31.24.35.65.62,1.08,1.01,1.57-1.8-.09-4.71,3.49-4.99,0,0-.02-.01-.02-.01l1.06.45.18.16Z"/><path class="cls-5" d="m1113.59,307.44c1.35.52,2.32.94,3.34,1.27,1.91.61,3.89,1.09,5.77,1.76.98.35,2.12.86,2.56,1.58.27.45-.57,1.46-1.04,2.16-1.4,2.09-3.06,3.73-6.35,2.83-.38-.11-1.19.59-1.67,1.01-.7.62-1.22,1.78-1.95,1.88-.75.11-2.21-.65-2.4-1.26-.33-1.03-.34-3.02.26-3.27,3.9-1.65,2.57-3.87,1.57-6.17-.17-.39-.06-.87-.1-1.78Z"/><path class="cls-5" d="m1059.49,451.29c.23-.14.45-.28.68-.42,2.55.32,5.09.71,7.66.92,1.21.1,2.53.04,3.68-.27,3.41-.91,8.24,0,10.27,2.15.29.31.53.96.34,1.2-.29.36-.99.72-1.48.7-5.94-.23-11.88-.53-17.82-.81-2.58-.12-4.01-1.06-3.33-3.46Z"/><path class="cls-5" d="m576.03,225.29c1.08-.12,1.29-.18,1.5-.16,1.61.16,5.79,5.63,5.29,6.98-.58,1.56-1.17,3.12-1.91,4.62-.23.47-.99,1.08-1.48,1.08-.56,0-1.5-.58-1.56-1-.29-2-1.74-2.92-3.78-3.57-1.61-.51-2.26-1.2-.4-2.46.73-.5.68-1.79,1.06-2.7.44-1.06.96-2.09,1.29-2.8Z"/><path class="cls-5" d="m1163.82,538.43c.35,2.88-2.65,7.27-5.21,7.98-.73.2-2.19-.2-2.54-.72-.64-.93-.91-2.14-.95-3.25-.07-1.82.17-3.66.29-5.48,2.19.18,4.39.28,6.55.58.81.11,1.51.71,1.87.9Z"/><path class="cls-5" d="m1094.67,402.39c-.18.09-.37.16-.58.19-1.05-.07-2.1-.13-3.14-.2-4.08-2.69-3.18-6.39-2.3-9.93.4-1.62,2.48-2.27,3.73-1.01,1.2,1.21,1.67,3.06,2.08,4.7.32,1.28.07,2.67.07,4.01.05.74.09,1.49.14,2.23Z"/><path class="cls-5" d="m919.87,189.4c3.02.89,5.73,1.42,8.04,2.53.7.34.92,2.66.27,3.4-1.34,1.53-3.41,2.6-5.17,3.86-.96-1.51-2.03-2.97-2.84-4.54-.55-1.04-.86-2.21-1.03-3.36-.08-.54.42-1.15.73-1.9Z"/><path class="cls-5" d="m1097.8,419.11c-.13-3.72.69-4.62,4.41-5.35.78-.15,1.46-.65,2.21-.94,1.21-.45,2.45-.86,3.68-1.29.55,1.47,1.41,2.91,1.54,4.41.08.93-.64,2.31-1.53,2.83-.94.55-2.71.7-3.75.32-1.22-.44-1.94-2.22-3.06-2.34-.93-.1-2.13,1.38-3.49,2.35Z"/><path class="cls-5" d="m589.2,239.13c-.35,1.02-.58,2.86-1.07,2.92-1.95.24-3.98-.16-4.12-2.35-.13-2.07-.25-4.16-.02-6.22.25-2.27,2.19-2.88,4.31-1.54,3.62,2.28,3.67,4.04.9,7.19Z"/><path class="cls-5" d="m589.83,446.61c1.25-.14,2.51-.27,4.09-.45-.17-.93-.34-1.83-.53-2.85,4.45-1.14,8.56-1.26,12.46,1.85-5.37,1.94-10.35,3.77-16.02,1.45Z"/><path class="cls-5" d="m826.12,211.01c.07-.15.02.35-.28.55-.65.41-1.43.65-2.16.96-.23-.61-.79-1.3-.61-1.82.2-.61.94-1.33,1.63-1.56,2.01-.66,4.69.32,6.04-1.95.78.97,1.63,1.9,2.28,2.93.14.23-.35.85-.69,1.19-1.05,1.05-2.17,2.05-3.27,3.06-1-1.14-1.99-2.28-2.94-3.36Z"/><path class="cls-5" d="m1169.86,439.67c3.79-2.34,6.53-4.15,9.43-5.75.62-.34,1.81.06,2.73.11-.13.74.07,1.78-.44,2.17-1.79,1.37-3.65,2.87-5.8,3.61-1.56.54-3.63-.04-5.92-.15Z"/><path class="cls-5" d="m990.61,424.1c1.24,1.72,2.81,3.35,3.52,5.23.24.65-1.69,2.76-2.6,2.76-3.66.01-2.92-2.98-3.56-4.85-.27-.8.73-1.93,1.15-2.91.5-.08.99-.15,1.49-.23Z"/><path class="cls-5" d="m1020.53,176.86c2.09.14,3.29.09,4.39.34.91.21,1.69.78,2.53,1.19-.57.79-.95,2.02-1.75,2.29-1.49.5-3.31.74-4.85.5-1.21-.19-2.21-1.26-3.3-1.94,1.13-.91,2.26-1.81,2.98-2.39Z"/><path class="cls-5" d="m579.07,440.23c3.72.22,7.69-.23,10.82,2.74-2.08,1.73-4.64,2.02-6.73,1.3-1.87-.64-5.14-1-4.07-4.06v.02Z"/><path class="cls-5" d="m579.08,440.21c-3.25-.1-6.51-.31-9.76-.25-1.11.02-2.19.8-3.33,1.12-.61.17-1.32.09-1.98.12.18-.55.16-1.26.58-1.63,3.07-2.73,11.94-2.29,14.48.66,0,0,.01-.02.01-.02Z"/><path class="cls-5" d="m1087.72,383.02c-3.73-1.78-4.87-5.28-2.89-7.57.45-.52,1.35-1.05,2.02-1.04.44,0,1.17.97,1.18,1.52.03,2.27-.18,4.54-.31,7.08Z"/><path class="cls-5" d="m1094.67,402.39c-.05-.74-.09-1.48-.14-2.23,2.81.17,5.5.46,6.84,3.04.21.4,1.57.27,2.09.67.8.6,1.33,1.46,1.98,2.2-.88.17-1.98.69-2.6.43-1.36-.57-2.73-1.37-3.62-2.37-1.21-1.37-2.51-2.09-4.55-1.74Z"/><path class="cls-5" d="m1103.01,408.99c-1.41,1.62-2.27,3.54-3.35,3.66-3.09.34-2.1-2.66-3.37-3.96-.2-.2,1.15-1.92,1.29-1.87,1.65.51,3.2,1.23,5.42,2.17Z"/><path class="cls-5" d="m1020.84,195.28c-1.52-.73-2.56-1.23-3.59-1.72.85-.87,1.76-2.49,2.54-2.46,1.43.05,2.78,1.07,4.17,1.69-.94.75-1.87,1.5-3.12,2.49Z"/><path class="cls-5" d="m1115.55,452.08c-2.32,1.54-4.6,3.13-6.98,4.59-.45.28-1.3.07-1.97.09.11-.74-.08-1.94.37-2.16,2.64-1.27,5.43-2.32,8.17-3.44.14.31.28.61.42.92Z"/><path class="cls-5" d="m382.22,299.07c3.74-1.1,6.2-.39,6.66,1.43.14.55.06,1.4-.35,1.74-.37.3-1.54.33-1.99.06-1.38-.85-2.58-1.9-4.32-3.23Z"/><path class="cls-5" d="m1105.21,452.03c-.91.74-1.44,1.44-2.17,1.7-1.36.48-2.84.91-4.28.97-.91.03-1.84-.66-2.76-1.02.87-.5,1.69-1.32,2.62-1.44,1.92-.26,3.9-.15,6.58-.2Z"/><path class="cls-5" d="m849.29,201.99s-.18-.16-.18-.16c-.35-.15-.7-.3-1.06-.45,0,0,.02.01.02.01,0-.27-.12-.61.03-.79.75-.91,1.57-1.78,2.37-2.67.63.72,1.76,1.42,1.77,2.16.02,1.4-1,2.35-2.95,1.9Z"/><path class="cls-5" d="m455.16,356.2c-.31-1.17-.8-2.34-.85-3.52-.02-.51.86-1.06,1.33-1.59.55.45,1.55.88,1.56,1.35.03,1.24-.38,2.49-.61,3.74-.48,0-.96.02-1.44.03Z"/><path class="cls-5" d="m1115.22,433.13c-.58-1.66-2.41-3.11.1-4.57.45-.26,1.8-.15,1.93.1.93,1.82.2,3.26-2.04,4.46Z"/><path class="cls-5" d="m1116.58,438.86c2.19-.9,4.38-2.14,6.53-.43,0,.35.02.7.02,1.04-2.17.15-4.33.31-6.5.46-.02-.36-.03-.72-.05-1.08Z"/><path class="cls-5" d="m583.42,316.88c.33,2.51,0,2.72-4.17,2.65.05-2.5,1.77-2.93,4.17-2.65Z"/><path class="cls-5" d="m859.66,266.28c.41.69,1.29,1.46,1.13,2.05-.21.78-1.11,1.57-1.96,2.03-.25.14-1.82-.76-1.87-1.26-.06-.63.84-1.33,1.32-2,.46-.27.92-.54,1.37-.82Z"/><path class="cls-5" d="m781.91,322.99c.83-.29,1.66-.58,2.48-.87.52.34,1.04.67,1.56,1.01-.8,1.15-1.6,2.3-2.4,3.45-.55-1.2-1.1-2.4-1.64-3.6Z"/><path class="cls-5" d="m1090.95,402.39c1.05.07,2.09.13,3.14.2,0,.85,0,1.71,0,2.7-2.58-.01-3.15-1.23-3.13-2.9Z"/><path class="cls-5" d="m1060.4,444.8c-.37-.85-.74-1.7-1.1-2.55,1.66.43,2.59,1.1,1.1,2.55Z"/><path class="cls-5" d="m1060.06,449.12c-.04-.72-.09-1.44-.13-2.15.04.72.09,1.44.13,2.15Z"/><path class="cls-5" d="m775.1,316.01c.1.54.21,1.07.31,1.61-.1-.54-.21-1.07-.31-1.61Z"/><path class="cls-5" d="m784.39,332.57c-.12.59-.24,1.18-.35,1.77.12-.59.24-1.18.35-1.77Z"/><path class="cls-5" d="m776.25,320.87c.25.33.51.67.76,1-.26-.33-.51-.67-.76-1Z"/><path class="cls-5" d="m817.1,312.54c-.04-.23-.08-.46-.12-.69,2.92-1.2,5.84-2.39,8.88-3.63.76,1.52,1.21,3.01-1.22,2.8-2.83-.25-5.18.44-7.54,1.53Z"/><path class="cls-5" d="m852.85,349.06c1.86-.85,3.73-1.71,5.82-2.67-.38,2.78-2.13,3.76-5.4,3.38l-.42-.72Z"/><path class="cls-5" d="m1103.73,292.69c-1.13-1.31-2.25-2.63-3.38-3.94.41-.22.81-.43,1.22-.65,1.59,1.12,1.79,2.89,2.17,4.58,0,0-.01,0-.01,0Z"/><path class="cls-5" d="m1048.59,434.49c-.46-.14-.93-.28-1.39-.42.46.14.93.28,1.39.42Z"/><path class="cls-5" d="m1050.94,435.34c-.56-.13-1.12-.26-1.68-.39.56.13,1.12.26,1.68.39Z"/><path class="cls-5" d="m1049.29,434.97c-.25-.16-.5-.33-.74-.49.25.16.5.33.74.49Z"/><path class="cls-5" d="m506.36,300.01c-2.55.96-4.82,1.82-7.25,2.73.2-1.89.37-3.47.57-5.35q3.52-1.33,6.68,2.61Z"/><path class="cls-5" d="m561.87,368.97c1,.78,1.68,1.32,2.36,1.86-1.51,2.57-1.82,2.6-7.2.54,1.78-.88,3.23-1.61,4.84-2.4Z"/><path class="cls-5" d="m626.69,238.24c.58-3.16,2.21-5.48,6.04-6.78,2.62-.89,4.89-2.57,7.14-3.8.89,1.01,1.95,2.2,3.44,3.89-.8.52-1.76,1.41-2.94,1.85-4.51,1.7-9.09,3.25-13.65,4.85l-.03-.02Z"/><path class="cls-5" d="m606.01,252.73c-4.14.07-8.32.14-13.19.21,3.23-3.02,10.99-2.68,13.19-.21Z"/><path class="cls-5" d="m626.71,238.25c-.1.1-.19.2-.29.3,0-.06-.03-.15.01-.19.06-.06.16-.09.25-.13,0,0,.03.02.03.02Z"/><path class="cls-5" d="m848.06,201.38c.35.15.7.3,1.06.45-.35-.15-.7-.3-1.06-.45Z"/><path class="cls-5" d="m794.39,370.39c.11.9.4,1.81.28,2.68-.09.65-.73,1.26-1.13,1.88-.64-.5-1.74-.95-1.82-1.53-.31-2.14-.34-4.33-.33-6.5,0-.37.67-1,1.1-1.05.41-.05,1.23.42,1.32.78.31,1.22.37,2.49.53,3.74.02,0,.04,0,.06,0Z"/></g><polygon class="cls-6" points="624.69 643.57 414.22 707.83 356.44 191.69 565.8 117.56 624.69 643.57"/><polygon class="cls-6" points="1053.34 607.7 844.83 665.75 787.06 149.61 994.89 87.83 1053.34 607.7"/><g><path class="cls-2" d="m925.75,236.64c-17.69,0-32.02,14.34-32.02,32.02s21.59,42.55,32.02,54.68c10.43-12.13,32.02-36.99,32.02-54.68s-14.34-32.02-32.02-32.02Zm0,49.8c-8.84,0-16.01-7.17-16.01-16.01s7.17-16.01,16.01-16.01,16.01,7.17,16.01,16.01-7.17,16.01-16.01,16.01Z"/><path class="cls-8" d="m928.41,236.89c-1.32-.17-2.66-.25-4.02-.25-17.69,0-32.03,14.34-32.03,32.02s21.59,42.55,32.03,54.68c1.2-1.4,2.56-2.98,4.02-4.69-11.12-13.1-28.01-34.35-28.01-49.99s12.22-29.8,28.01-31.77Zm4.02,17.52c-1.39,0-2.73.18-4.02.51,6.9,1.78,11.99,8.05,11.99,15.51s-5.1,13.72-11.99,15.51c1.29.33,2.63.51,4.02.51,8.84,0,16.01-7.18,16.01-16.02s-7.17-16.01-16.01-16.01Z"/></g><g><path class="cls-4" d="m845.72,262.19c-10.74,0-19.45,8.71-19.45,19.45s13.11,25.84,19.45,33.21c6.34-7.37,19.45-22.47,19.45-33.21s-8.71-19.45-19.45-19.45Zm0,30.25c-5.37,0-9.72-4.35-9.72-9.73s4.35-9.73,9.72-9.73,9.73,4.35,9.73,9.73-4.35,9.73-9.73,9.73Z"/><path class="cls-9" d="m847.33,262.34c-.8-.1-1.62-.15-2.44-.15-10.74,0-19.45,8.71-19.45,19.45s13.12,25.84,19.45,33.21c.73-.85,1.56-1.81,2.44-2.85-6.76-7.95-17.01-20.86-17.01-30.36s7.42-18.1,17.01-19.3Zm2.44,10.64c-.84,0-1.66.11-2.44.31,4.19,1.08,7.28,4.89,7.28,9.42s-3.1,8.33-7.28,9.42c.78.2,1.6.31,2.44.31,5.37,0,9.72-4.36,9.72-9.73s-4.35-9.73-9.72-9.73Z"/></g><g><path class="cls-2" d="m484.63,289.89c-17.11,0-30.98,13.87-30.98,30.98s20.89,41.16,30.98,52.89c10.09-11.73,30.98-35.78,30.98-52.89s-13.87-30.98-30.98-30.98Zm0,48.18c-8.55,0-15.49-6.94-15.49-15.49s6.94-15.49,15.49-15.49,15.49,6.94,15.49,15.49-6.94,15.49-15.49,15.49Z"/><path class="cls-8" d="m487.2,290.13c-1.27-.16-2.57-.24-3.89-.24-17.11,0-30.98,13.87-30.98,30.98s20.89,41.16,30.98,52.89c1.17-1.36,2.48-2.88,3.89-4.54-10.76-12.67-27.09-33.23-27.09-48.35s11.82-28.82,27.09-30.73Zm3.89,16.95c-1.34,0-2.65.17-3.89.49,6.67,1.72,11.6,7.79,11.6,15s-4.93,13.27-11.6,15c1.24.32,2.54.49,3.89.49,8.55,0,15.48-6.94,15.48-15.49s-6.93-15.49-15.48-15.49Z"/></g><g><path class="cls-4" d="m663.63,425.8c-13.15,0-23.81,11.5-23.81,25.68s16.05,34.12,23.81,43.85c7.76-9.73,23.81-29.66,23.81-43.85s-10.66-25.68-23.81-25.68Zm0,39.94c-6.57,0-11.9-5.75-11.9-12.84s5.33-12.84,11.9-12.84,11.91,5.75,11.91,12.84-5.33,12.84-11.91,12.84Z"/><path class="cls-9" d="m665.6,426c-.98-.14-1.98-.2-2.99-.2-13.15,0-23.82,11.5-23.82,25.68s16.06,34.12,23.82,43.85c.9-1.13,1.91-2.39,2.99-3.76-8.27-10.5-20.83-27.54-20.83-40.08s9.09-23.89,20.83-25.48Zm2.99,14.05c-1.03,0-2.03.14-2.99.41,5.13,1.43,8.92,6.45,8.92,12.43s-3.79,11-8.92,12.43c.96.27,1.96.41,2.99.41,6.57,0,11.9-5.75,11.9-12.84s-5.33-12.84-11.9-12.84Z"/></g><g><path class="cls-2" d="m862.45,455.13c-11.83,0-21.43,9.6-21.43,21.43s14.45,28.47,21.43,36.59c6.98-8.12,21.43-24.75,21.43-36.59s-9.59-21.43-21.43-21.43Zm0,33.33c-5.92,0-10.71-4.8-10.71-10.72s4.8-10.72,10.71-10.72,10.72,4.8,10.72,10.72-4.8,10.72-10.72,10.72Z"/><path class="cls-8" d="m864.23,455.3c-.88-.11-1.78-.17-2.69-.17-11.83,0-21.43,9.59-21.43,21.43s14.45,28.47,21.43,36.59c.81-.94,1.72-1.99,2.69-3.14-7.44-8.76-18.74-22.99-18.74-33.45s8.18-19.94,18.74-21.26Zm2.69,11.73c-.93,0-1.83.12-2.69.34,4.61,1.19,8.03,5.39,8.03,10.38s-3.41,9.18-8.03,10.38c.86.22,1.76.34,2.69.34,5.91,0,10.71-4.8,10.71-10.72s-4.8-10.72-10.71-10.72Z"/></g><g><path class="cls-4" d="m1037.3,371.53c-10.74,0-19.45,8.71-19.45,19.45s13.11,25.84,19.45,33.21c6.34-7.37,19.45-22.47,19.45-33.21s-8.71-19.45-19.45-19.45Zm0,30.25c-5.37,0-9.72-4.35-9.72-9.73s4.35-9.73,9.72-9.73,9.73,4.35,9.73,9.73-4.35,9.73-9.73,9.73Z"/><path class="cls-9" d="m1038.91,371.68c-.8-.1-1.62-.15-2.44-.15-10.74,0-19.45,8.71-19.45,19.45s13.12,25.84,19.45,33.21c.73-.85,1.56-1.81,2.44-2.85-6.76-7.95-17.01-20.86-17.01-30.36s7.42-18.1,17.01-19.3Zm2.44,10.64c-.84,0-1.66.11-2.44.31,4.19,1.08,7.28,4.89,7.28,9.42s-3.1,8.33-7.28,9.42c.78.2,1.6.31,2.44.31,5.37,0,9.72-4.36,9.72-9.73s-4.35-9.73-9.72-9.73Z"/></g><g><path class="cls-4" d="m581.66,331.1c-12.1,0-21.91,10.58-21.91,23.63s14.77,31.39,21.91,40.34c7.14-8.95,21.91-27.29,21.91-40.34s-9.81-23.63-21.91-23.63Zm0,36.74c-6.05,0-10.95-5.29-10.95-11.81s4.9-11.81,10.95-11.81,10.95,5.29,10.95,11.81-4.9,11.81-10.95,11.81Z"/><path class="cls-9" d="m583.47,331.29c-.9-.13-1.82-.19-2.75-.19-12.1,0-21.91,10.58-21.91,23.62s14.77,31.39,21.91,40.34c.82-1.04,1.75-2.2,2.75-3.46-7.61-9.66-19.16-25.34-19.16-36.88s8.36-21.98,19.16-23.44Zm2.75,12.93c-.95,0-1.87.13-2.75.38,4.72,1.31,8.2,5.94,8.2,11.44s-3.49,10.12-8.2,11.44c.88.25,1.8.38,2.75.38,6.05,0,10.95-5.29,10.95-11.81s-4.9-11.81-10.95-11.81Z"/></g><g><path class="cls-2" d="m641.68,527.55c-9.2,0-16.67,7.46-16.67,16.67s11.24,22.15,16.67,28.46c5.43-6.31,16.67-19.25,16.67-28.46s-7.46-16.67-16.67-16.67Zm0,25.92c-4.6,0-8.33-3.73-8.33-8.33s3.73-8.33,8.33-8.33,8.33,3.73,8.33,8.33-3.73,8.33-8.33,8.33Z"/><path class="cls-8" d="m643.07,527.68c-.68-.09-1.38-.13-2.09-.13-9.2,0-16.67,7.46-16.67,16.67s11.24,22.14,16.67,28.46c.63-.73,1.33-1.55,2.09-2.44-5.79-6.82-14.58-17.88-14.58-26.02s6.36-15.51,14.58-16.54Zm2.09,9.12c-.72,0-1.42.09-2.09.27,3.59.93,6.24,4.19,6.24,8.07s-2.65,7.14-6.24,8.07c.67.17,1.37.27,2.09.27,4.6,0,8.33-3.73,8.33-8.34s-3.73-8.34-8.33-8.34Z"/></g><g><path class="cls-4" d="m791.8,373.83c-10.74,0-19.45,8.71-19.45,19.45s13.11,25.84,19.45,33.21c6.34-7.37,19.45-22.47,19.45-33.21s-8.71-19.45-19.45-19.45Zm0,30.25c-5.37,0-9.72-4.35-9.72-9.73s4.35-9.73,9.72-9.73,9.73,4.35,9.73,9.73-4.35,9.73-9.73,9.73Z"/><path class="cls-9" d="m793.41,373.98c-.8-.1-1.62-.15-2.44-.15-10.74,0-19.45,8.71-19.45,19.45s13.12,25.84,19.45,33.21c.73-.85,1.56-1.81,2.44-2.85-6.76-7.95-17.01-20.86-17.01-30.36s7.42-18.1,17.01-19.3Zm2.44,10.64c-.84,0-1.66.11-2.44.31,4.19,1.08,7.28,4.89,7.28,9.42s-3.1,8.33-7.28,9.42c.78.2,1.6.31,2.44.31,5.37,0,9.72-4.36,9.72-9.73s-4.35-9.73-9.72-9.73Z"/></g><g><path class="cls-2" d="m967.56,354.89c-9.2,0-16.67,7.46-16.67,16.67s11.24,22.15,16.67,28.46c5.43-6.31,16.67-19.25,16.67-28.46s-7.46-16.67-16.67-16.67Zm0,25.92c-4.6,0-8.33-3.73-8.33-8.33s3.73-8.33,8.33-8.33,8.33,3.73,8.33,8.33-3.73,8.33-8.33,8.33Z"/><path class="cls-8" d="m968.95,355.02c-.68-.09-1.38-.13-2.09-.13-9.2,0-16.67,7.46-16.67,16.67s11.24,22.14,16.67,28.46c.63-.73,1.33-1.55,2.09-2.44-5.79-6.82-14.58-17.88-14.58-26.02s6.36-15.51,14.58-16.54Zm2.09,9.12c-.72,0-1.42.09-2.09.27,3.59.93,6.24,4.19,6.24,8.07s-2.65,7.14-6.24,8.07c.67.17,1.37.27,2.09.27,4.6,0,8.33-3.73,8.33-8.34s-3.73-8.34-8.33-8.34Z"/></g><g><path class="cls-2" d="m770.22,309.26c-9.2,0-16.67,7.46-16.67,16.67s11.24,22.15,16.67,28.46c5.43-6.31,16.67-19.25,16.67-28.46s-7.46-16.67-16.67-16.67Zm0,25.92c-4.6,0-8.33-3.73-8.33-8.33s3.73-8.33,8.33-8.33,8.33,3.73,8.33,8.33-3.73,8.33-8.33,8.33Z"/><path class="cls-8" d="m771.61,309.39c-.68-.09-1.38-.13-2.09-.13-9.2,0-16.67,7.46-16.67,16.67s11.24,22.14,16.67,28.46c.63-.73,1.33-1.55,2.09-2.44-5.79-6.82-14.58-17.88-14.58-26.02s6.36-15.51,14.58-16.54Zm2.09,9.12c-.72,0-1.42.09-2.09.27,3.59.93,6.24,4.19,6.24,8.07s-2.65,7.14-6.24,8.07c.67.17,1.37.27,2.09.27,4.6,0,8.33-3.73,8.33-8.34s-3.73-8.34-8.33-8.34Z"/></g></g></g></g></svg>