<?xml version="1.0" encoding="UTF-8"?><svg id="Layer_2" xmlns="http://www.w3.org/2000/svg" viewBox="0 0 1600 800"><defs><style>.cls-1{fill:#f3f3f3;}.cls-2{fill:#f7f9f9;}.cls-3{fill:#00435b;}.cls-4{fill:#ffa15d;}.cls-5{fill:#d9ac90;}.cls-6{fill:#e2beab;}.cls-7{fill:#0c4d68;}.cls-8{fill:#088fc1;}.cls-9{fill:#0ba0d8;}.cls-10{fill:#b49984;opacity:.2;}.cls-10,.cls-11{isolation:isolate;}.cls-11{fill:#edd4c8;opacity:.6;}</style></defs><g id="Layer_1-2"><rect class="cls-2" width="1600" height="800"/><g id="Hand_with_credit_card"><path class="cls-6" d="m560.44,765.8c.6.46,1.21.93,1.84,1.38-.61-.45-1.22-.91-1.84-1.39v.02Z"/><ellipse class="cls-7" cx="1055.17" cy="558.27" rx="110.56" ry="28.28" transform="translate(-7.36 1102.4) rotate(-55)"/><path class="cls-6" d="m706.85,480.82c5,6.16,31.44,12.08,31.44,12.08,0,0,7.89,23.87,31.82,26,19.88,1.74,44.96-4.28,44.96-4.28,0,0,27.19,45.97,82.52,81.25.78-.66,1.56-1.31,2.35-1.97,62.55-52.31,124.49-79.91,141.41-159.68-43.1-45.9-102.35-132.67-108.21-137.67-29.75-30.34-116.35-49.77-146.88-59.68-30.53-9.92-101.6.22-101.6.22,0,0-38.27,122.03-18.89,177.31,1.53,4.33,3.93,8.3,7.03,11.68,3.1,3.38,6.86,6.1,11.04,8l5.35,2.4s6.58,33.85,17.66,44.33Z"/><path class="cls-5" d="m783.16,352.88c-.19-5.95.01-11.91.61-17.83.27-2.9.7-5.71,1.18-8.53.48-2.82,1.1-5.49,1.79-8.17.36-1.32.76-2.63,1.19-3.9.43-1.28.88-2.55,1.37-3.8.97-2.45,2.09-4.85,3.34-7.17,1.24-2.28,2.61-4.48,4.12-6.59,1.52-2.08,3.14-4.09,4.86-6.01-4.37,2.82-8.15,6.47-11.14,10.73-1.56,2.17-2.93,4.48-4.08,6.89-.62,1.25-1.16,2.47-1.66,3.76-.5,1.29-.98,2.61-1.41,3.95-1.76,5.59-2.8,11.39-3.1,17.24-.16,3.12-.14,6.26.07,9.38.19,3.27.64,6.51,1.34,9.71l1.52.34Z"/><path class="cls-10" d="m699.39,247.86s99.97,116.52,205.94,157.31c0,0-34.48,4.25-85.87-25.86-70.84-47.88-120.07-131.45-120.07-131.45Z"/><path class="cls-3" d="m587.14,465.64l-190.2-226.68c-8.08-9.63-6.82-23.98,2.81-32.06l134.32-112.71c9.63-8.08,23.98-6.82,32.06,2.81l190.2,226.68c8.08,9.63,6.82,23.98-2.81,32.06l-134.32,112.71c-9.63,8.08-23.98,6.82-32.06-2.81Z"/><path class="cls-5" d="m817.52,382.06c1.51-6.59,3.39-13.1,5.62-19.49,1.09-3.13,2.27-6.2,3.53-9.18,1.27-2.98,2.61-5.94,4.06-8.77,1.45-2.84,3.03-5.59,4.73-8.27.41-.68.85-1.33,1.29-1.98.44-.65.87-1.28,1.34-1.92.87-1.28,1.81-2.53,2.77-3.75,3.84-4.88,8.15-9.38,12.86-13.43-5.69,2.72-10.85,6.44-15.23,10.98-1.1,1.14-2.18,2.29-3.19,3.51-.52.6-1.01,1.23-1.49,1.87-.48.64-.97,1.25-1.43,1.91-1.9,2.61-3.61,5.36-5.13,8.21-3.15,5.95-5.57,12.26-7.2,18.8-.85,3.43-1.51,6.92-1.96,10.43-.49,3.68-.69,7.39-.57,11.1Z"/><path class="cls-7" d="m587.77,458.45l-190.2-226.67c-8.08-9.63-6.82-23.98,2.81-32.07l134.32-112.71c9.63-8.08,23.98-6.82,32.06,2.81l190.2,226.67c8.08,9.63,6.82,23.98-2.81,32.06l-134.32,112.71c-9.63,8.08-23.98,6.82-32.06-2.81Z"/><path class="cls-1" d="m503.34,156.74l14.45-12.13,175.81,209.52-14.45,12.13-175.81-209.52Z"/><path class="cls-1" d="m530.43,134.01l14.45-12.13,99.88,119.03-14.45,12.12-99.88-119.03Z"/><path class="cls-6" d="m679.34,357.72c18.03,14.08,50.38,34.99,67.61,58.71,10.58,14.6,39.34,55.9,59.91,85.56l5.97,8.61c9.8,14.14,16.6,23.98,16.6,23.98,0,0,151.72-18.94,75.9-129.4,0,0-66.17.5-110.86-46.4-44.69-46.9-96.71-77.51-96.71-77.51,0,0-24.25-17.25-46.54,7.68-18.68,25.45,13.5,57.35,28.12,68.76Z"/><path class="cls-11" d="m712.19,302.95c-.7.58-9.75,25.54-26.47,37.6,0,0-53.08-24.12-30.72-51.57,22.36-27.45,57.19,13.97,57.19,13.97Z"/><path class="cls-11" d="m712.19,439.91s2.48-10.54,18.53-9.13c16.05,1.4,26.29,16.77,26.29,16.77,0,0,3.54,6.37-5.07,6.4-8.61.04-25.97-4.03-39.76-14.04Z"/><path class="cls-11" d="m749,491.09c12.64,7.64,26.93,12.14,41.67,13.12,0,0,8.34-.85,1.14-12.87-7.21-12.03-21.35-14.85-21.9-14.89-.79-.1-22.19-1.57-20.91,14.64Z"/><path class="cls-11" d="m815.14,514.62s-6.18-9.63-8.28-12.63c-2.99.74-9.31,2.81-8.99,6.56.46,4.95,11.16,6.74,17.27,6.07Z"/><path class="cls-10" d="m705.75,378.06l.47-.22c14.79,11.3,30.5,24.43,40.73,38.6,10.58,14.6,39.34,55.9,59.91,85.56l5.97,8.61c9.64,13.92,16.38,23.65,16.6,23.97-5.19-6.34-9.96-13-14.29-19.95,0,0-1.69.41-4.54.97-34.57-59.22-104.84-137.54-104.84-137.54Z"/><path class="cls-4" d="m480.81,266.67l29.09-24.41c1.12-.94,1.83-2.29,1.96-3.75.13-1.46-.33-2.91-1.27-4.04l-37.02-44.12c-.94-1.12-2.29-1.83-3.76-1.96-1.46-.13-2.92.33-4.04,1.27l-29.09,24.41c-.56.47-1.02,1.04-1.35,1.69-.34.64-.54,1.35-.6,2.08-.06.73.02,1.45.24,2.15.22.69.57,1.34,1.04,1.89l37.02,44.12c.94,1.12,2.29,1.83,3.75,1.95,1.46.13,2.91-.33,4.04-1.27h0Z"/><path class="cls-8" d="m474.78,242.22l12.08-10.14,14.53,17.32.44-.37-14.53-17.32,12.3-10.32-.36-.43-4.16,3.49-14.34-17.09,4.16-3.49-.37-.44-12.3,10.32-14.53-17.32-.44.37,14.53,17.32-12.08,10.14-14.53-17.32-.44.37,14.53,17.32-12.3,10.32.37.44,3.97-3.33,14.34,17.09-3.97,3.33.36.43,4.41-3.7-14.7-17.52,28.55-23.96,14.34,17.09-20.66,17.34,14.89,17.75.44-.37-14.53-17.32Z"/><path class="cls-8" d="m488.43,260.27l1.32-1.11-14.16-16.88,11.2-9.4,14.16,16.88,1.32-1.11-14.16-16.88,11.86-9.95-1.1-1.31-3.73,3.13-13.61-16.22,3.73-3.13-1.1-1.31-11.86,9.95-14.16-16.88-1.32,1.11,14.16,16.88-11.2,9.4-14.16-16.88-1.32,1.11,14.16,16.88-11.86,9.95,1.1,1.31,3.53-2.96,13.61,16.22-3.53,2.96,1.1,1.31,4.85-4.07-14.71-17.53,27.67-23.22,13.61,16.22-20.66,17.34,15.26,18.19Z"/><path class="cls-6" d="m1195.5,530.34l-84.45,146.27-144.64-83.51c11.71-24.82-19.04-64.07-7.34-88.89,13.27-28.14,69.01-41.85,82.28-69.98,51.38,32.04,102.77,64.07,154.15,96.11Z"/><ellipse class="cls-6" cx="928" cy="555.17" rx="48.28" ry="80.45" transform="translate(87.18 1235.17) rotate(-69.85)"/><g><path class="cls-9" d="m1116.28,465.84l127.49,89.27-127.49,182.08-127.49-89.27.62-.89c9.73-2.38,40.48-37.48,72.68-83.46,32.18-45.96,54.66-86.89,53.57-96.84l.62-.89Z"/><ellipse class="cls-9" cx="1181.06" cy="646.88" rx="110.79" ry="30.79" transform="translate(-26.26 1243.31) rotate(-55)"/></g></g></g></svg>