<?xml version="1.0" encoding="UTF-8"?><svg id="Layer_2" xmlns="http://www.w3.org/2000/svg" viewBox="0 0 1600 800"><defs><style>.cls-1{opacity:.1;}.cls-2{fill:#f7f9f9;}.cls-3{fill:#003045;}.cls-4{fill:#046084;}.cls-5{fill:#fff;}.cls-6{fill:#b59984;}.cls-7{fill:#bdbfbf;}.cls-8{fill:#dddfdf;}.cls-9{fill:#d9ac90;}.cls-10{fill:#e2beaa;}.cls-11{fill:#0a5572;}.cls-12{fill:#142d37;}.cls-13{fill:#714d30;}.cls-14{fill:#3a2317;}.cls-15{fill:#828180;}.cls-16{opacity:.2;}</style></defs><g id="Layer_1-2"><rect class="cls-2" width="1600" height="800"/><g><rect class="cls-3" x="693.8" y="469.31" width="250.42" height="29.97" rx="9.76" ry="9.76"/><polygon class="cls-10" points="947.82 209.79 902.38 241.59 903.17 212.01 948.98 192.36 947.82 209.79"/><path class="cls-10" d="m878.71,149.27c0,29.83,0,58.14,27.05,63.32,9.32,1.79,18.97-.63,26.55-6.26,22.26-16.5,24.35-20.69,33.87-52.12,1.05-3.46,1.52-7.07,1.42-10.68-.83-32.52-9.38-58.02-44.41-58.02-44.48,0-44.48,28.54-44.48,63.75Z"/><path class="cls-13" d="m809.37,493.44l-181.04-46.45v-53.34c0-11.58-5.09-2.6,15.13-7.78l213.88,5.34-47.97,102.22Z"/><rect class="cls-8" x="638.31" y="377.86" width="110.98" height="10.05" transform="translate(13.74 -23.91) rotate(1.99)"/><path class="cls-9" d="m754.92,359.6l-12.19-.07c-.45.07-.91.06-1.36-.04l-6.94-1.48c-.31-.07-.61-.17-.9-.31l-10.03-5.04c-.06-.03-.12-.06-.17-.09l-6.91-3.95c-.26-.15-.53-.26-.81-.34l-9.72-2.82c-.5-.14-1.02-.18-1.53-.11l-15.04,2.01-8.41,1.5c-.92.16-1.75.67-2.31,1.42l-5.6,7.4c-.13.17-.28.33-.43.48l-4.22,3.91c-.76.7-1.19,1.69-1.19,2.73h0c0,1.73,1.19,3.23,2.87,3.62l3.41.81c.28.07.57.1.86.1h20.05c.4,0,.8.06,1.18.19l6.26,2.09,3.14,1.14c.15.05.29.11.43.19l4.79,2.45c.44.22.91.36,1.4.4l37.99,2.98c2.01.16,3.41,2.29,3.62.28l1.75-16.67c.26-2.43,2.44-3.13.02-2.75Z"/><g><path class="cls-4" d="m755.27,378.08c-2.3-5.74-6.28-17.64-.89-19.79l104.66-37.72c5.38-2.15,11.61.75,13.9,6.49l8.43,21.08c2.3,5.74-.21,12.14-5.59,14.29l-100.32,19.81c-5.38,2.15-17.89,1.58-20.19-4.15Z"/><path class="cls-1" d="m754.84,378.13c-2.3-5.74-6.28-17.64-.89-19.79l104.66-37.72c5.38-2.15,11.61.75,13.9,6.49l8.43,21.08c2.3,5.74-.21,12.14-5.59,14.29l-100.32,19.81c-5.38,2.15-17.89,1.58-20.19-4.15Z"/></g><path class="cls-4" d="m972.13,346.31c-15.8,115.81-61.34,77.15-100.82,78.33-74.13,2.19-63.6-26.47-46.43-78.01,3.83-11.51,14.16-42.3,21.34-52.08,31.63-43.07,21.41-38.64,101.6-84.75,34.31,46.41,42.45,81,24.31,136.52Z"/><rect class="cls-4" x="874.21" y="240.84" width="64.62" height="150.56" rx="31.61" ry="31.61" transform="translate(279.51 -410.91) rotate(30)"/><rect class="cls-12" x="798.17" y="390.29" width="162.25" height="23.6" rx="7.67" ry="7.67"/><path class="cls-10" d="m752.79,368.5l-12.19-.07c-.45.07-.91.06-1.36-.04l-6.94-1.48c-.31-.07-.61-.17-.9-.31l-10.03-5.04c-.06-.03-.12-.06-.17-.09l-6.91-3.95c-.26-.15-.53-.26-.81-.34l-9.72-2.82c-.5-.14-1.02-.18-1.53-.11l-15.04,2.01-8.41,1.5c-.92.16-1.75.67-2.31,1.42l-5.6,7.4c-.13.17-.28.33-.43.48l-4.22,3.91c-.76.7-1.19,1.69-1.19,2.73h0c0,1.73,1.19,3.23,2.87,3.62l3.41.81c.28.07.57.1.86.1h20.05c.4,0,.8.06,1.18.19l6.26,2.09,3.14,1.14c.15.05.29.11.43.19l4.79,2.45c.44.22.91.36,1.4.4l37.99,2.98c2.01.16,3.41,2.29,3.62.28l1.75-16.67c.26-2.43,2.44-3.13.02-2.75Z"/><path class="cls-4" d="m751.35,389.21c-1.77-6.91-4.56-21.12,1.92-22.78l125.39-27.59c6.48-1.66,13.17,2.59,14.95,9.5l6.51,25.37c1.77,6.91-2.04,13.86-8.53,15.52l-117.75,7.74c-6.48,1.66-20.71-.85-22.49-7.76Z"/><rect class="cls-11" x="599.31" y="587.68" width="38.54" height="20.31" transform="translate(60.28 -56.65) rotate(5.51)"/><path class="cls-13" d="m650.63,596.94l-62.28-9.64,9.92-166.34c0-14.65,11.7-25.7,23.61-32.62,5.19-3.02,11.29-4.06,17.2-3.01l28.09,4.97-16.54,206.65Z"/><path class="cls-7" d="m946.17,499.6h-176.92c0-51.01,55.18-92.37,123.25-92.37h71.33l-17.66,92.37Z"/><path class="cls-8" d="m1037.11,293.88c-1.02-.97-3.87.62-5.25-.38-21.59-10.61-37.05-3.73-42.22,12.09-.19.56-.1-.21-.24.35l-43.23,189.03h-10.93l44.83-190.93c.06-.25.13-.51.21-.77.09-.31.18-.62.29-.93,5.17-15.82,26.9-28.61,48.49-18,4.43,3.22,6.89,6.24,8.06,9.54Z"/><rect class="cls-3" x="1005.63" y="282.68" width="48.11" height="16.98" rx="4.48" ry="4.48" transform="translate(115.03 -264.21) rotate(15.48)"/><rect class="cls-8" x="699.66" y="499.28" width="11.42" height="194.13"/><rect class="cls-8" x="711.07" y="499.28" width="224.16" height="14.89"/><rect class="cls-8" x="706.93" y="583.79" width="224.16" height="9.6"/><polygon class="cls-8" points="937.29 579.94 927.63 578.59 935.23 494.97 947.13 490.76 937.29 579.94"/><g id="Wheel"><g id="spaken"><rect class="cls-7" x="931.1" y="458.52" width="2.05" height="256.65"/><rect class="cls-7" x="930.07" y="458.07" width="2.05" height="256.65" transform="translate(190.24 -227.19) rotate(15.48)"/><rect class="cls-7" x="930.97" y="458.57" width="2.05" height="256.65" transform="translate(418.31 -387.37) rotate(30)"/><rect class="cls-7" x="930.3" y="457.66" width="2.05" height="256.65" transform="translate(696.06 -488.91) rotate(45.48)"/><rect class="cls-7" x="930.19" y="459.68" width="2.05" height="256.65" transform="translate(1022.82 -509.5) rotate(62.5)"/><rect class="cls-7" x="930.11" y="458.55" width="2.05" height="256.65" transform="translate(1311.2 -446.08) rotate(77.98)"/><rect class="cls-7" x="930.08" y="459.58" width="2.05" height="256.65" transform="translate(1605.73 -282.43) rotate(95.51)"/><rect class="cls-7" x="930.58" y="458.57" width="2.05" height="256.65" transform="translate(1826.32 -54.85) rotate(112.14)"/><rect class="cls-7" x="931.28" y="458.08" width="2.05" height="256.65" transform="translate(1969.47 215.76) rotate(128.17)"/><rect class="cls-7" x="930.45" y="458.67" width="2.05" height="256.65" transform="translate(2031.69 545.49) rotate(145.62)"/><rect class="cls-7" x="931.55" y="458.46" width="2.05" height="256.65" transform="translate(2004.96 839.82) rotate(161.1)"/></g><circle class="cls-15" cx="931.09" cy="586.39" r="10.55"/><path class="cls-3" d="m931.12,444.58c-78.81,0-142.71,63.89-142.71,142.71s63.9,142.71,142.71,142.71,142.71-63.9,142.71-142.71-63.89-142.71-142.71-142.71Zm0,271.48c-71.12,0-128.78-57.65-128.78-128.77s57.66-128.78,128.78-128.78,128.78,57.66,128.78,128.78-57.66,128.77-128.78,128.77Z"/></g><path class="cls-2" d="m931.66,458.35c-71.12,0-128.78,57.66-128.78,128.78s57.66,128.77,128.78,128.77,128.77-57.65,128.77-128.77-57.65-128.78-128.77-128.78Zm0,247.47c-65.56,0-118.7-53.14-118.7-118.69s53.14-118.7,118.7-118.7,118.7,53.14,118.7,118.7-53.15,118.69-118.7,118.69Z"/><circle class="cls-3" cx="705.37" cy="693.41" r="30.4"/><g id="shoe"><path class="cls-12" d="m638.03,629.43c-2.54,3.85-7,5.98-11.6,5.54l-19.75-1.91-39.01-3.76-12.25-1.18-17.99-1.74c-3.56-.34-6.8-2.2-8.89-5.09h0c-1.78-2.46-2.6-5.48-2.31-8.5l.18-1.82c.33-3.38,2.01-6.47,4.68-8.58l4.29-3.39c4.25-1.27,0,0,5.32-1.57l10.41-.4,15.2,1.47c1.64.16,3.3-.01,4.88-.5l18.05-5.58c3.5-1.08,7.3-.57,10.39,1.4l11.01,7.03c2.29,1.46,5,2.14,7.71,1.92l10.38-.84c6.4-.52,11.02-2.41,12.14,3.92l.47,16.89-1.16,3.45-2.14,3.24Z"/><rect class="cls-5" x="582.29" y="594.56" width="3.99" height="35.71" transform="translate(-163.02 214.97) rotate(-18.34)"/><rect class="cls-5" x="575.09" y="596.86" width="3.99" height="32.51" transform="translate(-163.61 212.73) rotate(-18.34)"/><rect class="cls-8" x="528.08" y="626.54" width="109.56" height="4.22" rx="1.28" ry="1.28" transform="translate(63.08 -53.08) rotate(5.51)"/></g><path class="cls-8" d="m711.61,514.17l-3.45,10.38c-24.36.91-46.05.97-62.87,50.99l-25.04,75.33-10.77-3.58,27.85-83.8c12.24-36.81,44.54-59.21,72.15-50.04l2.12.71Z"/><rect class="cls-3" x="553.07" y="631.61" width="81.01" height="17.62" rx="2.41" ry="2.41" transform="translate(64.26 -54.05) rotate(5.51)"/><polygon class="cls-7" points="644.91 380.74 638.91 383.14 588.35 254.13 594.35 251.73 644.91 380.74"/><path class="cls-3" d="m917.59,150.84c-.47,3.15-2.43,5.47-4.38,5.18s-3.13-3.08-2.66-6.24,2.53-5.43,4.48-5.13c.17.03-.53,3-.36,3.07s1.07-2.78,1.22-2.68c1.35.92,2.09,3.22,1.71,5.8Z"/><path class="cls-3" d="m892.07,150.65c-.55,3.14-2.56,5.42-4.49,5.08s-3.06-3.16-2.52-6.3c.55-3.14,2.66-5.37,4.59-5.03.17.03-.59,2.99-.43,3.06s1.13-2.76,1.28-2.65c1.33.95,2.02,3.27,1.57,5.84Z"/><path class="cls-14" d="m881.31,139.4l-.1-.1c-.72-.72-.63-1.91.18-2.53,2.14-1.64,4.66-2.61,7.26-2.77,2.58-.17,5.01.48,6.99,1.83.87.59.97,1.83.23,2.57l-.11.11c-.55.55-1.43.67-2.07.23-1.35-.92-3.02-1.36-4.82-1.24-1.89.12-3.73.83-5.32,2.03-.68.52-1.63.49-2.24-.12Z"/><path class="cls-14" d="m920.87,139.28c-2.5-2.33-6.57-2.66-10.07-.82-.78.41-1.75.22-2.27-.5h0c-.63-.87-.33-2.09.62-2.58,4.8-2.53,10.48-1.99,14.06,1.31.81.74.71,2.05-.18,2.69h0c-.65.47-1.57.46-2.16-.09Z"/><path class="cls-5" d="m889.14,185.59c5.01,7,16.36,7.44,25.4.98"/><path class="cls-14" d="m965.62,144.81c1.05-.26,1.78-1.18,1.78-2.23v-4.83l.12-4.49c.11-4.05-.25-8.11-1.09-12.08l-.2-2.56c-.24-3.07-.99-6.08-2.27-8.89-.09-.2-.15-.33-.18-.37l-6.25-9.28c-1.05-1.56-2.37-2.92-3.91-4.02l-5.24-3.76c-2.1-1.51-10.37-4.79-12.87-5.48l-4.67-.75c-1.39-.38-2.82-.61-4.27-.68-15.33-.73-10.28-.37-20.34.56-1.24.12-3.22.55-4.4.94-4.79,1.62-8.31,2.6-11.07,3.49-5.93,1.91-10.36,6.83-11.54,12.84-.47,2.38.03,1.6-.32,5.07-.43,4.21,0,5.45,0,5.45l-.19.93c.23-.02,3.3-1.58,3.51-1.66l3.32-.64c.2-.08.42-.14.64-.16l14.37-1.58,15.34-2.45c.18-.03.35-.04.53-.03,2.45.13,4.87.66,7.14,1.59,2.12.86,5.37,2.18,10.21,4.13.29.12,4.13,1.07,4.41,1.2,2.65,1.27,2.47-.47,6.87,8.67,5.05,10.51,3.4,5.14,5.05,10.51,1.38,4.47,2.02,8.18,1.28,12.13s-2.98,8.62-3.35,11.14c-.11.75.15,1.31.56,1.71,1.11,1.07,3,.64,3.67-.73l2-4.08c.07-.14.15-.27.25-.4l5.69-7.35c.32-.42.78-.71,1.3-.84l4.12-1.01Z"/><path class="cls-1" d="m952.51,187.49c-4.58,7.86-10.72,13.18-22.65,22.01-7.59,5.63-17.24,8.04-26.55,6.26l-.13-.03v-3.78s.05,0,.08.02c9.82,1.79,19.99-.63,27.99-6.25,10.45-7.36,16.69-12.27,21.27-18.24Z"/><ellipse class="cls-10" cx="962.12" cy="154.4" rx="13.44" ry="7.94" transform="translate(556.58 1040.44) rotate(-74.52)"/><path class="cls-9" d="m964.78,155.16c-.76,3.48-2.94,5.97-4.87,5.54s.61-2.82,1.37-6.31c.76-3.48-.56-6.73,1.37-6.31s2.89,3.58,2.13,7.07Z"/><polygon class="cls-2" points="954.68 218.2 892.82 241.29 898.03 222.86 950.17 205.01 954.68 218.2"/><path class="cls-1" d="m960.93,290.25l-16.71,36.12c-4.11,6.72-39.96,50.99-47.12,53.44,1.88-1.9,3.55-4.02,4.97-6.36l49.3-80.65c10.27-16.79,4.17-38.24-13.59-47.93l-.93-.5c-1.58-.87-3.2-1.6-4.85-2.22,5.26.19,10.53,1.56,15.4,4.21l1.28.69c16,8.73,19.4,14.36,12.25,43.19Z"/><path class="cls-1" d="m892.68,275.12l-43.25,62.54,36.76-64.66c1.23-2.46,3.49-.81,6.49,2.12Z"/><polygon class="cls-16" points="661.73 456.65 657.23 429.92 651.38 422.27 661.73 456.65"/><polygon class="cls-16" points="660.32 457.12 640.85 453.41 638.25 451.12 660.32 457.12"/><path class="cls-1" d="m882.16,114.62l-.17.88c.02-.43.04-.9.08-1.44.04.4.1.56.1.56Z"/><path class="cls-1" d="m951.71,141.23c.06,1,.04,1.98-.06,2.98-.09-.97-.24-1.96-.46-2.98-.25-1.22-.59-2.5-1-3.84-1.62-5.38,0,0-4.94-10.51-4.31-9.15-4.14-7.4-6.73-8.67-.27-.14-4.04-1.09-4.32-1.21-4.73-1.94-7.92-3.26-9.99-4.13-2.23-.93-4.59-1.46-6.99-1.58-.17,0-.35,0-.52.03l-15.01,2.45-14.07,1.58c-.22.02-.43.08-.63.16l-3.25.65c-.21.08-3.21,1.63-3.44,1.66l.18-.94s-.24-.69-.17-2.82c.26-.05,3.22-1.57,3.43-1.66l3.25-.65c.2-.08.41-.14.63-.16l14.07-1.58,15.01-2.45c.17-.03.35-.04.52-.03,2.4.12,4.76.66,6.99,1.58,2.07.87,5.26,2.19,9.99,4.13.28.12,4.05,1.07,4.32,1.21,2.6,1.27,2.42-.48,6.73,8.67,4.94,10.51,3.32,5.13,4.94,10.51.83,2.74,1.38,5.19,1.52,7.59Z"/><path class="cls-1" d="m881.97,115.56v-.05s0,.05,0,.05h0Z"/><path class="cls-1" d="m953.32,145.7c-.09-.97-.24-1.96-.46-2.98h.52c.06,1,.04,1.98-.06,2.98Z"/><path class="cls-1" d="m907.93,407.24c-34.03,0-64.84,10.33-87.16,27.06-22.3,16.71-36.1,39.81-36.1,65.31h-16.79c0-25.5,13.8-48.6,36.1-65.31,22.3-16.72,53.12-27.06,87.16-27.06h16.79Z"/><circle class="cls-15" cx="705.37" cy="693.41" r="22.55"/><path class="cls-6" d="m894.34,173.52c-1.82,0-3.18-.4-4.09-1.2-3.16-2.77-1.13-6.72,7.95-18.01l2.69-2.24c-11.86,14.74-10,18.33-9.15,19.08.74.65.86,2.84,7.93.6l2.91.15c-3.4,1.08-6.14,1.62-8.25,1.62Z"/></g></g></svg>