<?xml version="1.0" encoding="UTF-8"?><svg id="Layer_2" xmlns="http://www.w3.org/2000/svg" viewBox="0 0 1600 800"><defs><style>.cls-1{opacity:.1;}.cls-2{fill:#f7f9f9;}.cls-3{fill:#033145;}.cls-4{fill:#efeeec;}.cls-5{fill:#055b82;}.cls-6{fill:#099fdb;}.cls-7{opacity:.5;}</style></defs><g id="Layer_1-2"><rect class="cls-2" width="1600" height="800"/><g><g><g><path class="cls-6" d="m1192.15,195.27l-233.33-.02c0,.05,0,.11,0,.16,0,7.7-6.25,13.94-13.94,13.94s-13.94-6.25-13.94-13.95c0-.05,0-.11,0-.16l-600.48-.04c-22.8,0-41.32,21.16-41.32,47.23v65.67s944.32.07,944.32.07v-65.67c0-26.07-18.5-47.23-41.32-47.23Zm-247.27,81.66c-7.7,0-13.94-6.25-13.94-13.94,0-7.69,6.25-13.94,13.94-13.94,7.69,0,13.94,6.25,13.94,13.94s-6.25,13.94-13.94,13.94Z"/><path class="cls-4" d="m289.15,309.02v110.14c.87-.05,1.75-.09,2.64-.09,24.36,0,44.1,19.74,44.1,44.1s-19.74,44.1-44.1,44.1c-.89,0-1.78-.03-2.65-.08v114.9c0,26.07,18.5,47.23,41.31,47.23l600.51.04c-.02-.32-.05-.63-.05-.95,0-7.7,6.25-13.94,13.95-13.94s13.94,6.25,13.94,13.94c0,.32-.03.64-.05.96l233.37.02c22.82,0,41.33-21.16,41.33-47.23l.02-313.07-944.32-.07Zm655.71,305.76c-7.7,0-13.95-6.25-13.95-13.95,0-7.69,6.25-13.94,13.95-13.94,7.7,0,13.94,6.25,13.94,13.94,0,7.7-6.25,13.94-13.94,13.94Zm0-67.57c-7.7,0-13.94-6.25-13.94-13.94s6.25-13.94,13.94-13.94c7.7,0,13.94,6.25,13.94,13.94,0,7.7-6.25,13.94-13.94,13.94Zm0-67.57c-7.7,0-13.95-6.25-13.94-13.95,0-7.69,6.25-13.94,13.95-13.94s13.94,6.25,13.94,13.94c0,7.7-6.25,13.95-13.94,13.95Zm0-67.57c-7.7,0-13.94-6.25-13.94-13.94s6.25-13.94,13.95-13.94,13.94,6.25,13.94,13.94-6.25,13.95-13.94,13.94Zm0-67.57c-7.7,0-13.94-6.25-13.94-13.94,0-7.69,6.25-13.94,13.94-13.94s13.94,6.25,13.94,13.94c0,7.7-6.25,13.94-13.94,13.94Z"/></g><path class="cls-6" d="m420.49,468.03l-24.59-35.61-12.94,2.79,10.45,44.24.11.25c.64,1.23,4.33,6.63,21.07,10.2,8.66,1.85,27.1,3.05,47.53,3.84l1.84,9.1-13.07,65.46,10.45,2.85,41.75-76.35c15.72.26,29.4.33,37.08.34h1.54c4.09,0,7.65-.46,10.73-1.24,10.97-2.38,18.66-7.95,18.66-14.44,0-6.49-7.71-12.07-18.7-14.45-3.07-.76-6.61-1.23-10.68-1.23h-1.54c-7.68,0-21.36.08-37.08.34l-41.74-76.36-10.45,2.85,13.06,65.47-1.84,9.1c-16.58.63-31.84,1.54-41.64,2.85Z"/></g><g class="cls-7"><g><g class="cls-1"><path class="cls-3" d="m1188.05,116.18l-229.82,40.3c0,.05.02.1.03.15,1.33,7.58-3.74,14.81-11.32,16.14-7.58,1.33-14.81-3.75-16.14-11.32-.01-.06-.01-.11-.02-.16l-591.45,103.72c-22.46,3.94-37.04,27.98-32.54,54.59l11.34,64.68,930.13-164.05-11.34-64.68c-4.51-25.67-26.39-43.32-48.87-39.38Zm-229.44,123.16c-7.59,1.33-14.82-3.74-16.15-11.32-1.33-7.58,3.75-14.81,11.33-16.14,7.58-1.33,14.81,3.75,16.14,11.32,1.33,7.58-3.74,14.81-11.32,16.14Z"/></g><g class="cls-1"><path class="cls-3" d="m318.29,384.26l19.03,108.49c.85-.2,1.72-.39,2.59-.54,23.99-4.21,46.85,11.83,51.06,35.82,4.21,23.99-11.83,46.85-35.82,51.06-.88.15-1.76.27-2.63.37l15.45,88.09,53.31,1.13c4.51,25.68,81.69,4.88,104.16.94l246.8.84,240.47-42.17c-.08-.31-.15-.62-.21-.93-1.33-7.58,3.75-14.81,11.33-16.14,7.58-1.33,14.81,3.75,16.14,11.32.05.32.08.64.12.95l193.81-33.63c-2.82-51.61,1.69-82.23-2.82-107.91l17.34-260.8-930.12,163.11Zm698.68,187.86c-7.58,1.33-14.81-3.75-16.15-11.33-1.33-7.58,3.74-14.81,11.33-16.14,7.58-1.33,14.81,3.74,16.14,11.32,1.33,7.58-3.74,14.82-11.32,16.14Zm-11.67-66.56c-7.58,1.33-14.81-3.75-16.14-11.33-1.33-7.58,3.75-14.81,11.33-16.15,7.58-1.33,14.81,3.75,16.14,11.33,1.33,7.58-3.74,14.81-11.32,16.15Zm-11.67-66.55c-7.58,1.33-14.81-3.75-16.14-11.33-1.33-7.58,3.75-14.81,11.33-16.14,7.58-1.33,14.81,3.75,16.14,11.33,1.33,7.58-3.74,14.81-11.32,16.15Zm-11.67-66.56c-7.58,1.33-14.81-3.74-16.14-11.33-1.33-7.58,3.75-14.81,11.33-16.14,7.58-1.33,14.81,3.74,16.14,11.32,1.33,7.58-3.74,14.81-11.32,16.14Zm-11.67-66.56c-7.58,1.33-14.81-3.74-16.14-11.32-1.33-7.58,3.75-14.81,11.32-16.14,7.58-1.33,14.81,3.75,16.14,11.32,1.33,7.58-3.75,14.82-11.32,16.14Z"/></g></g></g><g><path class="cls-6" d="m1205.7,94.36l-229.82,40.3c0,.05.02.1.03.16,1.33,7.58-3.75,14.81-11.32,16.14-7.58,1.33-14.81-3.75-16.14-11.33-.01-.05-.01-.1-.02-.16l-591.45,103.72c-22.46,3.94-37.04,27.98-32.54,53.66l11.34,64.68,930.13-163.12-11.34-64.68c-4.5-25.68-26.39-43.32-48.87-39.38Zm-229.44,123.16c-7.58,1.33-14.81-3.74-16.14-11.32-1.33-7.58,3.75-14.81,11.33-16.14,7.58-1.33,14.81,3.74,16.14,11.32,1.33,7.58-3.75,14.81-11.32,16.14Z"/><path class="cls-4" d="m335.94,362.44l19.03,108.49c.85-.2,1.72-.39,2.59-.54,23.99-4.21,46.85,11.83,51.06,35.82,4.21,23.99-11.83,46.85-35.82,51.06-.88.15-1.76.27-2.63.37l19.85,113.17c4.51,25.68,26.39,43.33,48.86,39.38l591.48-103.73c-.07-.31-.16-.62-.21-.93-1.33-7.58,3.75-14.81,11.33-16.14,7.58-1.33,14.81,3.75,16.14,11.32.05.32.09.63.12.95l229.86-40.31c22.48-3.94,37.05-27.98,32.55-53.66l-54.08-308.36-930.12,163.11Zm698.68,187.86c-7.58,1.33-14.81-3.75-16.14-11.33-1.33-7.58,3.74-14.81,11.33-16.14,7.58-1.33,14.81,3.74,16.14,11.32,1.33,7.58-3.74,14.81-11.32,16.15Zm-11.67-66.56c-7.58,1.33-14.81-3.75-16.14-11.33-1.33-7.58,3.74-14.81,11.33-16.14,7.58-1.33,14.81,3.75,16.14,11.33,1.33,7.58-3.74,14.81-11.32,16.15Zm-11.67-66.56c-7.58,1.33-14.82-3.75-16.14-11.33-1.33-7.58,3.75-14.81,11.33-16.14,7.58-1.33,14.81,3.75,16.14,11.33,1.33,7.58-3.75,14.81-11.32,16.15Zm-11.67-66.56c-7.58,1.33-14.81-3.74-16.14-11.33-1.33-7.58,3.75-14.81,11.33-16.14,7.58-1.33,14.81,3.75,16.14,11.32,1.33,7.58-3.74,14.82-11.32,16.15Zm-11.67-66.56c-7.58,1.33-14.81-3.74-16.14-11.33-1.33-7.58,3.74-14.81,11.32-16.14,7.58-1.33,14.81,3.75,16.14,11.32,1.33,7.58-3.74,14.82-11.32,16.14Z"/></g><g><rect class="cls-5" x="1261.3" y="520.3" width="60.64" height="1.85" transform="translate(-70.63 230.99) rotate(-9.95)"/><rect class="cls-5" x="1260.46" y="515.52" width="60.64" height="1.85" transform="translate(-69.82 230.8) rotate(-9.95)"/><rect class="cls-5" x="1257.87" y="500.74" width="60.64" height="1.85" transform="translate(-67.31 230.17) rotate(-9.95)"/><rect class="cls-5" x="1256.54" y="490.96" width="60.64" height="3.81" transform="translate(-65.8 229.73) rotate(-9.95)"/><rect class="cls-5" x="1253.37" y="472.88" width="60.64" height="3.81" transform="translate(-62.73 228.95) rotate(-9.95)"/><rect class="cls-5" x="1248.41" y="444.57" width="60.64" height="3.81" transform="translate(-57.91 227.66) rotate(-9.95)"/><rect class="cls-5" x="1245.36" y="427.17" width="60.64" height="3.81" transform="translate(-54.95 226.88) rotate(-9.95)"/><rect class="cls-5" x="1242.04" y="408.3" width="60.64" height="3.81" transform="translate(-51.74 226.02) rotate(-9.95)"/><rect class="cls-5" x="1239.71" y="395" width="60.64" height="3.81" transform="translate(-49.49 225.47) rotate(-9.95)"/><rect class="cls-5" x="1235.17" y="369.08" width="60.64" height="3.81" transform="translate(-45.06 224.22) rotate(-9.95)"/><rect class="cls-5" x="1232.12" y="351.68" width="60.64" height="3.81" transform="translate(-42.1 223.42) rotate(-9.95)"/><rect class="cls-5" x="1228.29" y="329.85" width="60.64" height="3.81" transform="translate(-38.39 222.48) rotate(-9.95)"/><rect class="cls-5" x="1225.96" y="316.55" width="60.64" height="3.81" transform="translate(-36.13 221.85) rotate(-9.95)"/><rect class="cls-5" x="1220.97" y="288.13" width="60.64" height="3.81" transform="translate(-31.29 220.59) rotate(-9.95)"/><rect class="cls-5" x="1219.02" y="276.98" width="60.64" height="3.81" transform="translate(-29.4 220.09) rotate(-9.95)"/><rect class="cls-5" x="1213.72" y="244.43" width="60.64" height="8.54" transform="translate(-24.26 218.68) rotate(-9.95)"/><rect class="cls-5" x="1259.15" y="504.67" width="60.64" height="8.54" transform="translate(-68.56 230.52) rotate(-9.95)"/><rect class="cls-5" x="1255.16" y="484.04" width="60.64" height="1.84" transform="translate(-64.47 229.45) rotate(-9.95)"/><rect class="cls-5" x="1254.4" y="479.72" width="60.64" height="1.84" transform="translate(-63.73 229.26) rotate(-9.95)"/><rect class="cls-5" x="1251.69" y="464.25" width="60.64" height="1.85" transform="translate(-61.09 228.47) rotate(-9.95)"/><rect class="cls-5" x="1250.93" y="459.93" width="60.64" height="1.85" transform="translate(-60.36 228.32) rotate(-9.95)"/><rect class="cls-5" x="1249.85" y="453.79" width="60.64" height="1.85" transform="translate(-59.32 228.09) rotate(-9.95)"/><rect class="cls-5" x="1247.06" y="437.88" width="60.64" height="1.85" transform="translate(-56.61 227.32) rotate(-9.95)"/><rect class="cls-5" x="1246.34" y="433.78" width="60.64" height="1.85" transform="translate(-55.91 227.12) rotate(-9.95)"/><rect class="cls-5" x="1243.95" y="420.14" width="60.64" height="1.85" transform="translate(-53.6 226.57) rotate(-9.95)"/><rect class="cls-5" x="1243.27" y="416.28" width="60.64" height="1.85" transform="translate(-52.93 226.35) rotate(-9.95)"/><rect class="cls-5" x="1240.76" y="401.95" width="60.64" height="1.85" transform="translate(-50.49 225.69) rotate(-9.95)"/><rect class="cls-5" x="1238.45" y="388.76" width="60.64" height="1.85" transform="translate(-48.25 225.11) rotate(-9.95)"/><rect class="cls-5" x="1237.61" y="383.99" width="60.64" height="1.84" transform="translate(-47.44 224.9) rotate(-9.95)"/><rect class="cls-5" x="1236.53" y="377.85" width="60.64" height="1.85" transform="translate(-46.4 224.62) rotate(-9.95)"/><rect class="cls-5" x="1233.82" y="362.38" width="60.64" height="1.85" transform="translate(-43.76 223.9) rotate(-9.95)"/><rect class="cls-5" x="1233.06" y="358.06" width="60.64" height="1.85" transform="translate(-43.03 223.74) rotate(-9.95)"/><rect class="cls-5" x="1230.39" y="342.83" width="60.64" height="1.85" transform="translate(-40.43 222.99) rotate(-9.95)"/><rect class="cls-5" x="1229.55" y="338.05" width="60.64" height="1.85" transform="translate(-39.62 222.82) rotate(-9.95)"/><rect class="cls-5" x="1226.88" y="322.82" width="60.64" height="1.85" transform="translate(-37.03 222.1) rotate(-9.95)"/><rect class="cls-5" x="1225.01" y="312.13" width="60.64" height="1.85" transform="translate(-35.21 221.64) rotate(-9.95)"/><rect class="cls-5" x="1224.29" y="308.03" width="60.64" height="1.85" transform="translate(-34.52 221.46) rotate(-9.95)"/><rect class="cls-5" x="1222.74" y="299.17" width="60.64" height="1.84" transform="translate(-33.01 221.05) rotate(-9.95)"/><rect class="cls-5" x="1219.98" y="283.48" width="60.64" height="1.85" transform="translate(-30.34 220.34) rotate(-9.95)"/><rect class="cls-5" x="1217.71" y="270.52" width="60.64" height="1.85" transform="translate(-28.13 219.74) rotate(-9.95)"/><rect class="cls-5" x="1216.95" y="266.2" width="60.64" height="1.85" transform="translate(-27.4 219.55) rotate(-9.95)"/><rect class="cls-5" x="1215.84" y="259.83" width="60.64" height="1.85" transform="translate(-26.31 219.26) rotate(-9.95)"/><rect class="cls-5" x="1215" y="255.05" width="60.64" height="1.85" transform="translate(-25.5 219.06) rotate(-9.95)"/><rect class="cls-5" x="1212.37" y="240.05" width="60.64" height="1.85" transform="translate(-22.95 218.37) rotate(-9.95)"/></g><path class="cls-6" d="m492.78,496.36l-30.37-30.82-12.26,4.99,17.94,41.77.16.23c.84,1.1,5.41,5.79,22.52,6.41,8.85.32,27.22-1.67,47.48-4.43l3.38,8.64-1.56,66.74,10.79,1,27.93-82.42c15.52-2.46,29.02-4.76,36.58-6.07l.55-.1.97-.17c4.03-.71,7.45-1.78,10.35-3.08,10.39-4.24,17-11.05,15.89-17.45-1.12-6.39-9.68-10.56-20.92-11-3.15-.22-6.72-.07-10.73.64l-1.52.27c-7.56,1.33-21.03,3.77-36.46,6.74l-54.31-68-9.8,4.61,24.18,62.23-.24,9.28c-16.22,3.49-31.1,7.02-40.52,10Z"/></g></g></svg>