<?xml version="1.0" encoding="UTF-8"?><svg id="Layer_2" xmlns="http://www.w3.org/2000/svg" xmlns:xlink="http://www.w3.org/1999/xlink" viewBox="0 0 1600 800"><defs><style>.cls-1{fill:#003145;opacity:.1;}.cls-1,.cls-2,.cls-3,.cls-4,.cls-5,.cls-6{fill-rule:evenodd;}.cls-7{clip-path:url(#clippath);}.cls-8{fill:#f7f9f9;}.cls-9{fill:#003045;}.cls-10{fill:#046084;}.cls-11{fill:#f0eeee;}.cls-12{fill:#b6b6b8;}.cls-13{fill:#d8dbdb;}.cls-14{clip-rule:evenodd;}.cls-14,.cls-15,.cls-16,.cls-17{fill:none;}.cls-18{clip-path:url(#clippath-1);}.cls-19{clip-path:url(#clippath-3);}.cls-20{clip-path:url(#clippath-2);}.cls-21{opacity:.4;}.cls-22{opacity:.5;}.cls-23{opacity:.7;}.cls-15{stroke-linecap:round;}.cls-15,.cls-16{stroke:#046084;}.cls-15,.cls-16,.cls-17{stroke-miterlimit:10;stroke-width:1.22px;}.cls-17{stroke:#00a2dd;}.cls-2{fill:#f7fafb;}.cls-3{fill:#d2d7d9;}.cls-4{fill:#00a1de;}.cls-5{fill:#9da1a2;}.cls-6{fill:#005b82;}</style><clipPath id="clippath"><path class="cls-14" d="m854.58,274.71l-31.89-40.73,13.61-4.99,45.65,20.03,23.19-.56c4.26-2.07,8.38-4.03,12.26-5.8,30.94-14.12,141.37-63.57,153.71-66.65,12.33-3.07,20.27-.88,25.57.52,0,0,16.67,1.86,16.82,5.76.15,3.9-18.94,14.04-37.06,22.85-18.12,8.8-86.12,39.39-115.34,51.38-29.22,11.99-106.49,29.03-120.68,29.2l-1-2.7s6.02-3.36,15.16-8.32Z"/></clipPath><clipPath id="clippath-1"><path class="cls-14" d="m843.43,275.36l14.73-5.34,26.15-3.62s-1.52,3.52-12.63,7.78c-11.11,4.25-16.47,4.11-16.47,4.11l-11.79-2.92Z"/></clipPath><clipPath id="clippath-2"><path class="cls-14" d="m931.23,232.21l12.99,11.05,30.61.96s12.81.83,34.28-8.35c18.77-8.03,29.57-14.87,32.53-17.18,0,0-3.68-5.89-17.27-3.01-18.57,3.94-70.65,19.52-70.65,19.52l-15.05-3.59s-4.31-.78-7.43.6Z"/></clipPath><clipPath id="clippath-3"><path class="cls-14" d="m1008.89,230.45l-.64-1.18s6.21-4.7,10.96-7.09c4.76-2.39,9.97-3.3,11.85-2.66,0,0,4.79,5.7,3.68,11.08,0,0-10.62,7.65-21.11,8.52l-.53-.96-8.06,2.06-.43-.82c-1.92.43-7.04,1.56-7.83,1.5-.8-.06,4.07-3.71,5.94-5.09l-.37-.71,6.54-4.65Z"/></clipPath></defs><g id="Layer_1-2"><rect class="cls-8" width="1600" height="800"/><g><g><polygon class="cls-11" points="655.93 694.35 578.68 694.35 578.68 385.79 654.32 385.79 655.93 694.35"/><polygon class="cls-13" points="625.43 694.35 578.62 694.35 577.01 385.79 631.88 385.79 625.43 694.35"/><rect class="cls-11" x="451.68" y="684.08" width="331.25" height="35.92"/><polygon class="cls-9" points="680.99 146.35 558.35 146.35 574.91 199.25 664.43 199.25 680.99 146.35"/><g class="cls-21"><polygon class="cls-10" points="619.67 146.35 619.25 165.17 659.72 165.17 652.9 189.24 667.57 190.59 680.99 146.35 619.67 146.35"/></g><line class="cls-15" x1="651.29" y1="189.24" x2="664.43" y2="190.59"/><line class="cls-15" x1="576.77" y1="154.41" x2="585.36" y2="184.81"/><polyline class="cls-15" points="601.5 189.24 652.9 189.24 652.9 189.24"/><line class="cls-15" x1="619.25" y1="150.81" x2="619.25" y2="194.38"/><polygon class="cls-9" points="708.33 257.83 621.39 251.79 621.39 251.31 617.91 251.55 614.43 251.31 614.43 251.79 527.49 257.83 549.1 343.13 614.43 349.3 614.43 349.96 617.91 349.63 621.39 349.96 621.39 349.3 686.72 343.13 708.33 257.83"/><polygon class="cls-11" points="725.9 233.64 510.21 233.64 518.33 268.98 716.17 268.98 725.9 233.64"/><path class="cls-11" d="m651.09,97.32c5.07,16.77-4.88,34.62-22.24,39.86-17.35,5.25-35.53-4.09-40.6-20.86-5.07-16.77,4.89-34.62,22.24-39.87,17.35-5.25,35.53,4.1,40.6,20.87Z"/><rect class="cls-12" x="563.89" y="370.43" width="105.78" height="15.35"/><polygon class="cls-9" points="714.36 276.92 521.75 276.92 534.6 327.42 699.9 327.42 714.36 276.92"/><polygon class="cls-11" points="700.83 335.08 536.9 335.08 544.23 370.43 691.88 370.43 700.83 335.08"/><g class="cls-22"><polygon class="cls-10" points="600.01 276.92 602.99 327.42 699.9 327.42 714.36 276.92 600.01 276.92"/></g><line class="cls-16" x1="567.16" y1="278.53" x2="571.62" y2="309.87"/><line class="cls-17" x1="600.01" y1="278.53" x2="602.46" y2="317.43"/><line class="cls-17" x1="669.49" y1="278.53" x2="662.77" y2="325.8"/><line class="cls-17" x1="636.65" y1="278.53" x2="633.66" y2="324.19"/><g class="cls-23"><polyline class="cls-17" points="585.36 297.92 666.41 297.92 706.69 300.95"/></g><polyline class="cls-16" points="527.8 300.7 558.14 297.92 600.01 297.92"/><path class="cls-13" d="m592.1,124.49s-4.74-8.92-4.74-14.71c0-10.31,8.36-17.06,18.67-17.06s18.67,6.75,18.67,17.06c0,5.8-2.64,10.98-6.79,14.41h28.52l34.55,13.51,1.61,8.66h-124.25l3.23-8.66,30.53-13.2Z"/><polygon class="cls-13" points="543.03 216.32 574.32 216.32 574.32 199.25 665.03 199.25 665.03 216.32 693.08 216.32 725.9 233.64 510.21 233.64 543.03 216.32"/><polygon class="cls-11" points="580.4 216.32 617.64 216.32 616.03 199.25 666.64 199.25 666.64 216.32 694.69 216.32 725.9 233.64 562.4 233.64 580.4 216.32"/><path class="cls-15" d="m671.11,168.47c-3-.73-3.99-1.42-6.41-2.22-4.84-1.34-40.34-.81-45.45-1.08-14.12-.32-32.28-.85-39.47-.1l-7.19.75"/><line class="cls-15" x1="664.38" y1="147.69" x2="650.12" y2="197.18"/></g><g><polygon class="cls-11" points="655.93 694.35 578.68 694.35 578.68 385.79 654.32 385.79 655.93 694.35"/><polygon class="cls-13" points="625.43 694.35 578.62 694.35 577.01 385.79 631.88 385.79 625.43 694.35"/><rect class="cls-11" x="451.68" y="684.08" width="331.25" height="35.92"/><polygon class="cls-9" points="680.99 146.35 558.35 146.35 574.91 199.25 664.43 199.25 680.99 146.35"/><g class="cls-21"><polygon class="cls-10" points="619.67 146.35 619.25 165.17 659.72 165.17 652.9 189.24 667.57 190.59 680.99 146.35 619.67 146.35"/></g><line class="cls-15" x1="651.29" y1="189.24" x2="664.43" y2="190.59"/><line class="cls-15" x1="576.77" y1="154.41" x2="585.36" y2="184.81"/><polyline class="cls-15" points="601.5 189.24 652.9 189.24 652.9 189.24"/><line class="cls-15" x1="619.25" y1="150.81" x2="619.25" y2="194.38"/><polygon class="cls-9" points="708.33 257.83 621.39 251.79 621.39 251.31 617.91 251.55 614.43 251.31 614.43 251.79 527.49 257.83 549.1 343.13 614.43 349.3 614.43 349.96 617.91 349.63 621.39 349.96 621.39 349.3 686.72 343.13 708.33 257.83"/><polygon class="cls-11" points="725.9 233.64 510.21 233.64 518.33 268.98 716.17 268.98 725.9 233.64"/><path class="cls-11" d="m651.09,97.32c5.07,16.77-4.88,34.62-22.24,39.86-17.35,5.25-35.53-4.09-40.6-20.86-5.07-16.77,4.89-34.62,22.24-39.87,17.35-5.25,35.53,4.1,40.6,20.87Z"/><rect class="cls-12" x="563.89" y="370.43" width="105.78" height="15.35"/><polygon class="cls-9" points="714.36 276.92 521.75 276.92 534.6 327.42 699.9 327.42 714.36 276.92"/><polygon class="cls-11" points="700.83 335.08 536.9 335.08 544.23 370.43 691.88 370.43 700.83 335.08"/><g class="cls-22"><polygon class="cls-10" points="600.01 276.92 602.99 327.42 699.9 327.42 714.36 276.92 600.01 276.92"/></g><line class="cls-16" x1="567.16" y1="278.53" x2="571.62" y2="309.87"/><line class="cls-17" x1="600.01" y1="278.53" x2="602.46" y2="317.43"/><line class="cls-17" x1="669.49" y1="278.53" x2="662.77" y2="325.8"/><line class="cls-17" x1="636.65" y1="278.53" x2="633.66" y2="324.19"/><g class="cls-23"><polyline class="cls-17" points="585.36 297.92 666.41 297.92 706.69 300.95"/></g><polyline class="cls-16" points="527.8 300.7 558.14 297.92 600.01 297.92"/><path class="cls-13" d="m592.1,124.49s-4.74-8.92-4.74-14.71c0-10.31,8.36-17.06,18.67-17.06s18.67,6.75,18.67,17.06c0,5.8-2.64,10.98-6.79,14.41h28.52l34.55,13.51,1.61,8.66h-124.25l3.23-8.66,30.53-13.2Z"/><polygon class="cls-13" points="543.03 216.32 574.32 216.32 574.32 199.25 665.03 199.25 665.03 216.32 693.08 216.32 725.9 233.64 510.21 233.64 543.03 216.32"/><polygon class="cls-11" points="580.4 216.32 617.64 216.32 616.03 199.25 666.64 199.25 666.64 216.32 694.69 216.32 725.9 233.64 562.4 233.64 580.4 216.32"/><path class="cls-15" d="m671.11,168.47c-3-.73-3.99-1.42-6.41-2.22-4.84-1.34-40.34-.81-45.45-1.08-14.12-.32-32.28-.85-39.47-.1l-7.19.75"/><line class="cls-15" x1="664.38" y1="147.69" x2="650.12" y2="197.18"/></g><g><path class="cls-4" d="m854.58,274.71l-31.89-40.73,13.61-4.99,45.65,20.03,23.19-.56c4.26-2.07,8.38-4.03,12.26-5.8,30.94-14.12,141.37-63.57,153.71-66.65,12.33-3.07,20.27-.88,25.57.52,0,0,16.67,1.86,16.82,5.76.15,3.9-18.94,14.04-37.06,22.85-18.12,8.8-86.12,39.39-115.34,51.38-29.22,11.99-106.49,29.03-120.68,29.2l-1-2.7s6.02-3.36,15.16-8.32Z"/><g class="cls-7"><path class="cls-2" d="m838.19,284.84s20.3-1.15,55.9-16c35.6-14.85,125.04-55.9,137.82-60.05,12.78-4.14,49.23-14.28,62.55-19.26,13.32-4.98,20.53-9.95,20.53-9.95l-1.56,10.18s-81.14,43.74-112.77,57.1c-31.63,13.36-124.51,41.3-124.51,41.3,0,0-38.64,10.39-37.97-3.33Z"/><polygon class="cls-2" points="854.42 274.51 905.34 248.39 836.02 224.48 819.8 233.18 854.42 274.51"/><path class="cls-6" d="m839.28,284.6s27.25-5.31,43.74-11.89c16.49-6.58,75.96-32.86,84.89-36.74,8.94-3.88,59.64-26.49,66.52-28.5,6.88-2.01,44.73-12.65,60.09-18.66,15.37-6.01,19.21-8.66,19.21-8.66l1.25,1.53s-6.59,4.92-29.8,12.81c-23.21,7.89-46.27,12.91-57.32,17.41-11.05,4.5-78.42,34.09-84.79,37.13-6.37,3.04-49.26,21.78-63.84,27.2-14.58,5.42-35.5,9.17-40.13,10.18l.17-1.8Z"/><path class="cls-5" d="m854.32,274.72s3.45,6.35.08,10.96c-3.37,4.61-15.05.95-15.05.95l-1.53-4.93,16.51-6.99Z"/><path class="cls-6" d="m1087.43,174.31l-7.37,3.54,2.43,4.16,13.89-6.22s-4.41-2.52-8.95-1.48Z"/><path class="cls-4" d="m853.54,242.87l.73-.34.26.61-.7.3.38.76-.66.34-.35-.83-.71.31-.28-.54.75-.34-.29-.69.53-.26.34.68Zm-1.29,2.33c.67-.29,1.44,0,1.72.64s-.03,1.41-.7,1.7-1.44,0-1.72-.64.03-1.4.7-1.7Zm-3.01,1.28c.68-.3,1.47,0,1.76.65s-.03,1.44-.72,1.74-1.48,0-1.76-.65.03-1.44.72-1.74Zm9.08-4.01c.7-.3,1.5,0,1.8.67s-.04,1.47-.73,1.77-1.5,0-1.8-.67.03-1.47.73-1.77Zm-3.02,1.38c.7-.3,1.5,0,1.79.67s-.03,1.46-.73,1.77-1.5,0-1.79-.67.03-1.46.73-1.77Zm-4.81,5.29l.81,1.21,8.89-3.79-.59-1.36-9.1,3.94Zm-6.28,6.25l2.48,5.51,2.18-.96-.85-2.1,3.3,1,2.53-1.12-4.35-1.7,1.33-3.53-1.98.81-1.41,2.9-.94-1.81-2.29,1Zm16.05-.35l-5.84,2.55-2.51-5.64,2.19-.88,1.86,4.09,3.7-1.45.6,1.33Zm1.07-.5l-2.5-5.57,3.47-1.48,2.62,2.66-.02-3.77,3.47-1.47,2.53,5.54-2.09.81-1.98-3.93.36,4.71-2.18.87-3.46-3.41,1.87,4.14-2.09.89Z"/><path class="cls-1" d="m883.9,266.7l-33.74,12.62s2.67,2.09,13.56-1.33c10.89-3.42,17.7-8.48,20.18-11.29Z"/></g><path class="cls-3" d="m843.43,275.36l14.73-5.34,26.15-3.62s-1.52,3.52-12.63,7.78c-11.11,4.25-16.47,4.11-16.47,4.11l-11.79-2.92Z"/><g class="cls-18"><path class="cls-2" d="m843.21,276.12l15.49-5.37,22-1.92s4.65-2.57.92-3.5c-3.73-.93-23.64,2.7-23.64,2.7l-16.68,7.27,1.91.82Z"/></g><path class="cls-3" d="m931.23,232.21l12.99,11.05,30.61.96s12.81.83,34.28-8.35c18.77-8.03,29.57-14.87,32.53-17.18,0,0-3.68-5.89-17.27-3.01-18.57,3.94-70.65,19.52-70.65,19.52l-15.05-3.59s-4.31-.78-7.43.6Z"/><g class="cls-20"><path class="cls-2" d="m930.58,232.93s7.72,11,10.13,11.28c2.41.28,13.27-7.8,13.27-7.8,0,0,61.9-14.79,69.81-16.27,7.91-1.48,14.76-1.65,14.76-1.65,0,0-1.53-4.04-10.19-4.48-8.65-.44-93.45,14.61-93.45,14.61,0,0-7.78,2.39-4.33,4.32Z"/><path class="cls-1" d="m1024.01,220.26s-12.35,3.94-24.41,15.63c-12.06,11.69-9.19,11.23-9.19,11.23l45.38-19.98s-1.38-10.53-11.78-6.89Z"/></g><path class="cls-2" d="m1008.89,230.45l-.64-1.18s6.21-4.7,10.96-7.09c4.76-2.39,9.97-3.3,11.85-2.66,0,0,4.79,5.7,3.68,11.08,0,0-10.62,7.65-21.11,8.52l-.53-.96-8.06,2.06-.43-.82c-1.92.43-7.04,1.56-7.83,1.5-.8-.06,4.07-3.71,5.94-5.09l-.37-.71,6.54-4.65Z"/><g class="cls-19"><path class="cls-3" d="m1029.4,218.37l4.91,13.12,1.87-.96s-.16-4.76-2.39-8.51c-2.23-3.75-2.43-4-4.39-3.65Z"/><polygon class="cls-3" points="1008.17 229.03 1013.73 239.38 995.36 243.16 995.23 238.63 1008.17 229.03"/><path class="cls-5" d="m1002.25,234.88l2.89,5.4s-9.63,3.01-9.86,1.37c-.23-1.64,5.2-5.93,6.97-6.77Z"/></g><text/></g></g></g></svg>