<?xml version="1.0" encoding="UTF-8"?><svg id="Layer_2" xmlns="http://www.w3.org/2000/svg" viewBox="0 0 1600 800"><defs><style>.cls-1{opacity:.1;}.cls-2{fill:#f7f9f9;}.cls-3{fill:#005675;}.cls-4{fill:#003147;}.cls-5{fill:#00a3e4;}.cls-6{fill:#001d27;}.cls-7{fill:#eac3ae;}.cls-8{fill:#fff;}.cls-9{fill:#f26c00;}.cls-10{fill:#f2d3c6;}.cls-11{fill:#009be4;}.cls-12{fill:#d3dcdf;}.cls-13{fill:#5d311a;}.cls-14{fill:#46281a;}.cls-15{fill:#e9bda7;opacity:.5;}</style></defs><g id="Layer_1-2"><rect class="cls-2" width="1600" height="800"/><g id="Man_in_chair"><path class="cls-3" d="m651.92,505.92l-23.8,5.8-16.42-67.34,17.23,2.54c2.31,9.46,9.98,21.95,12.29,31.41,2.65,10.87,8.05,16.72,10.7,27.59Z"/><path class="cls-3" d="m619.78,505.46h195.98c8.76,0,15.87,7.11,15.87,15.87v7.88h-211.85v-23.75h0Z"/><path class="cls-3" d="m539.6,126.34v181.93l93.19,149.95c-22.56-66.95-42.57-109.72-65.13-176.67-17.04-50.58-11.01-104.62-28.06-155.2Z"/><rect class="cls-3" x="546.79" y="126.41" width="28.55" height="102.91" rx="8.38" ry="8.38" transform="translate(-9.52 33.42) rotate(-3.38)"/><path class="cls-12" d="m696.1,527.84c-7.5,18.18-35.79,25.55-51.45,25.55-23.74,0-42.99-27.93-42.99-62.38,0-31.08.02-58.37,20.5-63.15-5.04,8.83-5.08,27.78-1.2,45.08,6.52,29.08,13.97,44.4,42.99,54.91,5.89,2.13,26.77,3.09,32.14,0Z"/><polygon class="cls-10" points="638.22 230.37 587.14 230.37 584.08 196.03 638.22 188.01 638.22 230.37"/><g><path class="cls-15" d="m638.5,206.92h-36.13c-3.6,0-6.64-5.5-6.64-7.77.71,0,4.19,3.66,4.92,3.66,2.34,0,6.25,0,7.62,0,3.14,0,18.06,0,30.23,0,0,1.37,0,2.74,0,4.11Z"/><path class="cls-10" d="m646.08,202.67l-40.59,2.35c-15.19.88-28.23-10.47-29.13-25.35l-3.32-55.01c-.9-14.88,10.69-27.66,25.88-28.54l27.71-1.61c14.58-.84,27.11,10.05,27.97,24.34l4.21,69.77c.44,7.32-5.26,13.6-12.73,14.04Z"/><path class="cls-10" d="m644.79,139.05l-7.93,23.32c-1.02,2.99,1.45,6.01,4.58,5.62l21.59-2.7c3.15-.39,4.79-3.96,3.03-6.6l-13.66-20.62c-1.96-2.96-6.47-2.38-7.61.98Z"/><path d="m570.81,122.64c5.99,13.92,21.72,7.99,42.77.08,34.85-13.1,47.76-.95,44.29-15.74-2.22-9.5-5.13-26.53-10.17-29.4-2.67-1.52-2.32,2.11-4.56,2.15-22.12.38-32.76,2.23-39.59,3.03-17.65,2.07-38.92,25.5-32.74,39.88Z"/><path d="m602.47,148.1c-3.77-.11-15.59,7.79-17.31,11.08-.86,1.64-5.31,2.88-5.52,2.88-.16-.03-4.01-.66-4.42-1.38-.27-.48-1.69-15.33-1.67-15.98l-2.73-22.05c.03-1,.7-1.87,1.67-2.17l34.83-10.97c4.94-1.56,9.97,2.15,9.81,7.24l-11.33,30.9c-3.32.47-1.99.51-3.32.47Z"/><path class="cls-10" d="m597.37,160.01c-4.34,2.11-10.31-1-13.33-6.95-3.02-5.95-1.95-12.49,2.4-14.61,4.34-2.11,8.3,2.59,9.51,7.54,1.4,5.73,5.77,11.9,1.42,14.02Z"/><path class="cls-7" d="m592.28,147.99c1.57,3.64,6.44,5.1,2.84,6.59s-7.8-.25-9.37-3.89c-1.57-3.64.09-7.8,3.69-9.29,3.61-1.49,1.27,2.95,2.84,6.59Z"/><ellipse cx="641.38" cy="140.45" rx="3.04" ry="5.54"/><path class="cls-8" d="m658.81,179.28v6.08c-5.54-1.46-9.56-5.86-9.56-11.08,0-1.05-.33.97,0,0,1.19,3.84,5.12,3.86,9.56,5Z"/></g><polygon class="cls-9" points="1054.47 653.74 1022.05 671.68 1011.47 651.85 1035.53 635.79 1054.47 653.74"/><path class="cls-14" d="m1127,650.44c-.52.09-34.37,5.74-34.37,5.74-14.2-1.39-28.78-5.91-37.68-5.05-2.32.22-9.03,8.39-21.26,11.13-10.83,2.43-17.86,4.62-24.9,7.24,4.31,11.71,6.54,24.18,10.84,35.89,1.07,2.9,4.28,4.39,7.19,3.32l107.79-39.64c1.99-.73,6.87-3.78,6.14-5.77l-1.89-5.15c-.93-2.52-9.21-8.14-11.86-7.71Z"/><rect class="cls-9" x="997.19" y="675.02" width="18.43" height="9.44"/><path class="cls-13" d="m1089.91,702.09c-.52-.1-34.92-4.36-34.92-4.36-12.85-6.21-24.29-17.6-32.93-19.87-2.25-.59-11.37,4.76-23.8,3.11-11-1.46-18.36-1.82-25.87-1.8,0,12.48-2.21,24.95-2.21,37.42,0,3.09,2.51,5.6,5.6,5.6h114.85c2.11,0,7.75-1.18,7.75-3.29v-5.49c0-2.69-5.83-10.82-8.47-11.33Z"/><path class="cls-4" d="m899.46,511.72l-222.18-6.26,64.57-74.07,150.49,19.59c18.21,4.55,26.47,24.84,16.3,40.03l-9.17,20.72Z"/><path class="cls-6" d="m1037.06,632.67c-.19.17-2.87,12.07-21.14,25.53-20.83,15.34-34.83,13.97-33.16,12.85-40.34-67.32-74.1-110.42-122.8-172.24l44.89-41.01c23.54,24.44,45.53,56.37,65.63,83.57,24.22,32.76,43.24,61.66,66.58,91.31Z"/><path class="cls-4" d="m1019.88,665.01c-.22.16,5.74,4.7-15.04,16.86-23.69,13.86-38.34,10.8-36.46,9.8-35.29-75.93-66.26-125.47-110.98-196.53l47.45-37.34,115.04,207.21Z"/><path class="cls-5" d="m755.17,387.46c-7.61,5.82-27.06,34.87-20.48,52.71-1.57,1.12-52.41,64.18-54.01,65.27-.11.08-28.66.39-28.77.48-19.53-47.01-34.62-92.19-36.11-95.79-.53-1.32-.9-2.16-1.12-2.67,0,0,0-.03-.06-.14v-.03h-.03s0-.06-.03-.08c0-.06-.03-.09-.03-.11t-.03-.06s-.03-.06-.06-.11c0-.03,0-.06-.03-.09,0-.03-.03-.05-.03-.08-.06-.14-.14-.34-.22-.53-4.75-11.46-23.32-53.81-27.98-65.02-1.71-5.06-2.4-13.93-5.88-23.68-4.05-11.24-9.59-26.65-9.59-26.98,0-.03-9.09-30.78-9.09-30.84,2.25-7.95,22.22-36.35,24.52-44.41,3.51,3.01,13.99,6.1,26.55,7.59,11.75,1.38,22,.95,26.69-.81,3.96,6.38,20.23,20.77,23.35,26.61,5.93,11.02,24.92,21.64,30.83,32.68,9.98,18.6,19.42,29.9,29.39,48.5,8.23,15.34,17.96,28.32,18.49,33.3.37,3.57,18.69,20.51,13.71,24.31Z"/><path class="cls-12" d="m577.23,679.18h217.94c4.76,0,8.62,3.86,8.62,8.62v6.74c0,1.33-1.08,2.41-2.41,2.41h-224.16c-1.33,0-2.41-1.08-2.41-2.41v-12.96c0-1.33,1.08-2.41,2.41-2.41Z"/><polygon class="cls-12" points="706.17 682.71 688.42 686.15 664.65 582.5 682.54 580.19 706.17 682.71"/><polygon class="cls-12" points="607.71 687.07 586.19 683.49 669.88 597.41 675.78 618.99 607.71 687.07"/><rect class="cls-12" x="655.59" y="578.02" width="22.35" height="39.6"/><path class="cls-12" d="m826.75,573.25l-166.45,14.1c-29.59,2.51-54.9-22.34-54.9-53.88h0c0-3.12,2.38-5.64,5.31-5.64h215.62c2.93,0,5.31,2.53,5.31,5.64v34.15c0,2.94-2.13,5.39-4.89,5.62Z"/><path class="cls-12" d="m623.05,535.68l-16.61,8.65c-5.89-20.25-14.35-35.45-20.24-55.7-3.99-13.71-5.88-31.44-5.88-50.97h35.81l6.93,98.02Z"/><path class="cls-12" d="m771.03,437.66l-184.84,12.81-15.11-32.41h208.8v10.76c0,4.89-3.96,8.85-8.85,8.85Z"/><path class="cls-12" d="m547.77,296.9h-33.72l-7.82-159.5c0-11.3,9.16-20.46,20.46-20.46h13.24l7.84,179.97Z"/><polygon class="cls-12" points="609.72 421.97 580.31 437.66 514.05 296.9 547.77 296.9 609.72 421.97"/><rect class="cls-4" x="592.82" y="412.1" width="187.06" height="5.95"/><path class="cls-10" d="m686.35,412.1h-28.93c-5.18,0-9.85-3.09-11.88-7.86l-29.8-70.1c1.05-.26,14.17,1.05,15.24.78.25-.06,10.87-.56,11.5-.78,13.11-4.7,13.8-10.12,20.39-11.76,3.81,14.58,11.25,40.31,15.06,54.89,4.01,15.33,4.4,19.5,8.41,34.83Z"/><path class="cls-10" d="m786.5,412.36l-128.33.88c-5.63,0-10.72-3.36-12.92-8.55l-13.45-31.63,159.24,14.22-4.54,25.07Z"/><path class="cls-11" d="m653.04,284.56c-.02-4.1-.8-8.27-2.48-12.35-6.5-15.74-23.68-23.57-38.43-17.49-14.73,6.08-21.41,23.76-14.92,39.5.56,1.35,1.19,2.67,1.91,3.89-1.94-2.33-3.55-4.98-4.77-7.94-6.5-15.74,1-33.76,16.71-40.24,15.74-6.5,33.76,1,40.25,16.74,2.43,5.9,2.89,12.09,1.73,17.89Z"/><path class="cls-10" d="m788.67,387.64l-2.37,24.15c-.13,1.35,8.04,2.72,8.93,3.03l8.27,5.36c.49.17.28.62,0,0l-13.83-32.88c-.28-.62-.92-.4-1,.35Z"/><rect x="1027.67" y="681.25" width="2.16" height="8.06" transform="translate(605.5 -476.1) rotate(36.31)"/><rect x="1033.54" y="685.56" width="2.16" height="8.06" transform="translate(609.19 -478.73) rotate(36.31)"/><rect x="1039.89" y="690.18" width="2.16" height="8.06" transform="translate(613.16 -481.6) rotate(36.31)"/><rect x="1064.24" y="652.65" width="2.16" height="8.06" transform="translate(124.77 -168.85) rotate(9.62)"/><rect x="1071.42" y="653.86" width="2.16" height="8.06" transform="translate(125.07 -170.03) rotate(9.62)"/><rect x="1079.17" y="655.14" width="2.16" height="8.06" transform="translate(125.39 -171.31) rotate(9.62)"/><path class="cls-10" d="m792.14,413.24c-6.9-9.53-12.55-26.64-6.56-26.28,5.46.33,19.11,3.36,23.73,12.73,4.62,9.37,4,19.11-1.38,21.76-5.38,2.65-9.89-.07-15.79-8.21Z"/><ellipse class="cls-10" cx="805.85" cy="431.38" rx="12.07" ry="3.38" transform="translate(186.28 1103.41) rotate(-75.49)"/><path class="cls-10" d="m801.36,415.08c0,6.67,4.18,17.49,6.69,17.49s6.12-17.8,4.08-24.14c-2.82-8.74-1.57,0-4.08,0s-6.69-.01-6.69,6.65Z"/></g><path class="cls-1" d="m788.91,440.48l-198.6,13.76-16.23-34.82h224.34v11.56c0,5.25-4.26,9.5-9.5,9.5Z"/></g></svg>