<?xml version="1.0" encoding="UTF-8"?>
<svg xmlns="http://www.w3.org/2000/svg" viewBox="0 0 200 200">
  <defs>
    <style>
      .cls-1 {
        fill: none;
      }

      .cls-1, .cls-2, .cls-3, .cls-4, .cls-5, .cls-6, .cls-7, .cls-8, .cls-9, .cls-10, .cls-11 {
        stroke-width: 0px;
      }

      .cls-2 {
        fill: #91d6f7;
      }

      .cls-3 {
        fill: #112b43;
        opacity: .3;
      }

      .cls-4 {
        fill: #0094d8;
      }

      .cls-5 {
        fill: rgba(38, 135, 18, .3);
      }

      .cls-6 {
        opacity: .79;
      }

      .cls-6, .cls-10 {
        fill: #9fd994;
      }

      .cls-7 {
        fill: #bee6f4;
      }

      .cls-8 {
        fill: #ccebf6;
      }

      .cls-9 {
        fill: #32b0e5;
      }

      .cls-11 {
        fill: #fff;
      }
    </style>
  </defs>
  <g id="EARTH_IN_GLASS" data-name="EARTH IN GLASS">
    <circle class="cls-7" cx="100" cy="100" r="100"/>
    <polygon class="cls-9" points="164.31 156.88 164.32 156.88 164.32 156.87 164.31 156.88"/>
    <path class="cls-9" d="M169.02,158.21s0,0,0,0c0,0-.01,0-.02,0h.01Z"/>
    <ellipse class="cls-3" cx="100" cy="171.21" rx="49.21" ry="3.21"/>
    <path class="cls-9" d="M128.6,147.73c22.98,0,41.68-18.7,41.68-41.68,0-22.98-18.7-41.68-41.68-41.68-22.98,0-41.68,18.7-41.68,41.68,0,22.98,18.7,41.68,41.68,41.68Z"/>
    <g>
      <path class="cls-10" d="M162.22,98.68c-1.47.69-2.69,1.4-3.4,2.77-.97,1.87-.6,4.25-2.22,5.81-2.7,2.65-7.19,4.79-9.39,7.78-.98,1.32-1.82,2.81-2.72,4.18-1.14,1.82-2.92,3.99-4.53,6.08-1.14,1.07-6.39,9.87-6.77,4.94-.14-2.14.56-4.36.33-6.53-.23-2.65-.4-5.17-.96-7.62-.81-2.91-2.12-5.96-3.09-8.84-.88-2.84-1.47-5.48.09-7.31.96-.8,2.16-.96,3.4-1.44,1.11-.38,2.42-.83,3.82-1.31,4.13-1.42,10.3-3.52,13.97-4.78.91-.28,1.64-.66,2.53-.5,1.94.56,3.65,3.49,5.37,3.86h.06c1.44.16,1.87-1.96,2.38-3.21.05-.16.1-.33.15-.49.62,2.08,1.08,4.23,1.36,6.43-.13.07-.26.13-.39.2Z"/>
      <path class="cls-4" d="M121.28,145.56c22.98,0,41.68-18.7,41.68-41.68,0-1.83-.13-3.64-.36-5.41,1.7-.88,3.95-1.48,5.5-1.66.46-.07.78-.26,1-.53.76,3.13,1.16,6.4,1.16,9.76,0,22.98-18.7,41.68-41.68,41.68-5.44,0-10.63-1.06-15.39-2.96,2.61.52,5.31.79,8.08.79Z"/>
      <path class="cls-4" d="M157.44,79.02c-.43,1.07-.19,2.29.47,3.27,1.3,2.23,3.91,3.44,4.1,5.86.06,1.31-.37,2.61-.77,3.89-3.64-12.27-12.79-22.19-24.57-26.89,9.07,1.79,17.09,6.53,23.03,13.18-.03-.02-.06-.05-.1-.08-1.04-.66-1.79-.21-2.16.76Z"/>
      <path class="cls-4" d="M162.61,98.47c-.29-2.2-.75-4.35-1.36-6.43.4-1.28.83-2.59.77-3.89-.19-2.42-2.8-3.63-4.1-5.86-.66-.98-.91-2.19-.47-3.27.37-.97,1.12-1.43,2.16-.76.03.02.07.05.1.08,4.49,5.04,7.78,11.17,9.41,17.94-.22.27-.54.46-1,.53-1.55.18-3.8.79-5.5,1.66Z"/>
    </g>
    <path class="cls-11" d="M114.87,145.02c.38-.99-.62-2.32-1.23-3.18-3.04-4.05-8.35-4.45-12.49-6.84-2.24-1.11-4.94-3.1-4.28-1.85,3.15,3.93,7,7.12,11.68,9.75,1.77.85,5.11,2.9,6.29,2.17l.03-.04Z"/>
    <circle class="cls-8" cx="95.52" cy="71.5" r="39.12"/>
    <path class="cls-2" d="M130.75,59.22c.65,0,1.29.02,1.93.05,1.27,3.85,1.96,7.96,1.96,12.23,0,21.61-17.51,39.12-39.12,39.12-5.18,0-10.11-1.01-14.63-2.84.72-26.89,22.8-48.56,49.86-48.56Z"/>
    <path class="cls-6" d="M108.57,68.06c1.11,2.4,1.1,5.89,1.41,8.54.13,1.71.17,3.26.08,4.63-.59,5.08-2.4,10.33-4.99,14.88-2.83,4.21-9.05,8.24-13.25,11.73-2.86,2.26-8.34,4.89-10.59,2.55-2.05-2.56.16-7.94.56-11.05,2.11-11.15,7.22-18.09,13.79-27.15,2.36-3.05,10.17-8.34,12.94-4.24l.06.1Z"/>
    <path class="cls-5" d="M162.62,98.47c-.29-2.2-.75-4.35-1.36-6.43.4-1.28.83-2.59.77-3.89-.19-2.42-2.8-3.63-4.1-5.86-.66-.98-.91-2.19-.47-3.27.37-.97,1.12-1.43,2.16-.76.03.02.07.05.1.08,4.49,5.04,7.78,11.17,9.41,17.94-.22.27-.54.46-1,.53-1.55.18-3.8.79-5.5,1.66Z"/>
    <rect class="cls-4" x="45.62" y="94.42" width="10.66" height="60.62" rx="5.33" ry="5.33" transform="translate(10.87 253.36) rotate(-140.48)"/>
    <path class="cls-1" d="M76.68,104.11c18.63,10.52,42.35,3.91,52.87-14.72,10.52-18.64,3.91-42.35-14.72-52.87-5.9-3.33-12.42-5.03-19.02-5.03-3.49,0-7.01.48-10.47,1.44-9.99,2.78-18.29,9.28-23.39,18.31-10.52,18.64-3.91,42.35,14.72,52.87ZM120.16,85.72c4.26-7.56,5.25-16.32,2.78-24.66-.51-1.71.47-3.52,2.19-4.02,1.72-.51,3.52.47,4.02,2.19,2.97,10.05,1.78,20.59-3.35,29.68-.6,1.05-1.69,1.65-2.82,1.65-.54,0-1.09-.13-1.59-.42-1.56-.88-2.11-2.85-1.23-4.41ZM118.68,46.49c1.4-1.12,3.43-.89,4.55.5.98,1.22,1.9,2.53,2.72,3.87.94,1.52.46,3.52-1.06,4.45-.53.33-1.12.48-1.69.48-1.09,0-2.15-.55-2.76-1.54-.69-1.12-1.45-2.2-2.26-3.22-1.12-1.4-.89-3.43.51-4.55Z"/>
    <path class="cls-4" d="M64.23,103.79c2.72,2.64,5.82,4.98,9.27,6.93,2.28,1.29,4.63,2.35,7.02,3.21,4.95,1.77,10.08,2.63,15.16,2.63,15.82,0,31.2-8.29,39.51-23.02,12.27-21.75,4.57-49.42-17.18-61.69-10.53-5.95-22.75-7.43-34.4-4.19-11.65,3.24-21.34,10.83-27.29,21.37-10.32,18.29-6.51,40.78,7.91,54.77ZM56.4,71.5c0-21.61,17.51-39.12,39.12-39.12s39.12,17.51,39.12,39.12c0,21.61-17.51,39.12-39.12,39.12-21.61,0-39.12-17.51-39.12-39.12Z"/>
    <g>
      <path class="cls-11" d="M73.51,46.78c-1.34-1.19-3.39-1.06-4.57.28-1.04,1.18-2.02,2.43-2.91,3.73-1.01,1.47-.63,3.49.84,4.5.51.35,1.09.54,1.67.56,1.09.05,2.17-.44,2.83-1.4.74-1.08,1.56-2.13,2.42-3.1,1.18-1.34,1.06-3.39-.28-4.57Z"/>
      <path class="cls-11" d="M68.54,61.12c.59-1.69-.3-3.53-1.99-4.12-1.69-.59-3.53.3-4.13,1.99-3.46,9.89-2.79,20.48,1.89,29.81.54,1.08,1.61,1.73,2.74,1.78.54.03,1.09-.08,1.61-.34,1.6-.8,2.24-2.75,1.44-4.34-3.89-7.76-4.45-16.55-1.57-24.77Z"/>
    </g>
  </g>
  <g id="STARS">
    <path class="cls-11" d="M125.94,57.56l-.91,3.79c-.24,1.01-1.03,1.81-2.03,2.06l-3.76.96c-1.04.27-1.04,1.75,0,2.02l3.76.96c1.01.26,1.79,1.05,2.03,2.06l.91,3.79c.25,1.06,1.77,1.06,2.02,0l.91-3.79c.24-1.01,1.03-1.81,2.03-2.06l3.76-.96c1.04-.27,1.04-1.75,0-2.02l-3.76-.96c-1.01-.26-1.79-1.05-2.03-2.06l-.91-3.79c-.25-1.06-1.77-1.06-2.02,0Z"/>
    <path class="cls-11" d="M119.43,19.55l-2.19,9.15c-.26,1.09-1.1,1.94-2.19,2.22l-9.17,2.34c-2.6.66-2.6,4.36,0,5.02l9.17,2.34c1.08.28,1.93,1.13,2.19,2.22l2.19,9.15c.63,2.65,4.4,2.65,5.04,0l2.19-9.15c.26-1.09,1.1-1.94,2.19-2.22l9.17-2.34c2.6-.66,2.6-4.36,0-5.02l-9.17-2.34c-1.08-.28-1.93-1.13-2.19-2.22l-2.19-9.15c-.63-2.65-4.4-2.65-5.04,0Z"/>
  </g>
</svg>