<svg xmlns="http://www.w3.org/2000/svg" width="62" height="15" fill="none" viewBox="0 0 62 15"><path fill="#0800B9" d="M59.267 0H2.733A2.733 2.733 0 0 0 0 2.733v9.534A2.733 2.733 0 0 0 2.733 15h56.534A2.733 2.733 0 0 0 62 12.267V2.733A2.733 2.733 0 0 0 59.267 0"/><path fill="#fff" d="M6.493 9.53h3.557v1.213H4.993V4.21H9.93v1.213H6.497V9.53zm-.11-2.697h3.144V8.02H6.383zm4.134 3.91 2.8-3.873v1.1L10.64 4.21h1.707l1.856 2.613-.726.02 1.846-2.633h1.634L14.29 7.907V6.823l2.827 3.92h-1.744L13.45 7.97h.69l-1.893 2.773zm7.396 0V4.21h2.827c.583 0 1.09.093 1.513.283q.636.286.98.817.346.53.347 1.26c.001.73-.117.913-.347 1.263q-.344.53-.98.817-.633.29-1.513.29h-1.997l.69-.68v2.483zm1.52-2.313-.69-.72h1.914q.691 0 1.046-.3t.354-.84c-.001-.54-.117-.64-.354-.837q-.353-.293-1.046-.293h-1.914l.69-.72zm5.31 2.313V4.21h1.52v5.3h3.257v1.233zm8.807.11a3.9 3.9 0 0 1-1.427-.253 3.4 3.4 0 0 1-1.14-.71 3.2 3.2 0 0 1-.75-1.073 3.4 3.4 0 0 1-.266-1.344c0-.483.09-.94.266-1.35a3.2 3.2 0 0 1 .75-1.07q.485-.455 1.134-.71a3.9 3.9 0 0 1 1.423-.253 4 4 0 0 1 1.423.247c.434.163.81.4 1.134.703q.485.46.75 1.073.265.617.266 1.354c0 .49-.09.933-.266 1.35a3.2 3.2 0 0 1-.75 1.076q-.484.46-1.134.704a4 4 0 0 1-1.413.246zm-.01-1.28a1.97 1.97 0 0 0 1.457-.593q.279-.284.433-.663a2.2 2.2 0 0 0 .153-.844q0-.466-.153-.843a2.1 2.1 0 0 0-.433-.663 2 2 0 0 0-.65-.44 2.1 2.1 0 0 0-.807-.154q-.44-.001-.81.154-.375.155-.65.44a2.1 2.1 0 0 0-.43.663 2.2 2.2 0 0 0-.153.843c0 .31.05.594.153.844q.155.379.43.663t.65.44q.375.154.81.153m4.713 1.17V4.21h2.827c.583 0 1.09.093 1.513.283q.636.286.98.817.346.53.347 1.26c.001.73-.117.913-.347 1.263q-.344.53-.98.804-.634.275-1.513.276h-1.997l.69-.653v2.483zm1.52-2.313-.69-.72h1.914q.691 0 1.046-.3t.354-.84c-.001-.54-.117-.64-.354-.837q-.353-.293-1.046-.293h-1.914l.69-.72zm2.64 2.313-1.643-2.37h1.623l1.644 2.37zm4.2-1.213h3.557v1.213h-5.057V4.21h4.937v1.213h-3.433V9.53zm-.11-2.697h3.144V8.02h-3.144zm4.87 3.91V4.21H54.2c.583 0 1.09.093 1.513.283q.636.286.98.817.346.53.347 1.26c.001.73-.117.913-.347 1.263q-.344.53-.98.804-.634.275-1.513.276h-1.997l.69-.653v2.483zm1.52-2.313-.69-.72h1.914q.691 0 1.046-.3t.354-.84c-.001-.54-.117-.64-.354-.837q-.353-.293-1.046-.293h-1.914l.69-.72zm2.64 2.313-1.643-2.37h1.623l1.644 2.37z"/></svg>